<?xml version="1.0" encoding="UTF-8" standalone="no"?>
<!-- Created with Inkscape (http://www.inkscape.org/) -->
<!DOCTYPE svg PUBLIC "-//W3C//DTD SVG 1.0//EN" "http://www.w3.org/TR/2001/REC-SVG-20010904/DTD/svg10.dtd">
<svg xmlns:dc="http://purl.org/dc/elements/1.1/" xmlns:cc="http://web.resource.org/cc/" xmlns:rdf="http://www.w3.org/1999/02/22-rdf-syntax-ns#" xmlns:svg="http://www.w3.org/2000/svg" xmlns="http://www.w3.org/2000/svg" xmlns:sodipodi="http://sodipodi.sourceforge.net/DTD/sodipodi-0.dtd" xmlns:inkscape="http://www.inkscape.org/namespaces/inkscape" width="252" height="199" id="svg2" version="1.0">
<g transform="translate(-135.06609,-358.03129)">
<path style="fill:#f28500;fill-opacity:1" d="M 188.40239,548.4893 C 187.84747,547.80786 185.34229,542.30031 182.83532,536.25031 C 173.19899,512.99518 165.06068,493.21339 153.72489,465.49162 L 141.96509,436.73293 L 143.5749,433.34049 C 144.4603,431.47465 145.18472,428.86023 145.18472,427.53068 C 145.18472,426.20113 145.87347,422.79405 146.71527,419.9594 C 147.85666,416.11591 149.19151,414.1028 151.96527,412.04176 C 154.01097,410.5217 159.95972,405.28126 165.18472,400.39632 C 181.93337,384.73774 193.08752,378.75031 205.5097,378.75031 C 210.94249,378.75031 212.46103,379.17205 215.78468,381.60391 C 217.9297,383.17339 220.54196,385.42339 221.58971,386.60391 C 224.33508,389.69719 225.67588,389.28948 228.50759,384.50031 C 232.0472,378.51389 237.84172,373.22106 243.67402,370.64701 C 247.99012,368.74213 251.36333,368.33275 268.67402,367.61298 C 279.6799,367.15535 290.36674,366.50045 292.42255,366.15764 C 296.81491,365.42519 292.7132,361.6654 338.07711,408.00643 L 368.18472,438.76254 L 368.18472,443.19882 C 368.18472,447.19425 368.77924,448.31161 374.16734,454.44271 C 380.07738,461.16773 380.15017,461.32464 380.16734,467.37787 C 380.17788,471.09485 379.69297,473.90215 378.93472,474.51389 C 378.24722,475.06855 372.95972,476.29004 367.18472,477.22831 C 361.40972,478.16659 344.43817,481.36787 329.47017,484.34229 C 314.50217,487.3167 302.01943,489.75031 301.73076,489.75031 C 301.44208,489.75031 298.74477,491.97911 295.73673,494.70321 C 287.42323,502.23195 285.08581,503.188 274.61636,503.34183 L 265.54801,503.47507 L 251.222,511.19525 C 234.43555,520.24133 220.32739,528.85559 203.68472,540.2209 C 188.71353,550.44475 189.60292,549.96356 188.40239,548.4893 z M 202.68472,529.61856 C 213.13757,520.76682 231.90427,507.00503 238.72071,503.19306 C 248.65949,497.63498 254.8735,495.56465 263.68472,494.87577 L 271.68472,494.25031 L 272.81427,488.52997 C 273.43553,485.38379 274.69614,480.9294 275.61564,478.63134 C 276.68675,475.9544 276.94163,474.10722 276.32498,473.49057 C 275.79562,472.96121 272.06,472.54235 268.02361,472.55979 C 254.22072,472.61941 240.96981,478.65812 223.68472,492.7659 C 218.18472,497.25491 209.52222,504.05995 204.43472,507.88822 C 195.60893,514.52951 195.18472,515.02318 195.18472,518.65283 C 195.18472,520.74508 194.89561,525.22294 194.54226,528.60362 C 193.73261,536.34994 194.60707,536.45894 202.68472,529.61856 z M 190.41951,521.00031 L 190.8873,514.25031 L 171.94312,469.25031 C 161.52382,444.50031 152.59824,423.83031 152.1085,423.31698 C 150.6057,421.7418 149.82774,423.53733 149.38981,429.59177 C 148.99418,435.06129 149.48214,436.60994 157.96943,456.82072 C 174.53678,496.2726 186.40607,524.23462 187.3347,526.00031 C 189.04355,529.24948 189.94961,527.78091 190.41951,521.00031 z M 201.6018,503.81307 C 205.18944,501.09759 211.40077,496.02244 215.40475,492.53496 C 235.09493,475.38475 250.71384,467.75031 266.11045,467.75031 C 270.57128,467.75031 272.40067,467.35113 272.80833,466.2888 C 273.12692,465.45856 271.02677,461.46315 267.94616,457.0388 C 264.96352,452.75513 257.63288,442.27531 251.65587,433.75031 C 245.67886,425.22531 237.55192,413.52531 233.59601,407.75031 C 226.1169,396.83201 215.32265,385.51365 210.72024,383.76381 C 204.22478,381.29425 193.10135,384.26216 183.36716,391.06206 C 175.36018,396.6554 155.76327,414.70453 155.37907,416.83963 C 155.21096,417.77384 162.48122,436.02342 171.53521,457.39425 C 192.99015,508.03602 193.30625,508.75031 194.26247,508.75031 C 194.71146,508.75031 198.01415,506.52855 201.6018,503.81307 z M 300.3695,478.46473 C 309.54312,469.34226 313.76289,468.27095 345.95563,466.89143 C 356.66556,466.43249 364.67456,465.66047 365.30918,465.02585 C 366.08603,464.249 366.08013,462.48984 365.28827,458.79754 C 364.68132,455.96742 364.18472,451.92912 364.18472,449.82353 C 364.18472,443.79408 363.38182,443.56125 346.54923,444.70938 C 317.07932,446.71949 301.96626,450.94162 293.63533,459.49192 C 289.81198,463.41594 282.60284,476.50176 283.67417,477.5731 C 284.01398,477.9129 285.86811,478.05513 287.79448,477.88916 C 290.90441,477.62122 291.42732,477.93277 292.46008,480.66886 C 293.09979,482.36366 293.94519,483.75031 294.33874,483.75031 C 294.73229,483.75031 297.44613,481.3718 300.3695,478.46473 z M 284.97333,461.91264 C 287.46622,457.47713 295.4856,449.68032 299.9059,447.39449 C 306.17156,444.15439 318.06227,441.73578 335.10573,440.23473 C 357.59928,438.25367 359.38371,437.95844 358.99707,436.28207 C 358.82528,435.53725 344.13596,420.22867 326.35414,402.26301 C 301.48914,377.14093 293.63807,369.76516 292.35414,370.32132 C 291.43596,370.71905 281.90972,371.37665 271.18472,371.78266 C 247.87914,372.66492 243.07999,373.87888 237.07426,380.41103 C 233.68003,384.10277 229.18472,390.90296 229.18472,392.34576 C 229.18472,392.96791 231.32222,396.41083 233.93472,399.99668 C 236.54722,403.58253 241.60972,410.70709 245.18472,415.82903 C 270.87602,452.63723 280.4798,465.75031 281.74615,465.75031 C 282.33481,465.75031 283.78704,464.02336 284.97333,461.91264 z M 298.85139,437.08364 C 296.66495,434.89721 301.96557,427.75031 305.77361,427.75031 C 309.20371,427.75031 308.90288,430.87831 305.1078,434.67339 C 302.09658,437.6846 300.18772,438.41998 298.85139,437.08364 z M 291.8134,423.72087 C 287.73193,418.87031 287.59171,415.23055 291.09893,405.17402 C 292.79611,400.30755 294.18472,394.69982 294.18472,392.71241 C 294.18472,383.84869 283.44572,381.39062 271.16369,387.44309 C 263.61954,391.16078 256.50655,397.77605 255.32682,402.1718 C 253.93823,407.34576 254.70157,407.96124 261.59192,407.22334 C 266.78777,406.66692 268.10119,406.86209 270.11057,408.48918 C 274.85805,412.33346 269.6177,418.75031 261.73077,418.75031 C 254.4747,418.75031 249.18472,413.69471 249.18472,406.76013 C 249.18472,399.31522 257.61502,389.81098 269.00511,384.41483 C 274.78844,381.67493 276.76814,381.25031 283.75904,381.25031 C 290.70657,381.25031 292.35584,381.59919 295.57737,383.75031 C 297.63658,385.12531 300.19064,387.91988 301.25306,389.96047 C 304.14788,395.52058 303.70596,400.75466 299.55364,410.08831 C 297.28271,415.19293 295.90922,419.84231 295.88697,422.50031 C 295.8674,424.83781 295.51639,426.75031 295.10695,426.75031 C 294.69751,426.75031 293.21541,425.38706 291.8134,423.72087 z " id="path2176"/>
</g>
</svg>