<?xml version="1.0" encoding="UTF-8" standalone="no"?>
<!-- Created with Inkscape (http://www.inkscape.org/) -->

<svg
   xmlns:dc="http://purl.org/dc/elements/1.1/"
   xmlns:cc="http://creativecommons.org/ns#"
   xmlns:rdf="http://www.w3.org/1999/02/22-rdf-syntax-ns#"
   xmlns:svg="http://www.w3.org/2000/svg"
   xmlns="http://www.w3.org/2000/svg"
   xmlns:xlink="http://www.w3.org/1999/xlink"
   xmlns:sodipodi="http://sodipodi.sourceforge.net/DTD/sodipodi-0.dtd"
   xmlns:inkscape="http://www.inkscape.org/namespaces/inkscape"
   id="svg2"
   version="1.1"
   inkscape:version="0.48.2 r9819"
   width="864"
   height="864"
   sodipodi:docname="search_text.svg"
   inkscape:export-filename="D:\DocData\Doc3\Dropbox\Grafica\Ebookdroid resources\search_text.png"
   inkscape:export-xdpi="5"
   inkscape:export-ydpi="5">
  <metadata
     id="metadata8">
    <rdf:RDF>
      <cc:Work
         rdf:about="">
        <dc:format>image/svg+xml</dc:format>
        <dc:type
           rdf:resource="http://purl.org/dc/dcmitype/StillImage" />
        <dc:title></dc:title>
      </cc:Work>
    </rdf:RDF>
  </metadata>
  <defs
     id="defs6">
    <linearGradient
       inkscape:collect="always"
       id="linearGradient3913">
      <stop
         style="stop-color:#dbdbdb;stop-opacity:1;"
         offset="0"
         id="stop3915" />
      <stop
         style="stop-color:#dbdbdb;stop-opacity:0;"
         offset="1"
         id="stop3917" />
    </linearGradient>
    <linearGradient
       inkscape:collect="always"
       id="linearGradient3841">
      <stop
         style="stop-color:#ececec;stop-opacity:1;"
         offset="0"
         id="stop3843" />
      <stop
         style="stop-color:#ececec;stop-opacity:0;"
         offset="1"
         id="stop3845" />
    </linearGradient>
    <linearGradient
       inkscape:collect="always"
       id="linearGradient3832">
      <stop
         style="stop-color:#c6c6c6;stop-opacity:1;"
         offset="0"
         id="stop3834" />
      <stop
         style="stop-color:#c6c6c6;stop-opacity:0;"
         offset="1"
         id="stop3836" />
    </linearGradient>
    <linearGradient
       inkscape:collect="always"
       id="linearGradient3837">
      <stop
         style="stop-color:#d7d7d7;stop-opacity:1;"
         offset="0"
         id="stop3839" />
      <stop
         style="stop-color:#d7d7d7;stop-opacity:0;"
         offset="1"
         id="stop3841" />
    </linearGradient>
    <linearGradient
       inkscape:collect="always"
       id="linearGradient3815">
      <stop
         style="stop-color:#c3c3c3;stop-opacity:0.88770056"
         offset="0"
         id="stop3817" />
      <stop
         style="stop-color:#e2e2e2;stop-opacity:0;"
         offset="1"
         id="stop3819" />
    </linearGradient>
    <linearGradient
       inkscape:collect="always"
       id="linearGradient3757">
      <stop
         style="stop-color:#e5e5e5;stop-opacity:1;"
         offset="0"
         id="stop3759" />
      <stop
         style="stop-color:#e5e5e5;stop-opacity:0;"
         offset="1"
         id="stop3761" />
    </linearGradient>
    <linearGradient
       inkscape:collect="always"
       xlink:href="#linearGradient3757"
       id="linearGradient3763"
       x1="20.530037"
       y1="35.872807"
       x2="841.94348"
       y2="847.97174"
       gradientUnits="userSpaceOnUse" />
    <linearGradient
       inkscape:collect="always"
       xlink:href="#linearGradient3757"
       id="linearGradient3767"
       gradientUnits="userSpaceOnUse"
       x1="20.530037"
       y1="35.872807"
       x2="841.94348"
       y2="847.97174"
       gradientTransform="matrix(0.96674391,0,0,0.96090293,16.079766,17.425498)" />
    <linearGradient
       inkscape:collect="always"
       xlink:href="#linearGradient3757"
       id="linearGradient3770"
       gradientUnits="userSpaceOnUse"
       x1="20.530037"
       y1="35.872807"
       x2="841.94348"
       y2="847.97174"
       gradientTransform="matrix(0.95026745,0,0,0.92912484,3.8916148,10.167317)" />
    <radialGradient
       inkscape:collect="always"
       xlink:href="#linearGradient3796"
       id="radialGradient3802"
       cx="309.99777"
       cy="416.2869"
       fx="309.99777"
       fy="416.2869"
       r="107.15402"
       gradientTransform="matrix(1.8689592,1.4894632,-1.8667205,2.3423366,-8182.0767,-537.14583)"
       gradientUnits="userSpaceOnUse" />
    <linearGradient
       inkscape:collect="always"
       id="linearGradient3796">
      <stop
         style="stop-color:#e0e0e0;stop-opacity:1;"
         offset="0"
         id="stop3798" />
      <stop
         style="stop-color:#e0e0e0;stop-opacity:0;"
         offset="1"
         id="stop3800" />
    </linearGradient>
    <linearGradient
       inkscape:collect="always"
       xlink:href="#linearGradient3815"
       id="linearGradient3821"
       x1="-167.60034"
       y1="-322.45142"
       x2="938.29193"
       y2="962.0343"
       gradientUnits="userSpaceOnUse" />
    <linearGradient
       inkscape:collect="always"
       xlink:href="#linearGradient3815"
       id="linearGradient3829"
       gradientUnits="userSpaceOnUse"
       x1="-167.60034"
       y1="-322.45142"
       x2="938.29193"
       y2="962.0343" />
    <linearGradient
       inkscape:collect="always"
       xlink:href="#linearGradient3837"
       id="linearGradient3843"
       x1="-22.750509"
       y1="805.06891"
       x2="867.4079"
       y2="92.172035"
       gradientUnits="userSpaceOnUse" />
    <filter
       inkscape:collect="always"
       id="filter3849">
      <feGaussianBlur
         inkscape:collect="always"
         stdDeviation="9.6989236"
         id="feGaussianBlur3851" />
    </filter>
    <linearGradient
       gradientTransform="matrix(0.95026745,0,0,0.92912484,3.8916148,10.167317)"
       y2="847.97174"
       x2="841.94348"
       y1="35.872807"
       x1="20.530037"
       gradientUnits="userSpaceOnUse"
       id="linearGradient3770-2"
       xlink:href="#linearGradient3757-0"
       inkscape:collect="always" />
    <linearGradient
       gradientTransform="matrix(0.96674391,0,0,0.96090293,16.079766,17.425498)"
       y2="847.97174"
       x2="841.94348"
       y1="35.872807"
       x1="20.530037"
       gradientUnits="userSpaceOnUse"
       id="linearGradient3767-8"
       xlink:href="#linearGradient3757-0"
       inkscape:collect="always" />
    <linearGradient
       gradientUnits="userSpaceOnUse"
       y2="847.97174"
       x2="841.94348"
       y1="35.872807"
       x1="20.530037"
       id="linearGradient3763-8"
       xlink:href="#linearGradient3757-0"
       inkscape:collect="always" />
    <linearGradient
       id="linearGradient3757-0"
       inkscape:collect="always">
      <stop
         id="stop3759-9"
         offset="0"
         style="stop-color:#e5e5e5;stop-opacity:1;" />
      <stop
         id="stop3761-4"
         offset="1"
         style="stop-color:#e5e5e5;stop-opacity:0;" />
    </linearGradient>
    <radialGradient
       inkscape:collect="always"
       xlink:href="#linearGradient3832"
       id="radialGradient3838"
       cx="302.76053"
       cy="364.72681"
       fx="302.76053"
       fy="364.72681"
       r="107.93998"
       gradientUnits="userSpaceOnUse"
       gradientTransform="matrix(2.134436,-0.11526869,0.07136138,1.2474926,-369.48985,-55.368394)" />
    <linearGradient
       inkscape:collect="always"
       xlink:href="#linearGradient3841"
       id="linearGradient3847"
       x1="343.43735"
       y1="474.52817"
       x2="1228.9606"
       y2="923.96313"
       gradientUnits="userSpaceOnUse" />
    <linearGradient
       inkscape:collect="always"
       xlink:href="#linearGradient3841"
       id="linearGradient3851"
       gradientUnits="userSpaceOnUse"
       x1="343.43735"
       y1="474.52817"
       x2="1228.9606"
       y2="923.96313"
       gradientTransform="translate(277.02242,767.13902)" />
    <filter
       inkscape:collect="always"
       id="filter3857"
       x="-0.11892562"
       width="1.2378512"
       y="-0.12109397"
       height="1.2421879">
      <feGaussianBlur
         inkscape:collect="always"
         stdDeviation="30.440625"
         id="feGaussianBlur3859" />
    </filter>
    <radialGradient
       gradientTransform="matrix(0.53909753,0.81048353,-0.88353922,0.58769093,491.26064,-111.70503)"
       gradientUnits="userSpaceOnUse"
       r="107.93998"
       fy="382.58771"
       fx="332.45514"
       cy="382.58771"
       cx="332.45514"
       id="radialGradient3777"
       xlink:href="#linearGradient3771"
       inkscape:collect="always" />
    <linearGradient
       gradientUnits="userSpaceOnUse"
       y2="423.61337"
       x2="805.3064"
       y1="423.61337"
       x1="22.052872"
       id="linearGradient3807"
       xlink:href="#linearGradient3757-9"
       inkscape:collect="always" />
    <filter
       id="filter3795"
       inkscape:collect="always">
      <feGaussianBlur
         id="feGaussianBlur3797"
         stdDeviation="7.8156891"
         inkscape:collect="always" />
    </filter>
    <linearGradient
       gradientTransform="matrix(0.95026745,0,0,0.92912484,3.8916148,10.167317)"
       y2="847.97174"
       x2="841.94348"
       y1="35.872807"
       x1="20.530037"
       gradientUnits="userSpaceOnUse"
       id="linearGradient3770-6"
       xlink:href="#linearGradient3757-9"
       inkscape:collect="always" />
    <linearGradient
       gradientTransform="matrix(0.96674391,0,0,0.96090293,16.079766,17.425498)"
       y2="847.97174"
       x2="841.94348"
       y1="35.872807"
       x1="20.530037"
       gradientUnits="userSpaceOnUse"
       id="linearGradient3767-3"
       xlink:href="#linearGradient3757-9"
       inkscape:collect="always" />
    <linearGradient
       gradientUnits="userSpaceOnUse"
       y2="847.97174"
       x2="841.94348"
       y1="35.872807"
       x1="20.530037"
       id="linearGradient3763-0"
       xlink:href="#linearGradient3757-9"
       inkscape:collect="always" />
    <linearGradient
       id="linearGradient3757-9"
       inkscape:collect="always">
      <stop
         id="stop3759-4"
         offset="0"
         style="stop-color:#e5e5e5;stop-opacity:1;" />
      <stop
         id="stop3761-6"
         offset="1"
         style="stop-color:#e5e5e5;stop-opacity:0;" />
    </linearGradient>
    <linearGradient
       id="linearGradient3771"
       inkscape:collect="always">
      <stop
         id="stop3773"
         offset="0"
         style="stop-color:#f3f3f3;stop-opacity:1;" />
      <stop
         id="stop3775"
         offset="1"
         style="stop-color:#f3f3f3;stop-opacity:0;" />
    </linearGradient>
    <linearGradient
       inkscape:collect="always"
       xlink:href="#linearGradient3757-9"
       id="linearGradient3910"
       gradientUnits="userSpaceOnUse"
       x1="22.052872"
       y1="423.61337"
       x2="805.3064"
       y2="423.61337"
       gradientTransform="translate(573.00634,1120.1969)" />
    <linearGradient
       inkscape:collect="always"
       xlink:href="#linearGradient3913"
       id="linearGradient3919"
       x1="1057.7219"
       y1="1820.9866"
       x2="1313.4349"
       y2="1532.3408"
       gradientUnits="userSpaceOnUse"
       gradientTransform="matrix(0.85586358,0,0,0.85586358,-371.84665,-839.30602)" />
  </defs>
  <sodipodi:namedview
     pagecolor="#ffffff"
     bordercolor="#666666"
     borderopacity="1"
     objecttolerance="10"
     gridtolerance="10"
     guidetolerance="10"
     inkscape:pageopacity="0"
     inkscape:pageshadow="2"
     inkscape:window-width="1024"
     inkscape:window-height="1263"
     id="namedview4"
     showgrid="false"
     fit-margin-top="0"
     fit-margin-left="0"
     fit-margin-right="0"
     fit-margin-bottom="0"
     inkscape:zoom="0.5162037"
     inkscape:cx="801.01876"
     inkscape:cy="89.011402"
     inkscape:window-x="-4"
     inkscape:window-y="-4"
     inkscape:window-maximized="1"
     inkscape:current-layer="svg2" />
  <path
     sodipodi:nodetypes="ssssssssssssssssss"
     inkscape:connector-curvature="0"
     id="path3003"
     d="M 135.93088,42.377426 C 72.788787,42.567287 31.009207,94.438346 31.009207,161.26746 l 0,528.97514 c 0,66.82912 40.421164,118.04896 101.405013,118.04896 l 570.87073,0 c 69.61909,0 111.9554,-51.21984 111.9554,-118.04896 l 0,-528.97514 c 0,-62.511515 -67.52599,-120.729601 -119.868,-120.572214 z m 0.42081,34.47863 560.59336,-2.15879 c 35.32102,-0.136018 85.125,28.432014 85.3557,85.236304 l 2.1588,531.64294 c 0.2307,56.80431 -47.8759,87.53269 -83.1969,87.39508 l -554.11696,-2.1588 C 111.82465,776.67519 66.33095,763.49245 66.107547,706.68811 L 63.948757,157.77477 C 63.725355,100.97045 101.03065,76.992074 136.35169,76.856056 z"
     style="fill:#000000;fill-opacity:1;fill-rule:evenodd;stroke:#cfcfcf;stroke-width:0;stroke-linecap:butt;stroke-linejoin:miter;stroke-miterlimit:4;stroke-opacity:1;stroke-dasharray:none;stroke-dashoffset:0;filter:url(#filter3849)"
     transform="matrix(1.0313224,0,0,1.0313224,-4.3005071,-4.603888)" />
  <path
     style="opacity:0.90999995000000000;fill:#000000;fill-opacity:1;fill-rule:evenodd;stroke:none"
     d="m 142.37286,41.724921 c -42.31805,0 -113.497291,54.257154 -113.497291,121.705419 l 0,533.87127 c 0,67.44833 60.380904,121.38987 102.697731,121.70544 l 588.38232,4.38773 c 42.31683,0.31557 107.46177,-58.64484 107.48312,-126.09317 l 0.16627,-525.10725 C 827.62637,104.74609 756.09321,41.724921 713.77518,41.724921 z"
     id="rect3010"
     inkscape:connector-curvature="0"
     sodipodi:nodetypes="sssssssss" />
  <path
     style="fill:#ffffff;fill-opacity:1;fill-rule:evenodd;stroke:#cfcfcf;stroke-width:0;stroke-linecap:butt;stroke-linejoin:miter;stroke-miterlimit:4;stroke-opacity:1;stroke-dasharray:none;stroke-dashoffset:0"
     d="M 133.88805,37.100901 C 68.768199,37.296709 25.679983,90.792494 25.679983,159.71486 l 0,545.54391 c 0,68.92237 41.687252,121.74653 104.581257,121.74653 l 588.75178,0 c 71.79972,0 115.46211,-52.82416 115.46211,-121.74653 l 0,-545.54391 c 0,-64.46953 -69.64107,-124.511146 -123.62256,-124.348829 z m 0.434,35.558583 578.15248,-2.226408 c 36.42736,-0.140279 87.79132,29.322573 88.02925,87.906114 l 2.22642,548.29527 c 0.23792,58.58356 -49.37549,90.27442 -85.80283,90.1325 L 145.45414,794.54054 C 109.02676,794.39863 62.108087,780.80298 61.877687,722.21939 L 59.651278,156.11277 C 59.420879,97.529199 97.894665,72.799763 134.32205,72.659484 z"
     id="path3831"
     inkscape:connector-curvature="0"
     sodipodi:nodetypes="ssssssssssssssssss" />
  <path
     sodipodi:nodetypes="ssssssssssssssssss"
     inkscape:connector-curvature="0"
     id="path3797"
     d="M 133.88805,37.100901 C 68.768199,37.296709 25.679983,90.792494 25.679983,159.71486 l 0,545.54391 c 0,68.92237 41.687252,121.74653 104.581257,121.74653 l 588.75178,0 c 71.79972,0 115.46211,-52.82416 115.46211,-121.74653 l 0,-545.54391 c 0,-64.46953 -69.64107,-124.511146 -123.62256,-124.348829 z m 0.434,35.558583 578.15248,-2.226408 c 36.42736,-0.140279 87.79132,29.322573 88.02925,87.906114 l 2.22642,548.29527 c 0.23792,58.58356 -49.37549,90.27442 -85.80283,90.1325 L 145.45414,794.54054 C 109.02676,794.39863 62.108087,780.80298 61.877687,722.21939 L 59.651278,156.11277 C 59.420879,97.529199 97.894665,72.799763 134.32205,72.659484 z"
     style="fill:url(#linearGradient3843);fill-opacity:1;fill-rule:evenodd;stroke:#cfcfcf;stroke-width:0;stroke-linecap:butt;stroke-linejoin:miter;stroke-miterlimit:4;stroke-opacity:1;stroke-dasharray:none;stroke-dashoffset:0" />
  <path
     style="opacity:0.90999995000000000;fill:url(#linearGradient3847);fill-opacity:1;fill-rule:evenodd;stroke:none"
     d="M 332.625 151.5625 C 218.76301 151.5625 126.46875 243.85675 126.46875 357.71875 C 126.46875 471.58075 218.76301 563.90625 332.625 563.90625 C 379.23412 563.90625 422.22021 548.42925 456.75 522.34375 L 507.96875 571.53125 L 502.34375 577.4375 L 682.96875 750.90625 L 688.625 745 L 698.90625 754.875 L 740.78125 711.25 L 730.5 701.40625 L 736.8125 694.84375 L 556.15625 521.375 L 549.875 527.9375 L 499.15625 479.25 C 524.05789 445.16987 538.78125 403.15731 538.78125 357.71875 C 538.78125 243.85675 446.48702 151.5625 332.625 151.5625 z M 332.625 192.8125 C 423.71462 192.8125 497.5625 266.62915 497.5625 357.71875 C 497.5625 448.80835 423.71462 522.65625 332.625 522.65625 C 241.53541 522.65625 167.6875 448.80835 167.6875 357.71875 C 167.6875 266.62915 241.53541 192.8125 332.625 192.8125 z "
     id="path2993" />
  <path
     sodipodi:type="arc"
     style="opacity:0.75887888000000003;fill:url(#radialGradient3838);fill-opacity:1;fill-rule:evenodd;stroke:none"
     id="path3001"
     sodipodi:cx="332.45514"
     sodipodi:cy="382.58771"
     sodipodi:rx="107.93998"
     sodipodi:ry="107.93998"
     d="m 440.39512,382.58771 a 107.93998,107.93998 0 1 1 -215.87996,0 107.93998,107.93998 0 1 1 215.87996,0 z"
     transform="matrix(1.37,0,0,1.41,-130.83986,-182.11542)" />
  <g
     id="g3992"
     transform="translate(-705.14799,-883.3722)">
    <path
       id="text3929"
       d="m 1291.0938,1123.7812 -2.8438,14.7813 -73.5312,0 c 6.3151,10.3581 11.7619,21.3333 16.1874,32.8437 20.0047,3.0025 37.2457,9.2921 51.6876,18.8438 21.0611,13.931 39.2737,38.0827 54.6562,72.4375 l 31.9375,-10.0625 -52.1563,-128.8438 -25.9374,0 z m -121.0313,280.0313 c -19.4709,15.8348 -41.9361,27.9412 -66.375,35.2813 l 0,65.2187 c -2e-4,15.7113 -1.7942,26.5095 -5.3437,32.375 -3.5499,5.8656 -9.4676,9.8427 -17.75,11.9375 -4.7332,1.0474 -17.6261,1.6655 -38.6876,1.875 l 0,26.4062 190.9688,0 0,-26.4062 c -20.1153,-0.2095 -33.0462,-0.8791 -38.8438,-2.0312 -5.7981,-1.1522 -10.3747,-3.0892 -13.6874,-5.8126 -3.3134,-2.7232 -5.8505,-6.5973 -7.625,-11.625 -1.7752,-5.0275 -2.6566,-14.7643 -2.6563,-29.2187 l 0,-98 z"
       style="font-size:683.98394775px;font-style:normal;font-variant:normal;font-weight:normal;font-stretch:normal;text-align:start;line-height:125%;letter-spacing:0px;word-spacing:0px;writing-mode:lr-tb;text-anchor:start;fill:#000000;fill-opacity:1;stroke:none;font-family:Arial;-inkscape-font-specification:Arial"
       inkscape:connector-curvature="0" />
    <path
       id="text3933"
       d="m 1279.4375,1130.375 -2.8437,14.75 -58.0313,0 c 6.334,11.3223 11.6256,23.3358 15.75,35.9062 13.7143,3.4821 25.9188,8.721 36.5937,15.7813 21.0612,13.931 39.2738,38.0827 54.6563,72.4375 l 31.9687,-10.0625 -52.1874,-128.8125 -25.9063,0 z m -121.0625,282.2188 c -19.8363,13.8223 -42.2603,23.9934 -66.375,29.5937 l 0,68.7187 c -2e-4,15.7113 -1.763,26.4783 -5.3125,32.3438 -3.5499,5.8656 -9.4675,9.8427 -17.75,11.9375 -4.7331,1.0474 -17.6261,1.6968 -38.6875,1.9063 l 0,26.375 190.9688,0 0,-26.375 c -20.1153,-0.2095 -33.0775,-0.9104 -38.875,-2.0626 -5.7982,-1.1521 -10.3435,-3.0891 -13.6563,-5.8124 -3.3133,-2.7233 -5.8817,-6.5974 -7.6563,-11.625 -1.7751,-5.0276 -2.6565,-14.7644 -2.6562,-29.2188 l 0,-95.7812 z"
       style="font-size:683.98394775px;font-style:normal;font-variant:normal;font-weight:normal;font-stretch:normal;text-align:start;line-height:125%;letter-spacing:0px;word-spacing:0px;writing-mode:lr-tb;text-anchor:start;fill:#f9f9f9;fill-opacity:1;stroke:none;font-family:Arial;-inkscape-font-specification:Arial"
       inkscape:connector-curvature="0" />
  </g>
  <g
     id="g4012"
     transform="translate(-145.29148,-730.33184)">
    <path
       id="text3964"
       d="m 373,978.5 c -24.415,27.1429 -39.34375,63.4384 -39.34375,103.3438 0,17.1886 2.77173,33.7139 7.875,49.125 8.41881,-12.5832 17.57307,-23.7679 27.40625,-33.5 20.03788,-19.8313 41.37076,-33.8678 64,-42.1563 22.62894,-8.2873 52.74844,-12.4369 90.40625,-12.4375 13.47357,6e-4 22.39995,0.8101 26.71875,2.4375 4.31826,1.6286 7.2263,3.9156 8.78125,6.875 1.55439,2.9605 2.34347,11.2597 2.34375,24.875 l 0,133.0313 c 41.03407,-27.0478 68.21875,-74.3768 68.21875,-128.25 0,-30.395 -8.64739,-58.7053 -23.5625,-82.4688 l -218.78125,0 -5.1875,-20.875 -8.875,0 z"
       style="font-size:982.37597656px;font-style:normal;font-variant:normal;font-weight:normal;font-stretch:normal;text-align:start;line-height:125%;letter-spacing:0px;word-spacing:0px;writing-mode:lr-tb;text-anchor:start;fill:#000000;fill-opacity:1;stroke:none;font-family:Arial;-inkscape-font-specification:Arial"
       inkscape:connector-curvature="0" />
    <path
       id="text3968"
       d="m 364.9375,988.1875 c -19.61089,25.8235 -31.28125,58.3406 -31.28125,93.6563 0,13.6284 1.76656,26.8371 5.03125,39.4062 4.25008,-5.1179 8.63414,-9.9622 13.1875,-14.4688 20.03788,-19.8312 41.37076,-33.899 64,-42.1874 22.62894,-8.2874 52.77969,-12.4057 90.4375,-12.4063 13.47357,6e-4 22.3687,0.8101 26.6875,2.4375 4.31826,1.6286 7.25755,3.9156 8.8125,6.875 1.55439,2.9605 2.34347,11.2597 2.34375,24.875 l 0,133.375 c 50.37015,-24.2648 85.25,-76.8858 85.25,-137.9062 0,-26.5328 -6.58967,-51.4689 -18.1875,-73.1876 l -241.1875,0 -5.09375,-20.4687 z"
       style="font-size:982.37597656px;font-style:normal;font-variant:normal;font-weight:normal;font-stretch:normal;text-align:start;line-height:125%;letter-spacing:0px;word-spacing:0px;writing-mode:lr-tb;text-anchor:start;fill:#f9f9f9;fill-opacity:1;stroke:none;font-family:Arial;-inkscape-font-specification:Arial"
       inkscape:connector-curvature="0" />
  </g>
</svg>
