<?xml version="1.0" encoding="UTF-8" standalone="no"?>
<!-- Creator: CorelDRAW -->

<svg
   xmlns:dc="http://purl.org/dc/elements/1.1/"
   xmlns:cc="http://creativecommons.org/ns#"
   xmlns:rdf="http://www.w3.org/1999/02/22-rdf-syntax-ns#"
   xmlns:svg="http://www.w3.org/2000/svg"
   xmlns="http://www.w3.org/2000/svg"
   xmlns:sodipodi="http://sodipodi.sourceforge.net/DTD/sodipodi-0.dtd"
   xmlns:inkscape="http://www.inkscape.org/namespaces/inkscape"
   version="1.0"
   sodipodi:modified="true"
   inkscape:output_extension="org.inkscape.output.svg.inkscape"
   sodipodi:docname="Old_Book_clip_art.svg"
   inkscape:version="0.48.0 r9654"
   sodipodi:version="0.32"
   id="svg2"
   viewBox="0 0 210 297"
   style="shape-rendering:geometricPrecision; text-rendering:geometricPrecision; image-rendering:optimizeQuality; fill-rule:evenodd; clip-rule:evenodd"
   height="522.59595"
   width="604.76184"
   xml:space="preserve"><sodipodi:namedview
   inkscape:window-height="975"
   inkscape:window-width="1280"
   inkscape:pageshadow="2"
   inkscape:pageopacity="0.0"
   borderopacity="1.0"
   bordercolor="#666666"
   pagecolor="#ffffff"
   id="base"
   inkscape:zoom="1.173927"
   inkscape:cx="230.34813"
   inkscape:cy="236.72283"
   inkscape:window-x="1280"
   inkscape:window-y="27"
   inkscape:current-layer="svg2"
   showgrid="false"
   inkscape:window-maximized="1" /><metadata
   id="metadata55"><rdf:RDF><cc:Work
       rdf:about=""><dc:format>image/svg+xml</dc:format><dc:type
         rdf:resource="http://purl.org/dc/dcmitype/StillImage" /><dc:title></dc:title><dc:creator><cc:Agent><dc:title>Lumen Design Studio</dc:title></cc:Agent></dc:creator><dc:subject><rdf:Bag><rdf:li>old</rdf:li><rdf:li>book</rdf:li><rdf:li>shelf</rdf:li><rdf:li>library</rdf:li><rdf:li>knowledge</rdf:li><rdf:li>page</rdf:li><rdf:li>paper</rdf:li><rdf:li>paragraph</rdf:li><rdf:li>writer</rdf:li><rdf:li>words</rdf:li><rdf:li>word</rdf:li><rdf:li>text</rdf:li><rdf:li>header</rdf:li><rdf:li>cover</rdf:li><rdf:li>binding</rdf:li><rdf:li>layout</rdf:li><rdf:li>bookmark</rdf:li><rdf:li>lumen</rdf:li><rdf:li>wood</rdf:li></rdf:Bag></dc:subject><cc:license
         rdf:resource="http://web.resource.org/cc/PublicDomain" /><dc:date>18 09 2005</dc:date></cc:Work><cc:License
       rdf:about="http://web.resource.org/cc/PublicDomain"><cc:permits
         rdf:resource="http://web.resource.org/cc/Reproduction" /><cc:permits
         rdf:resource="http://web.resource.org/cc/Distribution" /><cc:permits
         rdf:resource="http://web.resource.org/cc/DerivativeWorks" /></cc:License></rdf:RDF></metadata>
 <defs
   id="defs4"><inkscape:perspective
   sodipodi:type="inkscape:persp3d"
   inkscape:vp_x="0 : 261.29797 : 1"
   inkscape:vp_y="0 : 1000 : 0"
   inkscape:vp_z="604.76184 : 261.29797 : 1"
   inkscape:persp3d-origin="302.38092 : 174.19865 : 1"
   id="perspective4217" />
  <style
   type="text/css"
   id="style6">
   
    .fil4 {fill:none}
    .fil1 {fill:#EF7900}
    .fil3 {fill:white}
    .fil0 {fill:#EF7900;fill-rule:nonzero}
    .fil2 {fill:white;fill-rule:nonzero}
   
  </style>
   <clipPath
   id="id0">
    <path
   d="M 106.022,121.783 C 93.6548,122.1174 80.5772,124.8295 66.6992,129.482 C 80.1165,149.7217 95.9778,169.0525 112.497,187.569 C 127.8762,179.8852 143.6538,172.2014 160.412,164.518 C 160.233,164.1986 120.4448,135.6091 106.022,121.783 L 106.022,121.783 z "
   id="path9" />
   </clipPath>
 
  <metadata
   id="CorelCorpID_0Corel-Layer" />
  
  
  
  
  
  
  
  
  
  
  
  
  
  
  
  
  
  
  
 
   
  
    
    
   </defs>
 <path
   style="fill:#000000;fill-opacity:1;fill-rule:nonzero;stroke:none"
   d="M 98.250033,5.1348322 L 97.777948,5.1626022 C 78.230999,5.6908938 58.162554,8.0813177 37.493137,12.187939 C 16.83285,16.292695 -4.444276,22.117434 -26.346012,29.459765 L -27.706655,29.904053 L -27.651118,29.987363 C -65.222627,41.938853 -64.28861,46.289769 -50.393293,77.72096 C -49.086455,80.107165 -47.748113,82.536487 -46.39467,84.996229 C -45.834345,87.179952 -45.08749,89.279547 -44.145442,91.216298 C -43.59859,92.340319 -42.987467,93.429281 -42.312738,94.43744 C -41.634501,95.450624 -40.913105,96.390059 -40.119051,97.242022 L -40.091281,97.242022 C -39.877535,97.472199 -39.622901,97.661017 -39.34154,97.797384 C -37.490969,101.13576 -35.592483,104.52313 -33.676823,107.96053 C -32.993431,110.75798 -32.020771,113.4623 -30.761159,115.93002 C -30.2193,116.99162 -29.593428,118.018 -28.928455,119.0123 C -28.263219,120.00711 -27.54784,120.92768 -26.790303,121.78911 L -26.679231,121.92797 C -26.326479,122.32298 -25.865607,122.58648 -25.374123,122.73323 C -24.233771,124.78035 -23.088413,126.85443 -21.930863,128.92556 C -21.356182,133.10637 -20.142731,137.16044 -18.265457,140.78261 C -17.761381,141.75559 -17.224101,142.68704 -16.627135,143.58719 C -16.026395,144.49243 -15.380752,145.37312 -14.683356,146.1974 L -14.62782,146.25295 C -13.89736,147.10938 -12.752366,147.44075 -11.68439,147.19706 L -11.65662,147.19706 C -11.651563,147.19205 -11.633935,147.17429 -11.628852,147.16929 C -9.7880985,150.40891 -7.9184656,153.67102 -6.0474392,156.9437 C -5.2770793,160.81566 -3.9345648,164.55991 -1.9932775,167.96769 C -1.4958134,168.84102 -0.96991641,169.712 -0.38272201,170.55015 C 0.20856764,171.39421 0.84874909,172.20021 1.5055183,172.96598 C 2.0901964,173.64765 2.9114001,174.01543 3.7547459,174.04891 C 5.5697839,177.20666 7.3956446,180.37344 9.2250864,183.54564 C 9.828513,188.03771 11.216746,192.43241 13.529161,196.40233 C 13.990058,197.194 14.500639,197.95679 15.028644,198.70708 C 15.557512,199.4581 16.116422,200.18326 16.722506,200.90077 L 16.722506,200.92855 C 17.509144,201.86011 18.746344,202.20666 19.888085,201.95597 C 19.88971,201.9558 19.909624,201.95592 19.915851,201.95597 C 22.840917,206.98336 25.754493,212.00711 28.69061,217.00635 C 28.690442,217.00876 28.690657,217.03182 28.69061,217.03412 C 28.747722,217.42515 28.815449,217.83912 28.884991,218.22816 C 29.632768,222.39649 31.1017,226.4757 33.38344,230.22404 C 33.821397,230.94349 34.28577,231.64745 34.799621,232.36218 C 35.300241,233.05821 35.833053,233.76003 36.410177,234.4448 L 36.437948,234.4448 C 37.249293,235.40248 38.498596,235.81626 39.659059,235.5833 C 47.036583,248.00952 54.359755,260.22099 61.512655,271.95966 C 65.459946,278.52223 69.097182,282.26291 77.340543,277.67993 C 83.502521,274.58482 89.739134,271.50263 96.000794,268.43311 C 99.798731,275.6739 103.4678,284.26736 105.21983,290.17562 C 105.9361,287.90085 108.16632,283.14537 108.82972,279.92915 C 111.40045,283.12022 116.20255,285.95648 118.79852,287.39881 C 115.01191,281.23258 111.28415,271.56651 106.66378,263.21269 C 158.95197,237.82635 212.65603,213.28199 251.97493,189.12707 C 252.28734,188.95212 252.55806,188.73298 252.75244,188.51616 C 252.78887,188.47429 252.83178,188.41973 252.86349,188.37731 C 254.34308,186.33146 251.03325,183.04037 247.2821,183.37905 C 245.28194,177.03065 247.55474,168.33531 253.00235,158.05443 C 254.38826,155.43865 256.00969,152.69017 257.80625,149.86278 C 258.60522,148.6052 259.44249,147.33163 260.30537,146.05854 C 260.31017,146.05398 260.32839,146.03535 260.33315,146.03077 C 263.38746,144.62093 266.45096,143.21916 269.52445,141.81003 L 270.63515,141.3102 L 270.02429,140.255 L 269.96874,140.17168 C 269.96743,140.16998 269.94717,140.14996 269.94097,140.14393 C 269.46624,139.61962 264.61256,136.01021 256.66777,130.14735 C 223.31799,105.53697 135.07805,40.452811 98.583239,5.4680417 L 98.250033,5.1348322 z M 77.507154,8.5780919 C 77.535256,8.5755408 77.56235,8.5806101 77.590456,8.5780919 C 87.9361,10.925003 98.135911,13.808076 108.19104,17.269524 C 144.55361,49.492133 208.26429,97.127436 243.39455,123.12201 C 243.39497,123.13148 243.39412,123.14028 243.39455,123.14979 C 243.81436,132.56759 243.79845,142.01735 243.31125,151.50111 C 225.73144,159.71547 208.4941,167.91467 191.52352,176.10376 C 166.63255,188.11472 142.36604,200.07017 118.4653,212.00809 C 92.661587,183.06722 67.365253,153.50872 43.296699,123.28861 C 19.35282,93.225562 -3.3798948,62.510248 -24.263395,31.0981 C -2.954201,24.008566 17.756605,18.357843 37.909663,14.353874 C 51.360174,11.681531 64.565097,9.7504128 77.507154,8.5780919 z M -29.622661,54.423417 C -29.592247,54.420994 -29.569863,54.425653 -29.539357,54.423417 C -29.476374,54.418758 -29.408336,54.427385 -29.34498,54.423417 C -29.27958,54.419293 -29.2164,54.426819 -29.150603,54.423417 C -29.082704,54.419892 -29.024592,54.426189 -28.956225,54.423417 C -28.810417,54.417467 -28.659766,54.426094 -28.511933,54.423417 C -28.267281,54.418978 -28.012442,54.418821 -27.762191,54.423417 L -27.678886,54.451187 C -27.676494,54.451031 -27.653447,54.451187 -27.651118,54.451187 C -27.61912,54.456697 -27.567868,54.470237 -27.540044,54.478957 C -27.530325,54.483744 -27.493982,54.501753 -27.48451,54.506727 C -27.475855,54.511041 -27.443331,54.52713 -27.428974,54.534497 C -27.419046,54.538875 -27.382658,54.557546 -27.373435,54.562236 C -27.373694,54.565448 -27.373364,54.587488 -27.373435,54.590006 C -27.370156,54.589786 -27.348216,54.590101 -27.345665,54.590006 C -27.34587,54.596556 -27.345924,54.617021 -27.345665,54.617776 C -27.348957,54.620453 -27.370832,54.643154 -27.373435,54.645547 C -27.37331,54.648664 -27.37347,54.670829 -27.373435,54.673317 C -27.378093,54.683486 -27.396511,54.719914 -27.401204,54.728857 C -27.404738,54.732886 -27.425232,54.75269 -27.428974,54.756627 C -27.432972,54.760531 -27.452565,54.780587 -27.45674,54.784397 C -27.462366,54.790063 -27.480805,54.80845 -27.48451,54.812167 C -27.526726,54.844438 -27.576138,54.870886 -27.62335,54.895477 C -27.633303,54.900293 -27.664421,54.916131 -27.678886,54.923247 C -27.708297,54.932315 -27.763507,54.94387 -27.789959,54.951017 C -27.843719,54.964051 -27.925954,54.97526 -27.984336,54.978787 C -28.001211,54.979353 -28.022776,54.979038 -28.039872,54.978787 L -28.150946,54.978787 C -28.629254,54.973118 -29.091575,54.979794 -29.511591,55.006557 C -29.956477,55.034893 -30.374271,55.085269 -30.788929,55.145374 C -32.947243,55.458967 -34.826427,56.192198 -36.425876,57.255769 C -36.721525,57.452237 -37.036193,57.680064 -37.342229,57.922217 C -37.631266,58.151429 -37.902295,58.389773 -38.175276,58.644174 C -39.562204,59.937903 -40.717421,61.530301 -41.618532,63.309249 C -41.787249,63.643309 -41.947717,64.02639 -42.118361,64.419987 C -42.302192,64.84403 -42.469519,65.20419 -42.590423,65.530691 C -43.312966,67.482111 -43.780599,69.607681 -44.034368,71.806324 L -44.034368,71.834077 C -44.169165,73.006858 -44.251478,74.210986 -44.256515,75.443949 C -44.261597,76.664234 -44.183357,77.875088 -44.062138,79.081593 C -43.431218,85.353805 -41.127511,91.469358 -37.397765,95.464868 C -37.3919,95.470646 -37.373808,95.488794 -37.369995,95.49262 C -37.369926,95.495751 -37.369995,95.517841 -37.369995,95.520392 C -37.373186,95.523098 -37.395178,95.54571 -37.397765,95.548145 C -37.397533,95.551218 -37.39781,95.573424 -37.397765,95.575917 C -37.403985,95.582024 -37.423978,95.601969 -37.425533,95.603669 C -37.434953,95.613178 -37.471546,95.649686 -37.48107,95.659213 C -37.496904,95.671969 -37.53769,95.697054 -37.564374,95.714757 C -37.586961,95.729368 -37.623147,95.755091 -37.64768,95.770301 C -37.66547,95.780873 -37.689638,95.79214 -37.703216,95.798073 C -37.705924,95.797783 -37.728468,95.798131 -37.730984,95.798073 C -37.740849,95.803001 -37.776906,95.820801 -37.786521,95.825845 C -37.791399,95.830947 -37.80949,95.848573 -37.814287,95.853617 C -37.816778,95.853617 -37.839195,95.853791 -37.842057,95.853617 C -37.844492,95.853578 -37.867088,95.853772 -37.869825,95.853617 C -37.879625,95.854332 -37.914024,95.854332 -37.925361,95.853617 C -37.928906,95.853482 -37.949879,95.853521 -37.953131,95.853617 C -37.955883,95.853385 -37.978304,95.853578 -37.980897,95.853617 C -37.992742,95.85899 -38.025406,95.875611 -38.036435,95.88137 C -38.038923,95.88137 -38.061295,95.881466 -38.064202,95.88137 C -38.069497,95.881447 -38.088539,95.88166 -38.091972,95.88137 C -38.094733,95.881466 -38.117285,95.88137 -38.119738,95.88137 C -38.122173,95.881408 -38.144628,95.881254 -38.147508,95.88137 C -38.157291,95.876461 -38.193412,95.858642 -38.203042,95.853617 C -38.205578,95.853617 -38.22772,95.853482 -38.230812,95.853617 C -38.258978,95.847413 -38.312696,95.835354 -38.341886,95.825845 C -38.344329,95.823313 -38.366864,95.801223 -38.369653,95.798073 C -38.37088,95.798093 -38.391138,95.798131 -38.397423,95.798073 C -38.399891,95.79558 -38.422301,95.773355 -38.425189,95.770301 C -38.427668,95.767808 -38.450025,95.745544 -38.452957,95.742529 C -38.459213,95.742471 -38.479235,95.742278 -38.480727,95.742529 L -38.480727,95.714757 C -39.199847,94.943365 -39.87143,94.097142 -40.480036,93.187837 C -41.092065,92.273198 -41.641105,91.2828 -42.146131,90.244415 C -44.760938,84.869003 -45.854143,78.143724 -45.1451,72.000689 C -45.091303,71.536876 -45.041773,71.093259 -44.978489,70.6956 C -44.910209,70.26671 -44.814534,69.837626 -44.728574,69.418244 C -44.287197,67.27532 -43.60632,65.234132 -42.673727,63.392559 C -42.481621,63.013162 -42.290213,62.649287 -42.090593,62.309594 C -41.881803,61.954439 -41.675152,61.610525 -41.451925,61.282166 C -40.298579,59.585425 -38.854359,58.140284 -37.147852,57.00587 L -37.092314,56.95033 C -36.758883,56.730877 -36.401353,56.523233 -36.009355,56.311652 C -35.642548,56.113609 -35.249249,55.903885 -34.843091,55.728514 C -33.286282,55.056774 -31.539052,54.575554 -29.622661,54.423417 z M -15.155416,73.166976 C -15.118959,73.163942 -15.080909,73.16974 -15.044346,73.166976 C -15.021197,73.1663 -14.984187,73.166725 -14.961037,73.166976 C -14.956401,73.166841 -14.937929,73.167286 -14.933271,73.166976 C -14.927502,73.167034 -14.907832,73.167034 -14.905501,73.166976 C -14.887064,73.167073 -14.868439,73.166783 -14.849967,73.166976 C -14.8442,73.166996 -14.824572,73.167131 -14.822197,73.166976 C -14.743834,73.161932 -14.678925,73.170996 -14.600054,73.166976 C -14.518638,73.162783 -14.432083,73.170088 -14.350139,73.166976 C -14.221178,73.161971 -14.091731,73.169392 -13.961384,73.166976 L -13.878078,73.166976 C -13.875405,73.16688 -13.85271,73.166976 -13.850312,73.166976 C -13.819185,73.172832 -13.765477,73.187346 -13.739237,73.194748 C -13.715655,73.202015 -13.677472,73.213321 -13.655933,73.222501 C -13.640242,73.229632 -13.614515,73.242407 -13.600397,73.250273 C -13.578502,73.263627 -13.537039,73.290201 -13.517092,73.305817 C -13.511733,73.311325 -13.492449,73.330748 -13.489322,73.33355 C -13.483583,73.339348 -13.463902,73.359061 -13.461556,73.361322 C -13.4557,73.367062 -13.435912,73.386698 -13.433786,73.389094 C -13.4308,73.391935 -13.408488,73.414412 -13.40602,73.416866 C -13.402972,73.419668 -13.38073,73.442184 -13.37825,73.444638 C -13.368539,73.466709 -13.356889,73.508608 -13.350482,73.527954 C -13.35065,73.530679 -13.35042,73.553291 -13.350482,73.555726 C -13.350571,73.558451 -13.350438,73.581063 -13.350482,73.583479 L -13.322712,73.639022 C -13.330373,73.646366 -13.348518,73.664437 -13.350482,73.666794 C -13.350606,73.67466 -13.350633,73.707573 -13.350482,73.722338 C -13.350438,73.728445 -13.350331,73.748603 -13.350482,73.75011 C -13.355565,73.755019 -13.373105,73.772877 -13.37825,73.777882 C -13.378126,73.780897 -13.378293,73.803122 -13.37825,73.805654 C -13.383377,73.810582 -13.400856,73.828421 -13.40602,73.833388 C -13.405831,73.836402 -13.406045,73.858666 -13.40602,73.86116 C -13.41095,73.86601 -13.428802,73.8841 -13.433786,73.888931 C -13.463404,73.927468 -13.505868,73.968015 -13.544861,74 C -13.54917,74.004484 -13.567838,74.022515 -13.572627,74.027772 C -13.575143,74.030304 -13.597871,74.053225 -13.600397,74.055544 C -13.610331,74.06053 -13.646239,74.078755 -13.655933,74.083316 C -13.65866,74.083026 -13.681125,74.083355 -13.683701,74.083316 C -13.695564,74.088457 -13.728227,74.105193 -13.739237,74.111088 C -13.741655,74.110991 -13.764224,74.111339 -13.767003,74.111088 C -13.828523,74.130453 -13.917824,74.156833 -13.989152,74.166632 C -13.991576,74.166593 -14.014172,74.16669 -14.016918,74.166632 C -14.022589,74.166902 -14.039153,74.166535 -14.044688,74.166632 L -14.127993,74.166632 L -14.155763,74.166632 C -14.65543,74.178846 -15.11887,74.229211 -15.571939,74.2777 C -16.051776,74.328973 -16.497774,74.387049 -16.932582,74.472065 C -19.218101,74.919432 -21.241084,75.827345 -22.958287,77.110054 L -22.958287,77.137826 C -23.324776,77.411777 -23.688676,77.709094 -24.069018,78.054166 C -24.442701,78.392995 -24.803058,78.73368 -25.124208,79.081593 C -26.818383,80.915644 -28.153159,83.192752 -29.150603,85.718184 L -29.20614,85.884816 C -29.401351,86.388924 -29.59526,86.893786 -29.761502,87.412061 C -29.927117,87.928113 -30.065051,88.455239 -30.205793,88.99485 C -30.910123,91.69221 -31.287245,94.583374 -31.316525,97.519684 L -31.316525,97.714068 C -31.322195,98.885284 -31.269305,100.03802 -31.177684,101.15733 C -31.083857,102.29895 -30.956052,103.43492 -30.761159,104.57282 C -29.767802,110.37546 -27.454252,115.86592 -23.902408,119.84535 L -23.87464,119.90089 C -23.867156,119.91481 -23.852683,119.94439 -23.84687,119.95642 C -23.841744,119.96602 -23.823918,120.0022 -23.819103,120.01196 C -23.819235,120.01465 -23.81904,120.03732 -23.819103,120.03973 C -23.819014,120.04934 -23.818889,120.08553 -23.819103,120.09528 C -23.818879,120.10362 -23.818933,120.13623 -23.819103,120.15082 C -23.818748,120.16025 -23.819069,120.19676 -23.819103,120.20634 C -23.823819,120.21583 -23.84176,120.25228 -23.84687,120.26187 C -23.846709,120.26484 -23.846908,120.28711 -23.84687,120.28962 C -23.851972,120.29455 -23.869495,120.31246 -23.87464,120.31739 C -23.874452,120.32039 -23.874674,120.34271 -23.87464,120.34516 C -23.88077,120.35116 -23.900701,120.37114 -23.902408,120.37294 C -23.917513,120.38749 -23.944392,120.41547 -23.957944,120.42848 C -23.963889,120.43412 -23.979394,120.45061 -23.98571,120.45625 L -24.041248,120.5118 C -24.050536,120.5164 -24.087421,120.53528 -24.096784,120.53957 C -24.111306,120.5468 -24.143782,120.56291 -24.152321,120.56732 C -24.157148,120.57227 -24.17524,120.59007 -24.180091,120.59509 C -24.181262,120.59494 -24.201549,120.59504 -24.207859,120.59509 C -24.217358,120.59998 -24.253726,120.618 -24.263395,120.62287 C -24.266141,120.62259 -24.288587,120.62285 -24.291161,120.62287 C -24.302714,120.62806 -24.335449,120.64482 -24.346699,120.65064 C -24.411023,120.65955 -24.508501,120.65298 -24.568846,120.65064 C -24.648747,120.64503 -24.748098,120.62327 -24.818761,120.59509 C -24.829742,120.58914 -24.862415,120.57246 -24.874295,120.56732 C -24.876863,120.56732 -24.899328,120.56705 -24.902065,120.56732 C -24.924155,120.55341 -24.960541,120.53132 -24.985367,120.5118 C -24.987785,120.50927 -25.010393,120.48685 -25.013137,120.48402 C -25.015634,120.48144 -25.035137,120.46197 -25.040906,120.45625 L -25.151978,120.34516 L -25.124208,120.31739 C -25.833842,119.51065 -26.497853,118.65689 -27.095753,117.76272 C -27.69433,116.86785 -28.246123,115.91296 -28.761848,114.90259 C -31.383311,109.76697 -32.709529,103.59587 -32.649399,97.603 L -32.649399,97.408635 C -32.641216,96.84158 -32.603557,96.250754 -32.566095,95.631441 C -32.530513,95.040152 -32.489595,94.465174 -32.427251,93.882059 C -32.110828,90.937554 -31.446177,88.102166 -30.42794,85.523838 L -30.42794,85.496066 C -30.214467,84.955489 -29.986619,84.446742 -29.761502,83.968801 C -29.522529,83.462239 -29.270572,82.989574 -29.011763,82.524853 C -27.66833,80.115958 -25.946248,78.032346 -23.819103,76.443604 L -23.763567,76.38806 C -23.407786,76.124913 -23.014793,75.867177 -22.597303,75.610581 C -22.172249,75.349211 -21.767179,75.112193 -21.375497,74.916359 C -19.539098,73.997546 -17.45236,73.356896 -15.155416,73.166976 z M 0.31148431,93.937603 C 0.35313259,93.933544 0.40854317,93.941391 0.45032674,93.937603 C 0.45562989,93.9371 0.47247667,93.937758 0.47809484,93.937603 C 0.50145653,93.937796 0.53800072,93.937313 0.5613972,93.937603 C 0.56703469,93.937448 0.58384475,93.938047 0.58916723,93.937603 C 0.59472742,93.937661 0.61410982,93.937661 0.61693533,93.937603 C 0.6402429,93.937796 0.67689919,93.937352 0.70023769,93.937603 C 0.70579208,93.937661 0.72529817,93.937796 0.72800772,93.937603 C 0.73355245,93.937661 0.75293291,93.937661 0.75577582,93.937603 C 0.77903122,93.937758 0.81579186,93.937352 0.83908205,93.937603 C 0.84461711,93.937661 0.86408455,93.937796 0.86684821,93.937603 C 0.87237748,93.937661 0.89175794,93.937661 0.89461824,93.937603 C 0.91781759,93.937758 0.95468647,93.93739 0.97792254,93.937603 C 0.98343828,93.937661 1.0028748,93.937758 1.0056887,93.937603 C 1.0111986,93.937661 1.0305791,93.937661 1.0334587,93.937603 C 1.0566078,93.937738 1.0935811,93.93739 1.116763,93.937603 C 1.1222633,93.937642 1.1416612,93.937758 1.1445311,93.937603 L 1.2000673,93.937603 C 1.386325,93.939651 1.5750855,94.006559 1.699895,94.104196 C 1.7208583,94.122266 1.7650731,94.166949 1.7832032,94.187512 C 1.7948048,94.198683 1.8276654,94.230958 1.8387355,94.243037 C 1.8437043,94.252622 1.8622402,94.289111 1.8665056,94.29858 C 1.8710376,94.306949 1.8871828,94.339475 1.8942737,94.354124 C 1.8942485,94.356695 1.894521,94.379113 1.8942737,94.381896 C 1.8993932,94.391424 1.9172546,94.427835 1.9220437,94.43744 C 1.9221307,94.446949 1.9223548,94.483398 1.9220437,94.492965 L 1.9220437,94.576242 C 1.92215,94.57918 1.922034,94.60156 1.9220437,94.604014 C 1.9222814,94.60672 1.9220437,94.629312 1.9220437,94.631786 C 1.9168352,94.641681 1.898939,94.678073 1.8942737,94.68733 C 1.8944862,94.690036 1.8942292,94.712705 1.8942737,94.715102 C 1.8893764,94.7249 1.8715188,94.761041 1.8665056,94.770646 C 1.859494,94.785179 1.8443189,94.815386 1.8387355,94.82619 C 1.824608,94.850425 1.7989097,94.887358 1.7832032,94.909486 C 1.7407877,94.965436 1.6728111,95.031494 1.6165927,95.076079 C 1.6118036,95.081027 1.5936388,95.098962 1.5888226,95.103851 C 1.4596608,95.189641 1.2890516,95.26111 1.116763,95.270464 L 1.0889969,95.270464 C 0.56886297,95.301019 0.051334259,95.338763 -0.43825628,95.409324 C -0.93320794,95.480483 -1.4317002,95.576168 -1.9099752,95.686985 C -4.3636175,96.256243 -6.5401684,97.333958 -8.4632754,98.797039 C -8.9427544,99.162211 -9.4067993,99.553337 -9.8516861,99.963307 C -10.298821,100.37507 -10.746224,100.81691 -11.156791,101.26842 C -13.257802,103.57842 -14.933447,106.41093 -16.155073,109.57111 L -16.155073,109.59888 L -16.155073,109.65441 C -16.412939,110.32621 -16.660367,110.94572 -16.849278,111.54265 C -17.049522,112.17541 -17.232728,112.83663 -17.404644,113.51419 C -18.261984,116.8934 -18.639168,120.49738 -18.543141,124.0939 L -18.543141,124.17717 C -18.51386,125.21291 -18.456132,126.22979 -18.348763,127.23168 C -18.240143,128.24661 -18.094007,129.26317 -17.904471,130.25842 C -16.926541,135.39597 -14.857723,140.21126 -11.65662,143.97592 L -11.628852,144.00369 C -11.612662,144.0257 -11.585756,144.06362 -11.573316,144.08701 C -11.54354,144.15047 -11.521548,144.24123 -11.51778,144.30916 C -11.517627,144.33152 -11.51616,144.36892 -11.51778,144.39248 C -11.537655,144.54552 -11.626328,144.71268 -11.767693,144.83677 L -11.823231,144.86454 C -11.828037,144.86947 -11.846272,144.88746 -11.850997,144.8923 C -11.87236,144.90694 -11.914673,144.93642 -11.934303,144.94782 C -11.947028,144.95474 -11.978031,144.97024 -11.989837,144.97559 C -12.014496,144.98342 -12.07412,144.99672 -12.100912,145.00334 C -12.11025,145.00843 -12.146959,145.02625 -12.156448,145.03112 C -12.321733,145.06818 -12.507401,145.05479 -12.656276,145.00334 C -12.722405,144.97801 -12.794585,144.93677 -12.850654,144.8923 C -12.856555,144.88638 -12.875622,144.8674 -12.87842,144.86454 C -12.889981,144.85351 -12.920017,144.82338 -12.933957,144.809 L -12.989495,144.75345 C -13.631166,143.99501 -14.214406,143.19751 -14.766661,142.36539 C -15.322061,141.52825 -15.829515,140.65186 -16.293914,139.75518 C -18.701274,135.11024 -19.95239,129.70395 -20.098161,124.26049 L -20.098161,124.17717 C -20.116109,123.45447 -20.118625,122.73576 -20.098161,122.01127 C -20.078958,121.32665 -20.048811,120.60445 -19.987086,119.84535 C -19.687661,116.16462 -18.894388,112.57385 -17.626788,109.29343 C -17.379316,108.65359 -17.09002,107.99066 -16.793742,107.34966 C -16.496839,106.70762 -16.196337,106.09909 -15.877391,105.51695 C -14.208046,102.46881 -12.043715,99.838691 -9.4351608,97.852928 L -9.4351608,97.825156 L -9.4073946,97.825156 C -9.0118963,97.525095 -8.5887865,97.230987 -8.1300563,96.936569 C -7.6788227,96.646906 -7.2414443,96.368355 -6.7971817,96.131279 C -4.6555517,94.989439 -2.3124754,94.192885 0.31148431,93.937603 z M 17.722163,117.23515 C 17.727654,117.23519 17.747009,117.23525 17.749929,117.23515 C 17.755723,117.23511 17.771994,117.2349 17.777699,117.23515 C 17.789117,117.23565 17.821702,117.23496 17.833234,117.23515 C 17.838728,117.23519 17.85802,117.23544 17.861004,117.23515 L 17.88877,117.23515 C 17.894289,117.23519 17.9136,117.23528 17.91654,117.23515 C 17.952757,117.2343 17.998068,117.2344 18.02761,117.23515 C 18.037314,117.23494 18.07381,117.23511 18.083148,117.23515 C 18.114844,117.2407 18.165689,117.25411 18.194221,117.26288 C 18.21833,117.27088 18.254975,117.28254 18.277525,117.29065 C 18.336173,117.3117 18.413478,117.34315 18.471904,117.37397 C 18.481439,117.37842 18.517926,117.39689 18.52744,117.40174 C 18.532374,117.40661 18.550491,117.42463 18.55521,117.42951 C 18.578197,117.45068 18.62109,117.49468 18.638514,117.51281 C 18.662949,117.54201 18.703229,117.59622 18.721817,117.6239 C 18.738416,117.65318 18.762213,117.70337 18.777355,117.73499 C 18.782445,117.7445 18.800467,117.781 18.805125,117.79049 C 18.81377,117.81896 18.827435,117.87226 18.832891,117.90156 C 18.832901,117.91101 18.833115,117.9476 18.832891,117.9571 L 18.860661,117.98488 C 18.860953,117.98973 18.86057,118.00544 18.860661,118.01265 C 18.860632,118.02852 18.860901,118.05845 18.860661,118.06819 C 18.860802,118.07101 18.860661,118.09347 18.860661,118.09596 C 18.854966,118.10692 18.838285,118.1396 18.832891,118.15149 C 18.832881,118.15404 18.832676,118.1765 18.832891,118.17926 C 18.833183,118.18885 18.832792,118.22518 18.832891,118.2348 C 18.828028,118.24441 18.810171,118.28069 18.805125,118.29031 C 18.800307,118.29997 18.782347,118.33623 18.777355,118.34585 C 18.77733,118.35212 18.77732,118.37243 18.777355,118.37363 C 18.772067,118.38404 18.756944,118.41477 18.749587,118.42917 C 18.735938,118.45085 18.70921,118.49223 18.694051,118.51249 C 18.689188,118.5173 18.67117,118.53546 18.666284,118.54024 C 18.661936,118.54532 18.643039,118.56295 18.638514,118.56801 C 18.633901,118.57286 18.615535,118.59093 18.610746,118.59578 C 18.605876,118.60044 18.588015,118.6189 18.582976,118.62355 C 18.57746,118.6291 18.558878,118.64764 18.55521,118.65133 C 18.533617,118.66843 18.495391,118.6916 18.471904,118.70687 C 18.462343,118.71162 18.426069,118.72991 18.41637,118.7346 C 18.378612,118.75428 18.3229,118.77374 18.277525,118.79015 C 18.208387,118.81347 18.124538,118.83854 18.05538,118.84569 L 18.02761,118.84569 C 17.488005,118.89851 16.968101,118.97182 16.444825,119.06785 C 15.928193,119.16284 15.401768,119.28906 14.889804,119.42883 C 12.293168,120.13868 9.957012,121.38919 7.8922119,123.0387 C 7.3295252,123.48815 6.7788171,123.9451 6.2816525,124.4271 C 5.7762724,124.91594 5.3071465,125.4387 4.8377075,125.98214 C 2.4438802,128.75361 0.55538477,132.15809 -0.74370729,135.8954 L -0.74370729,135.92317 C -1.0025161,136.66942 -1.2323199,137.4303 -1.4379117,138.17237 C -1.6516978,138.94355 -1.8320706,139.7155 -1.9932775,140.47713 C -2.8358232,144.46008 -3.089497,148.65044 -2.6597138,152.77847 L -2.6597138,152.80622 C -2.5617949,153.74328 -2.4261935,154.65919 -2.2709585,155.52753 C -2.1163632,156.39368 -1.923034,157.28211 -1.6878265,158.19329 C -0.51594627,162.73251 1.5503999,166.9872 4.5877927,170.52238 L 4.6155589,170.55015 C 4.6321042,170.57193 4.6560611,170.60886 4.671097,170.63343 C 4.69006,170.66667 4.7136575,170.71241 4.7266332,170.7445 C 4.7316175,170.75414 4.7495233,170.79034 4.7543994,170.80004 C 4.7542428,170.80968 4.7546777,170.84592 4.7543994,170.85558 C 4.7672244,170.91414 4.7794405,170.987 4.7821694,171.04997 C 4.7822042,171.05511 4.782268,171.07264 4.7821694,171.07772 C 4.782239,171.0834 4.7823994,171.10306 4.7821694,171.10547 C 4.7822235,171.10822 4.7821598,171.13083 4.7821694,171.13325 C 4.782268,171.13599 4.7821501,171.1586 4.7821694,171.16102 C 4.7771852,171.17072 4.7595093,171.20686 4.7543994,171.21656 C 4.7546777,171.22626 4.7542486,171.2624 4.7543994,171.2721 C 4.7493185,171.27696 4.7317141,171.29503 4.7266332,171.29988 C 4.7134101,171.32956 4.6887536,171.37975 4.671097,171.41095 C 4.6681903,171.41357 4.6458317,171.4363 4.6433289,171.43872 C 4.6240644,171.46403 4.5840434,171.52062 4.5600227,171.54981 C 4.5539117,171.55616 4.5380293,171.57174 4.5322565,171.57754 C 4.5262673,171.58318 4.5106284,171.59986 4.5044865,171.60531 L 4.4767184,171.63308 L 4.4489522,171.66085 C 4.43031,171.67411 4.3858614,171.7042 4.365646,171.7164 C 4.3628997,171.71611 4.3404444,171.71642 4.3378779,171.7164 C 4.3260057,171.72148 4.2933577,171.73824 4.2823417,171.74415 C 4.2530449,171.75809 4.2034264,171.78592 4.1712674,171.79969 C 4.1688535,171.79964 4.1462378,171.79993 4.1435012,171.79969 C 4.1411453,171.7996 4.1182224,171.79995 4.1157312,171.79969 C 3.8146982,171.86956 3.4802171,171.78622 3.2549182,171.57754 C 3.2436142,171.56623 3.2134458,171.53641 3.1993801,171.52203 L 3.17161,171.52203 C 2.5437917,170.79024 1.9839672,170.03508 1.4499821,169.27279 C 0.9119018,168.50515 0.39406967,167.7125 -0.077270998,166.88473 C -2.4887239,162.65153 -3.8977965,157.85048 -4.4091137,152.94506 L -4.4091137,152.91729 C -4.4960165,152.07828 -4.5694934,151.24842 -4.6034904,150.41816 C -4.6384401,149.57221 -4.6476453,148.7215 -4.6312604,147.89124 C -4.5465685,143.59136 -3.7989944,139.33916 -2.437569,135.42333 L -2.437569,135.39556 C -2.1721487,134.63215 -1.8672968,133.89661 -1.548986,133.14632 C -1.2404331,132.41942 -0.88962123,131.67618 -0.52156251,130.95264 C 1.325677,127.32536 3.735408,124.15932 6.6981759,121.78911 L 6.725944,121.78911 C 7.16764,121.43635 7.622188,121.1062 8.0865886,120.78946 C 8.5424469,120.47827 9.0377793,120.18365 9.5305374,119.90089 C 11.98888,118.48999 14.716023,117.54659 17.722163,117.23515 z M 36.604554,143.67048 C 36.606145,143.67072 36.626093,143.67054 36.632324,143.67048 C 36.637734,143.67064 36.65699,143.67068 36.66009,143.67048 C 36.67278,143.67027 36.702564,143.66996 36.715629,143.67048 C 36.788081,143.67524 36.875593,143.68859 36.937771,143.69826 C 36.940438,143.69816 36.963099,143.69829 36.965541,143.69826 C 36.991265,143.70355 37.051308,143.71988 37.076616,143.72603 C 37.079074,143.72597 37.101672,143.72624 37.104382,143.72603 C 37.13503,143.73948 37.190373,143.76986 37.215456,143.78157 C 37.257814,143.80264 37.316158,143.83839 37.354297,143.86487 C 37.383779,143.88647 37.429826,143.9185 37.465371,143.94816 C 37.470983,143.95394 37.490605,143.97366 37.493137,143.97592 C 37.499277,143.98206 37.515573,143.99774 37.520907,144.00369 C 37.525623,144.01343 37.544099,144.04947 37.548673,144.05923 C 37.551634,144.06204 37.573981,144.08459 37.576441,144.08701 C 37.642721,144.18741 37.698551,144.32538 37.715284,144.44798 C 37.715158,144.45359 37.715096,144.47291 37.715284,144.47575 C 37.716225,144.51133 37.716013,144.55617 37.715284,144.58684 C 37.715479,144.59635 37.715309,144.63303 37.715284,144.64237 C 37.715398,144.64546 37.715274,144.66763 37.715284,144.67014 C 37.710218,144.68003 37.692367,144.71606 37.687514,144.72568 C 37.680452,144.75282 37.667326,144.81062 37.659748,144.83677 C 37.541051,145.16864 37.226252,145.42282 36.826701,145.47541 C 36.24045,145.55324 35.67501,145.66404 35.13284,145.78088 C 34.570517,145.90214 34.004206,146.03647 33.466747,146.1974 C 30.688802,147.02991 28.128904,148.40921 25.830483,150.19603 C 25.211212,150.67779 24.598826,151.19156 23.997782,151.75106 C 23.404962,152.30271 22.849245,152.87255 22.303921,153.47267 C 19.49517,156.56327 17.216951,160.35251 15.639546,164.4689 C 15.338635,165.25502 15.067504,166.09264 14.806499,166.94026 C 14.546384,167.78405 14.30908,168.6066 14.112293,169.43941 C 13.083314,173.78618 12.792356,178.3615 13.36255,182.79592 C 13.463886,183.58202 13.593564,184.3754 13.751306,185.1562 C 13.913098,185.95711 14.098235,186.74508 14.306672,187.48874 C 15.411712,191.42835 17.293686,195.14131 20.026925,198.37387 L 20.054691,198.40165 C 20.054809,198.408 20.054765,198.42818 20.054691,198.42942 C 20.057714,198.43228 20.079989,198.45475 20.082461,198.45719 C 20.087349,198.46695 20.105537,198.50303 20.110229,198.51271 C 20.116592,198.52481 20.132319,198.5561 20.137999,198.56826 C 20.143009,198.578 20.160957,198.61414 20.165766,198.6238 C 20.170831,198.6335 20.188665,198.66968 20.193536,198.67935 C 20.193454,198.68905 20.19381,198.72525 20.193536,198.73485 C 20.19342,198.73796 20.193551,198.76013 20.193536,198.76262 C 20.198599,198.77234 20.216416,198.80841 20.221302,198.81817 C 20.221205,198.82112 20.221346,198.8435 20.221302,198.84592 C 20.221205,198.85166 20.22118,198.87128 20.221302,198.87369 C 20.221692,198.88683 20.22157,198.91627 20.221302,198.92924 C 20.221472,198.93898 20.221331,198.97517 20.221302,198.98478 C 20.221454,198.98789 20.221292,199.01004 20.221302,199.01255 C 20.216132,199.02272 20.19828,199.05868 20.193536,199.0681 C 20.193837,199.07782 20.19342,199.11403 20.193536,199.12362 C 20.188692,199.13336 20.170804,199.16954 20.165766,199.17916 C 20.160976,199.1889 20.142974,199.22508 20.137999,199.23467 C 20.132561,199.24708 20.116317,199.2781 20.110229,199.29021 C 20.105485,199.29935 20.089757,199.3313 20.082461,199.34576 C 20.067926,199.36932 20.04389,199.4066 20.026925,199.42907 C 20.022055,199.434 20.004108,199.45199 19.999159,199.45684 C 19.985793,199.47493 19.957232,199.5206 19.943621,199.54014 C 19.936234,199.54768 19.918738,199.56474 19.915851,199.56791 L 19.832548,199.62346 C 19.810858,199.63971 19.773846,199.66435 19.749244,199.679 C 19.71592,199.69773 19.670124,199.71974 19.63817,199.73451 C 19.635742,199.73447 19.613297,199.7348 19.6104,199.73451 C 19.605504,199.73967 19.587548,199.75727 19.582634,199.76228 C 19.580243,199.7623 19.557627,199.76253 19.554867,199.76228 C 19.545305,199.76713 19.509253,199.78491 19.499329,199.79005 C 19.496832,199.79007 19.474607,199.79017 19.471559,199.79005 C 19.469145,199.79007 19.446572,199.7902 19.443793,199.79005 C 19.072623,199.8742 18.65974,199.77304 18.41637,199.48462 C 17.856916,198.82259 17.328201,198.13222 16.83358,197.42976 C 16.338364,196.7265 15.86928,196.01985 15.445168,195.29159 C 13.245879,191.51634 11.940746,187.34932 11.391008,183.07358 L 11.391008,183.04582 C 11.277305,182.1572 11.189252,181.26697 11.141093,180.35231 C 11.092248,179.43191 11.068878,178.5028 11.085557,177.60324 C 11.172415,172.93081 12.120117,168.26925 13.779076,163.94129 L 13.779076,163.91352 C 14.107106,163.05808 14.459267,162.22233 14.834265,161.41439 C 15.211098,160.60143 15.62284,159.81156 16.056068,159.02631 C 18.266695,155.01951 21.146815,151.50471 24.580914,148.83539 C 25.056074,148.46672 25.577008,148.08265 26.108168,147.72465 C 26.631807,147.37173 27.142413,147.05345 27.663187,146.75277 C 30.389495,145.18043 33.389271,144.1227 36.604554,143.69826 C 36.604475,143.69584 36.604846,143.67358 36.604554,143.67048 z M 256.47337,147.80797 C 256.28184,148.10482 256.10452,148.403 255.918,148.69653 C 254.10473,151.54974 252.48611,154.33252 251.05857,157.027 C 244.06881,170.21797 242.12245,181.11029 247.30987,188.3218 C 247.14539,188.45664 246.93382,188.58614 246.6712,188.71054 C 243.76212,190.0882 151.61828,235.81425 104.22017,259.07521 C 100.7757,253.68225 96.811863,249.29697 92.418694,246.30183 L 79.839682,252.71628 C 82.581663,253.50588 84.876646,252.46299 88.947658,257.21474 C 90.388455,258.89569 92.032047,261.34867 93.69605,264.21235 C 83.78882,269.05197 77.409797,272.14423 76.701873,272.37618 C 72.958175,273.60308 70.637913,271.3964 69.176683,269.09956 C 53.057296,246.85408 95.385849,227.8354 118.02098,214.7849 C 118.3236,214.6272 118.58674,214.46623 118.82628,214.31284 C 118.86986,214.28495 118.92358,214.25727 118.96514,214.22954 C 118.9724,214.22546 118.98632,214.20438 118.99291,214.20177 C 118.99515,214.20068 119.01828,214.20312 119.02064,214.20177 C 143.18803,202.12873 167.6302,190.10144 192.4954,178.10307 C 213.43797,167.99714 234.70739,157.883 256.47337,147.80797 z M 57.986089,174.24329 L 58.013855,174.24329 C 58.016762,174.24329 58.039182,174.24327 58.041625,174.24329 C 58.113805,174.23628 58.188843,174.23888 58.26377,174.24329 C 58.335496,174.24733 58.414216,174.25589 58.485916,174.27106 C 58.488839,174.27081 58.51124,174.2711 58.513683,174.27106 C 58.905461,174.38117 59.192285,174.69765 59.263427,175.10411 L 59.291197,175.10411 L 59.291197,175.13188 C 59.291265,175.13646 59.291489,175.15486 59.291197,175.15965 C 59.291222,175.16187 59.291133,175.18514 59.291197,175.1874 C 59.30352,175.33272 59.282185,175.50076 59.235659,175.6317 C 59.222107,175.66231 59.19282,175.71731 59.180123,175.74278 C 59.157418,175.78582 59.125512,175.84224 59.096818,175.88162 C 59.037293,175.96324 58.957877,176.04066 58.874672,176.10376 C 58.740201,176.20064 58.554683,176.26672 58.374842,176.29815 L 58.374842,176.32592 L 58.347076,176.32592 C 57.739506,176.429 57.150804,176.54046 56.56991,176.6869 C 55.996658,176.83122 55.411473,177.01614 54.82051,177.21449 C 51.872647,178.20326 49.130396,179.75117 46.628884,181.74072 L 46.601116,181.74072 C 45.909915,182.29057 45.256076,182.87299 44.601803,183.4901 C 43.961925,184.09349 43.331627,184.74938 42.713563,185.43389 C 39.597373,188.88342 37.055448,193.04823 35.327217,197.5686 L 35.327217,197.59637 C 35.002289,198.44865 34.694536,199.35476 34.410868,200.28987 C 34.133167,201.20505 33.897318,202.12396 33.688891,203.03894 C 32.606749,207.78805 32.38662,212.72355 33.2446,217.50617 L 33.2446,217.53394 C 33.37684,218.27079 33.54789,218.97118 33.716661,219.64434 C 33.891401,220.34183 34.073729,221.03361 34.299793,221.72696 C 35.45719,225.27377 37.287085,228.64862 39.853435,231.69577 L 39.881205,231.75129 C 39.883961,231.75392 39.906529,231.77665 39.908973,231.77904 C 39.959224,231.84943 40.014315,231.95095 40.047814,232.02897 C 40.056949,232.0523 40.069204,232.08944 40.075584,232.11227 C 40.085199,232.15038 40.098225,232.21244 40.10335,232.25113 C 40.103174,232.25667 40.103209,232.27615 40.10335,232.27886 C 40.10393,232.31423 40.103574,232.36092 40.10335,232.38995 C 40.103085,232.39565 40.103199,232.41063 40.10335,232.41772 C 40.103545,232.42893 40.103779,232.46347 40.10335,232.47325 C 40.094473,232.53285 40.064786,232.61062 40.047814,232.66765 C 40.047959,232.67037 40.047841,232.69277 40.047814,232.69542 C 40.042536,232.70553 40.024684,232.74198 40.020046,232.75095 C 40.020125,232.75375 40.020021,232.77626 40.020046,232.7787 C 40.006577,232.80773 39.980734,232.86178 39.96451,232.88977 C 39.951714,232.91047 39.923261,232.95308 39.908973,232.97308 C 39.8992,232.98265 39.863299,233.01908 39.853435,233.02863 C 39.820534,233.06618 39.781445,233.10611 39.742365,233.13969 L 39.714595,233.16747 L 39.686829,233.16747 C 39.681985,233.1723 39.663884,233.19037 39.659059,233.19524 C 39.618077,233.22405 39.562417,233.25302 39.520218,233.27852 C 39.515234,233.28352 39.497392,233.30124 39.492452,233.30629 C 39.416478,233.34177 39.344936,233.3726 39.270303,233.3896 L 39.242537,233.3896 C 38.830926,233.48365 38.38236,233.35953 38.104039,233.02863 L 38.104039,233.00085 C 37.578869,232.37673 37.082825,231.75013 36.604554,231.08484 C 36.137943,230.43563 35.692951,229.75012 35.271681,229.05776 C 33.136983,225.55093 31.751771,221.76631 31.050912,217.86718 L 31.050912,217.83941 C 30.87585,216.86219 30.754106,215.883 30.662157,214.89599 C 30.570223,213.9046 30.507187,212.89038 30.495546,211.897 C 30.434466,206.78337 31.421288,201.64849 33.2446,196.87438 C 33.603535,195.93547 33.99716,195.01609 34.410868,194.12534 C 34.842212,193.19745 35.282486,192.3214 35.743742,191.48735 C 38.193511,187.059 41.415211,183.12881 45.184935,180.13016 C 45.704029,179.71719 46.262199,179.32716 46.823261,178.93613 C 47.37636,178.55054 47.921036,178.16793 48.489355,177.82541 C 51.417911,176.05827 54.61087,174.81475 57.986089,174.24329 z "
   id="path13" />
<g
   id="text4429"
   style="font-size:40px;font-style:normal;font-weight:normal;text-align:center;line-height:125%;letter-spacing:0px;word-spacing:0px;text-anchor:middle;fill:#000000;fill-opacity:1;stroke:none;font-family:Sans"
   transform="matrix(0.59275692,0,0,0.66773021,-419.33055,-191.44799)"><path
     id="path4438"
     d="m 759.96294,365.05083 c 0,0 4.59583,6.031 4.59583,6.031 0,0 8.62768,-2.19134 8.62768,-2.19134 3.18468,-0.80886 5.43044,-1.69583 6.73684,-2.65897 1.30135,-0.95941 1.55414,-1.91628 0.76547,-2.86933 -0.77847,-0.94062 -2.23213,-1.44736 -4.36058,-1.52403 -2.1236,-0.0765 -4.74806,0.28027 -7.88022,1.07087 0,0 -8.48502,2.1418 -8.48502,2.1418 m -8.06642,-0.0466 c 0,0 15.18099,-3.82513 15.18099,-3.82513 5.54569,-1.39732 10.04699,-2.05935 13.52301,-1.98842 3.5044,0.0588 5.90694,0.84499 7.20747,2.36895 1.32447,1.55216 0.8871,3.10192 -1.33142,4.64545 -2.20944,1.54718 -6.16107,3.04744 -11.85543,4.49644 0,0 -8.67082,2.20641 -8.67082,2.20641 0,0 5.15549,6.76543 5.15549,6.76543 0,0 -7.04696,1.80562 -7.04696,1.80562 0,0 -12.16233,-16.47475 -12.16233,-16.47475"
     inkscape:connector-curvature="0" /><path
     id="path4440"
     d="m 800.95942,354.70245 c 0,0 11.13767,12.22011 11.13767,12.22011 0,0 8.28495,-2.11873 8.28495,-2.11873 6.97114,-1.78274 11.56426,-3.58189 13.7831,-5.39152 2.22474,-1.802 2.26674,-3.74474 0.15837,-5.81827 -2.06827,-2.03398 -5.13516,-3.10891 -9.20661,-3.24331 -4.03861,-0.14592 -9.41274,0.62986 -16.15068,2.33064 0,0 -8.0068,2.02108 -8.0068,2.02108 m -8.14535,-0.008 c 0,0 13.57577,-3.42067 13.57577,-3.42067 9.41715,-2.37281 16.89694,-3.51484 22.4916,-3.43313 5.61861,0.0756 9.77073,1.3886 12.46529,3.96936 2.75246,2.6363 2.53355,5.17939 -0.71391,7.61463 -3.27932,2.45908 -9.81171,4.94822 -19.6048,7.45747 0,0 -14.1864,3.63494 -14.1864,3.63494 0,0 -14.02755,-15.8226 -14.02755,-15.8226"
     inkscape:connector-curvature="0" /><path
     id="path4442"
     d="m 843.94349,341.8113 c 0,0 27.35658,-6.893 27.35658,-6.893 0,0 1.91233,1.59511 1.91233,1.59511 0,0 -20.98589,5.29751 -20.98589,5.29751 0,0 4.77991,4.29886 4.77991,4.29886 0,0 19.18473,-4.86633 19.18473,-4.86633 0,0 1.97539,1.65958 1.97539,1.65958 0,0 -19.27813,4.89933 -19.27813,4.89933 0,0 8.11601,7.29923 8.11601,7.29923 0,0 -6.75484,1.73077 -6.75484,1.73077 0,0 -16.30609,-15.02106 -16.30609,-15.02106"
     inkscape:connector-curvature="0" /><path
     id="path4444"
     d="m 834.552,388.76486 c -1.57746,1.2444 -2.58226,2.34253 -3.01019,3.29299 -0.41303,0.93968 -0.28668,1.78288 0.38238,2.52896 1.11604,1.24456 3.34911,1.94443 6.70195,2.09367 3.36414,0.14974 7.01369,-0.29382 10.93499,-1.32972 2.32502,-0.6142 4.37406,-1.32155 6.14583,-2.12114 1.7593,-0.80617 3.26043,-1.71368 4.50304,-2.72111 0,0 -25.658,-1.74365 -25.658,-1.74365 m 3.7925,-2.70477 c 0,0 24.50197,1.61855 24.50197,1.61855 0.68171,-1.11068 0.99871,-2.18346 0.95362,-3.21842 -0.0532,-1.03791 -0.47676,-2.0349 -1.26775,-2.99111 0,0 6.61581,-1.7323 6.61581,-1.7323 0.81504,1.13219 1.1462,2.3842 0.98901,3.75743 -0.15832,1.38217 -0.82344,2.89078 -2.00059,4.52742 0,0 13.82227,0.90608 13.82227,0.90608 0,0 -9.18812,2.43163 -9.18812,2.43163 0,0 -7.10111,-0.48838 -7.10111,-0.48838 -1.78075,1.42322 -3.88198,2.69375 -6.30258,3.80872 -2.437,1.11003 -5.26837,2.09264 -8.49164,2.94601 -5.94197,1.57316 -11.35383,2.26168 -16.20646,2.06315 -4.8373,-0.20628 -8.06069,-1.24073 -9.67538,-3.09014 -0.95368,-1.09231 -1.02801,-2.32429 -0.23071,-3.69474 0.78524,-1.37075 2.42453,-2.88661 4.9102,-4.54619 -1.61918,-0.21646 -2.95537,-0.5003 -4.00942,-0.8512 -1.05864,-0.35815 -1.80519,-0.78101 -2.24076,-1.26829 -1.17019,-1.30903 -0.78799,-2.69453 1.13215,-4.15753 1.90229,-1.46275 5.01033,-2.75175 9.32589,-3.87149 1.94398,-0.50437 3.9417,-0.93526 5.99432,-1.29299 2.07589,-0.36374 4.24335,-0.66371 6.50376,-0.90006 0,0 2.10113,2.13097 2.10113,2.13097 -2.40653,0.16285 -4.62846,0.39135 -6.66754,0.68558 -2.04615,0.28634 -3.86864,0.63736 -5.46875,1.05333 -2.473,0.64294 -4.28216,1.38888 -5.42819,2.23934 -1.13338,0.83907 -1.37782,1.61235 -0.72869,2.31994 0.37738,0.41139 1.10479,0.73766 2.18322,0.97846 1.09701,0.22697 3.08661,0.43899 5.97434,0.63623"
     inkscape:connector-curvature="0" /><path
     id="path4446"
     d="m 787.48195,435.24545 c 0,0 12.93758,18.52613 12.93758,18.52613 0,0 10.10128,-2.76929 10.10128,-2.76929 8.49326,-2.32845 14.10043,-4.78649 16.82695,-7.36327 2.72923,-2.56121 2.81841,-5.42176 0.31478,-8.56231 -2.44949,-3.07251 -6.11721,-4.77825 -11.01137,-5.15036 -4.84993,-0.38718 -11.32905,0.51444 -19.47853,2.70922 0,0 -9.69069,2.60988 -9.69069,2.60988 m -9.76561,-0.36689 c 0,0 16.41997,-4.41144 16.41997,-4.41144 11.37823,-3.05688 20.38784,-4.40147 27.10465,-4.04342 6.75331,0.35058 11.72606,2.44629 14.93077,6.3413 3.28459,3.99229 2.98227,7.72891 -0.9907,11.18094 -4.02031,3.49312 -11.99689,6.89042 -23.94083,10.1736 0,0 -17.32214,4.76156 -17.32214,4.76156 0,0 -16.20172,-24.00254 -16.20172,-24.00254"
     inkscape:connector-curvature="0" /><path
     id="path4448"
     d="m 839.45279,418.29226 c 0,0 7.79266,-2.0936 7.79266,-2.0936 0,0 18.50587,20.87978 18.50587,20.87978 2.5447,2.87114 3.01097,5.36779 1.3626,7.47166 -1.63356,2.11243 -5.58378,4.04055 -11.85438,5.77582 0,0 -3.19727,0.88477 -3.19727,0.88477 0,0 -2.33844,-2.83639 -2.33844,-2.83639 0,0 2.60015,-0.71753 2.60015,-0.71753 3.68182,-1.01602 5.92541,-2.14223 6.73253,-3.37565 0.8034,-1.22777 0.3035,-2.88439 -1.48347,-4.95836 0,0 -18.12025,-21.0305 -18.12025,-21.0305"
     inkscape:connector-curvature="0" /><path
     id="path4450"
     d="m 898.91462,430.01937 c 0,0 -43.32777,-16.06173 -43.32777,-16.06173 0,0 8.08122,-2.17113 8.08122,-2.17113 0,0 36.19126,13.3664 36.19126,13.3664 0,0 -0.27641,-23.01539 -0.27641,-23.01539 0,0 7.88651,-2.11881 7.88651,-2.11881 0,0 0.58446,27.48843 0.58446,27.48843 0,0 -9.13927,2.51223 -9.13927,2.51223"
     inkscape:connector-curvature="0" /><path
     id="path4452"
     d="m 914.7303,398.06798 c 0,0 7.57234,-2.03441 7.57234,-2.03441 0,0 14.19863,12.47185 14.19863,12.47185 2.60502,2.28823 5.62531,3.6476 9.04837,4.05877 3.42658,0.40325 7.669,-0.0867 12.70755,-1.46871 5.00125,-1.37177 8.00371,-2.86639 9.01121,-4.47855 0.9895,-1.61148 0.0915,-3.53737 -2.66447,-5.76529 0,0 -15.02542,-12.14608 -15.02542,-12.14608 0,0 7.45401,-2.00262 7.45401,-2.00262 0,0 15.68417,12.40143 15.68417,12.40143 3.41361,2.6992 4.1764,5.26978 2.23776,7.69888 -1.93084,2.44447 -6.54715,4.67736 -13.85379,6.68677 -7.35712,2.02329 -13.77977,2.82058 -19.22549,2.38866 -5.38808,-0.43649 -9.65157,-2.07605 -12.77946,-4.8895 0,0 -14.36541,-12.9212 -14.36541,-12.9212"
     inkscape:connector-curvature="0" /></g><path
   transform="matrix(0.56831669,0,0,0.56831669,-66.848124,0)"
   inkscape:connector-curvature="0"
   id="path4454"
   d="M 798.70691,465.9757 733.65386,369.60081 886.649,331.05085 990.25201,412.96951 z"
   style="fill:none;stroke:#000000;stroke-width:1px;stroke-linecap:butt;stroke-linejoin:miter;stroke-opacity:1" /><path
   style="fill:#ff7f2a"
   d="M 297.77149,339.66836 C 227.17095,258.89325 173.3839,191.97564 121.47814,120.33807 105.82455,98.733815 76.176402,55.621768 76.648255,55.149914 77.51113,54.287039 109.68195,44.533568 129.50699,39.124329 167.65031,28.716971 209.61505,20.497792 241.35437,17.217992 c 13.48072,-1.393037 14.1784,-1.345165 25.90076,1.777188 6.62577,1.764833 18.34369,5.1614 26.03982,7.547928 13.66682,4.238009 14.27049,4.576889 25.90075,14.539876 42.43696,36.353358 126.32323,101.953916 206.09239,161.167906 l 19.46662,14.45042 0.83653,11.15775 c 0.4601,6.13677 0.45245,17.3048 -0.017,24.81786 l -0.85352,13.6601 -45.36963,21.49426 c -24.9533,11.82184 -74.10504,35.65728 -109.22608,52.96764 L 326.26858,372.2723 297.77149,339.66836 z M 223.46242,197.9807 c 8.02632,-2.6831 17.17939,-6.18883 20.34018,-7.79052 10.30344,-5.22115 13.47086,-12.52742 8.28758,-19.1169 -5.56509,-7.07487 -15.08363,-9.07843 -29.40844,-6.19022 -12.98431,2.61795 -31.91637,8.22609 -31.92069,9.4557 -0.006,1.62397 16.17777,28.45386 17.18393,28.48849 0.50828,0.0175 7.49114,-2.16345 15.51744,-4.84655 z m 54.89435,-7.70786 c 7.00375,-3.26083 8.88404,-6.84924 6.16589,-11.76729 -0.88363,-1.59881 -5.8889,-8.36261 -11.12282,-15.03068 l -9.51618,-12.12376 -4.33771,1.18392 c -2.38572,0.65114 -4.53123,1.36593 -4.76779,1.58841 -0.23657,0.22247 4.06386,6.26449 9.55648,13.42671 5.49262,7.16222 10.02305,14.10644 10.0676,15.4316 0.0546,1.62305 -1.37244,3.11978 -4.37244,4.58615 -2.94193,1.43796 -4.22703,2.76682 -3.78635,3.91523 0.96721,2.52049 4.95617,2.12195 12.11332,-1.21029 l 0,0 z m 43.87298,-22.54036 4.65734,-1.39538 0,-16.67491 c 0,-18.01355 0.008,-17.9927 -6.54735,-15.50005 -3.0469,1.15843 -3.09014,1.35226 -3.09014,13.85389 0,6.97346 -0.47089,12.67902 -1.04641,12.67902 -0.57554,0 -8.80683,-3.26461 -18.29174,-7.25469 -17.03473,-7.16611 -17.30514,-7.23424 -22.1438,-5.57903 -4.87624,1.66805 -4.8848,1.68181 -1.88675,3.03253 5.04174,2.27147 42.73418,18.12369 43.22893,18.1807 0.25442,0.0293 2.55838,-0.57462 5.11992,-1.34208 l 0,0 z m 61.87993,-18.9191 c 9.6307,-3.44148 13.16871,-6.20667 13.61532,-10.64124 0.31921,-3.16964 -0.82505,-4.68375 -9.34222,-12.36188 -9.10989,-8.21244 -9.96461,-8.70132 -13.9165,-7.95994 -2.31577,0.43444 -4.21049,1.24528 -4.21049,1.80187 0,0.55658 3.38818,4.20832 7.52929,8.11497 10.58844,9.98896 11.18139,10.8274 9.27855,13.12018 -3.71632,4.47789 -17.44031,7.62625 -23.43361,5.37581 -1.98774,-0.74638 -7.47931,-5.18036 -12.20351,-9.8533 -8.12092,-8.0328 -8.81091,-8.44871 -12.6492,-7.62477 -2.23287,0.47931 -4.52166,1.14495 -5.0862,1.47921 -1.65453,0.97963 15.03045,17.22825 20.30142,19.77047 6.22648,3.00307 19.8404,2.45097 30.11715,-1.22138 l 0,0 z M 271.47153,129.40642 c 3.64417,-1.44813 7.48162,-3.40329 8.52766,-4.3448 1.04604,-0.94151 4.29869,-1.75308 7.22811,-1.80349 2.92943,-0.0504 7.20926,-0.77157 9.51072,-1.60259 l 4.18448,-1.51094 -4.03389,-0.80678 c -2.21865,-0.44373 -5.36448,-0.80678 -6.99076,-0.80678 -2.59123,0 -2.87079,-0.40964 -2.26092,-3.31289 1.00277,-4.77361 -0.54957,-6.49629 -5.04398,-5.5974 -3.46411,0.69282 -3.71664,1.05965 -3.04417,4.42197 l 0.73329,3.66648 -14.34393,-0.81894 c -14.99736,-0.85626 -19.76502,-1.62518 -19.76502,-3.18767 0,-1.38721 9.1893,-4.80625 12.97476,-4.82749 4.66838,-0.0262 6.90939,-1.59033 4.79394,-3.34601 -2.06412,-1.71306 -16.31434,1.09154 -21.81193,4.29284 -4.5475,2.64805 -5.56217,6.7921 -2.11478,8.63708 2.29492,1.2282 2.31932,1.47285 0.4687,4.69737 -2.29035,3.99071 -1.47024,7.01289 2.34971,8.65883 4.49639,1.9374 21.24635,0.52853 28.63801,-2.40879 l 0,0 z m -87.05906,-19.78965 c 0.32147,-0.32148 -0.56307,-2.19612 -1.96566,-4.16587 l -2.55016,-3.58137 9.50775,-3.166368 c 8.70342,-2.898503 13.40002,-5.871466 13.40002,-8.482248 0,-2.953877 -4.28953,-5.421088 -9.42518,-5.421088 -4.35271,0 -28.56827,5.36301 -30.11246,6.668996 -0.21194,0.179242 2.4986,4.740013 6.02343,10.135048 6.23026,9.53592 6.52198,9.79227 10.47326,9.20327 2.23547,-0.33323 4.32752,-0.8689 4.649,-1.19037 l 0,0 z m 54.80006,-15.964797 c 19.03434,-6.08947 24.30626,-11.817829 17.1003,-18.580814 -2.83592,-2.661589 -4.09097,-2.916203 -14.15506,-2.871645 -8.34005,0.03692 -14.0658,0.889856 -23.39126,3.484462 -6.79142,1.889564 -12.34803,3.830557 -12.34803,4.313318 0,0.482761 3.31473,5.030306 7.36605,10.105656 6.12483,7.672934 7.79957,9.097605 9.93866,8.454627 1.41494,-0.425306 8.38513,-2.632827 15.48934,-4.905604 z m 45.27629,-13.035079 c 0.36955,-0.369548 -1.07901,-2.478402 -3.21904,-4.68634 l -3.89093,-4.014434 9.76619,-2.780798 c 8.02393,-2.284715 9.48494,-3.060107 8.18968,-4.346477 -1.29389,-1.285009 -3.30418,-1.060347 -11.21399,1.253232 -8.83659,2.584658 -9.81776,2.660187 -11.80674,0.908875 -2.02489,-1.782919 -1.50374,-2.101445 7.83046,-4.78593 11.10395,-3.193467 11.53686,-3.415371 9.8851,-5.067116 -0.94851,-0.94851 -19.60222,3.308262 -29.20482,6.664535 -1.0597,0.370382 1.19269,3.696662 6.5767,9.712369 7.74675,8.655621 8.41024,9.113064 12.30193,8.481529 2.26245,-0.367145 4.41591,-0.969895 4.78546,-1.339445 l 0,0 z"
   id="path4496"
   inkscape:connector-curvature="0"
   transform="matrix(0.56831669,0,0,0.56831669,-66.848124,0)" /><path
   style="fill:#ff7f2a"
   d="m 209.52366,186.68302 c -8.00025,-12.83587 -8.22035,-11.85906 3.35639,-14.89537 15.97473,-4.18978 26.24804,-3.0472 29.6433,3.29691 3.28073,6.1301 -0.19917,10.49622 -12.07523,15.15041 -15.82465,6.20164 -14.72944,6.38755 -20.92446,-3.55195 z"
   id="path4498"
   inkscape:connector-curvature="0"
   transform="matrix(0.56831669,0,0,0.56831669,-66.848124,0)" /><path
   style="fill:#ff7f2a"
   d="m 222.19157,87.343184 c -2.712,-3.239196 -4.93092,-6.167763 -4.93092,-6.507926 0,-1.031547 6.21013,-2.862813 15.08949,-4.449643 7.25331,-1.296237 9.03533,-1.24262 12.94125,0.389378 6.07415,2.537941 6.98941,5.296374 2.85202,8.595418 -2.63476,2.100879 -17.52138,7.862218 -20.31505,7.862218 -0.38822,0 -2.92478,-2.65025 -5.63679,-5.889445 z"
   id="path4500"
   inkscape:connector-curvature="0"
   transform="matrix(0.56831669,0,0,0.56831669,-66.848124,0)" /><path
   style="fill:#ff7f2a"
   d="m 175.795,95.413511 c -1.0162,-1.450824 -1.7019,-2.783589 -1.52379,-2.9617 0.17811,-0.178112 3.3779,-1.119321 7.11063,-2.091576 12.40043,-3.2299 16.50039,0.935065 5.11412,5.195211 -8.26357,3.0918 -8.43758,3.089492 -10.70096,-0.141935 z"
   id="path4502"
   inkscape:connector-curvature="0"
   transform="matrix(0.56831669,0,0,0.56831669,-66.848124,0)" /><path
   style="fill:#ff7f2a"
   d="m 248.70103,126.50433 c -1.29645,-1.56212 -1.32002,-2.3092 -0.11854,-3.75689 1.64064,-1.97685 5.84347,-2.20502 18.5377,-1.0064 l 8.29786,0.78351 -4.68179,2.4019 c -6.4063,3.28663 -19.81994,4.24714 -22.03523,1.57788 z"
   id="path4504"
   inkscape:connector-curvature="0"
   transform="matrix(0.56831669,0,0,0.56831669,-66.848124,0)" /><path
   style="fill:#ff7f2a"
   d=""
   id="path4506"
   inkscape:connector-curvature="0"
   transform="matrix(0.56831669,0,0,0.56831669,-66.848124,0)" /><path
   style="fill:#ff7f2a"
   d="m 185.30795,410.38974 c -0.7445,-0.4049 -3.9032,-4.67541 -5.79465,-7.83428 -4.07253,-6.80141 -6.72872,-14.69314 -7.66798,-22.78212 -0.49429,-4.25676 -0.62206,-9.66537 -0.29157,-12.34201 l 0.079,-0.63999 1.88393,0 1.88393,0 -0.11211,0.86587 c -0.17542,1.35494 -0.12581,8.05671 0.0738,9.97631 1.20954,11.62884 4.83465,20.70053 11.77305,29.46156 0.99062,1.25085 1.1321,1.65748 0.82906,2.38276 -0.40372,0.96624 -1.72357,1.4193 -2.65654,0.9119 l 0,0 z"
   id="path4512"
   inkscape:connector-curvature="0"
   transform="matrix(0.56831669,0,0,0.56831669,-66.848124,0)" /><path
   style="fill:#ff7f2a"
   d="m 171.67476,365.6243 c 0.16387,-1.87535 0.67303,-5.21255 1.15449,-7.56693 1.85375,-9.06502 5.60932,-18.14639 10.69405,-25.85935 7.92797,-12.02584 18.78464,-20.60954 30.59554,-24.19002 2.29006,-0.69423 5.02984,-1.30038 5.87774,-1.30038 0.85303,0 1.52858,0.51413 1.78054,1.35508 0.14964,0.49949 0.13377,0.64944 -0.11442,1.08065 -0.37728,0.65552 -1.01891,0.95488 -2.84433,1.32704 -8.45953,1.72469 -16.77638,6.39291 -23.78796,13.3521 -10.59823,10.51904 -17.63239,25.26335 -19.43977,40.74771 l -0.25925,2.22114 -1.87931,0 -1.8793,0 0.10198,-1.16704 z"
   id="path4514"
   inkscape:connector-curvature="0"
   transform="matrix(0.56831669,0,0,0.56831669,-66.848124,0)" /><path
   style="fill:#ff7f2a"
   d="m 150.93024,351.41472 c -0.59499,-0.16084 -0.83466,-0.40508 -2.35485,-2.39969 -5.74516,-7.5381 -9.24882,-16.06729 -10.68306,-26.00647 -0.46797,-3.24295 -0.61743,-5.53438 -0.62102,-9.52076 -0.0155,-17.26018 6.82093,-34.78633 18.13556,-46.49294 6.55263,-6.77964 14.11963,-11.2735 22.26178,-13.22076 1.97696,-0.47281 3.94343,-0.82512 4.60709,-0.82539 1.19623,-5e-4 1.95336,1.00478 1.46624,1.94677 -0.36628,0.7083 -0.79694,0.89924 -2.91049,1.29038 -3.82363,0.70761 -6.64881,1.60819 -9.8948,3.15417 -10.7022,5.09717 -19.60389,15.08862 -25.12381,28.19952 -1.6224,3.85354 -3.29713,9.50323 -4.07498,13.74699 -0.91366,4.98466 -1.20943,8.65566 -1.09801,13.62801 0.21184,9.45352 2.00481,17.00379 5.82885,24.54548 1.78044,3.51136 3.22175,5.75085 5.74854,8.93207 0.65363,0.82292 0.8748,1.22293 0.87424,1.58115 -0.002,0.98327 -1.11331,1.72477 -2.16128,1.44147 z"
   id="path4516"
   inkscape:connector-curvature="0"
   transform="matrix(0.56831669,0,0,0.56831669,-66.848124,0)" /><path
   style="fill:#ff7f2a"
   d="m 123.66215,302.0078 c -0.37922,-0.18303 -2.2208,-2.49579 -3.69191,-4.63649 -5.38376,-7.83428 -8.61805,-16.88785 -10.00588,-28.00896 -0.3914,-3.13638 -0.39041,-12.50382 0.002,-15.66092 1.4269,-11.49014 4.65326,-20.62077 10.26958,-29.06305 4.45606,-6.69822 9.68908,-11.3811 16.41113,-14.68584 3.98187,-1.95759 8.33237,-3.25188 11.69767,-3.48009 l 1.45784,-0.0989 0.46213,0.46213 c 0.51015,0.51016 0.5841,0.99706 0.22852,1.50473 -0.35768,0.51066 -0.63021,0.60329 -2.72074,0.92479 -9.78305,1.50451 -17.99239,6.84057 -24.46187,15.90019 -2.95272,4.13487 -5.4861,9.23997 -7.24856,14.60682 -3.26024,9.92775 -4.28699,20.5499 -2.97473,30.77456 1.39399,10.86137 5.58809,21.07659 11.70864,28.51771 0.52756,0.64139 1.01146,1.35291 1.07533,1.58115 0.13574,0.4851 -0.14614,1.15439 -0.58512,1.38933 -0.36765,0.19676 -1.18815,0.18302 -1.62369,-0.0272 z"
   id="path4518"
   inkscape:connector-curvature="0"
   transform="matrix(0.56831669,0,0,0.56831669,-66.848124,0)" /><path
   style="fill:#ff7f2a"
   d="m 95.424078,255.03234 c -0.251856,-0.092 -0.878016,-0.7506 -1.599331,-1.68221 -5.975146,-7.71713 -9.739385,-17.58219 -11.116549,-29.13349 -0.377203,-3.16388 -0.375862,-12.12537 0.0023,-15.23918 0.682933,-5.6236 1.788929,-10.50589 3.419777,-15.09622 l 0.628625,-1.76939 1.26431,0 c 0.762142,0 1.264311,0.0612 1.264311,0.15419 0,0.0848 -0.306379,0.98266 -0.680841,1.99526 -1.232683,3.33333 -2.402499,8.08472 -2.992914,12.1562 -0.843674,5.81794 -0.905568,13.34992 -0.156536,19.0491 1.356818,10.32366 4.996771,19.49952 10.5539,26.60504 1.278055,1.63416 1.383487,1.86582 1.09473,2.40537 -0.1291,0.24123 -1.034244,0.77188 -1.225375,0.71839 -0.02337,-0.007 -0.228741,-0.0799 -0.456388,-0.16306 l 0,0 z"
   id="path4520"
   inkscape:connector-curvature="0"
   transform="matrix(0.56831669,0,0,0.56831669,-66.848124,0)" /><path
   style="fill:#ff7f2a"
   d="m 86.878129,191.98724 c 0,-0.22894 1.158571,-2.79937 2.185068,-4.84786 6.2175,-12.40768 16.782943,-20.37765 28.792903,-21.71973 1.30562,-0.1459 1.6606,-0.13856 2.18004,0.0451 0.77106,0.27258 0.98863,0.58682 0.79247,1.1446 -0.22962,0.65292 -0.87119,0.91084 -2.70393,1.087 -7.44313,0.71543 -13.96472,3.98971 -19.576154,9.82853 -1.823838,1.89775 -3.127745,3.55173 -4.723411,5.99156 -1.163857,1.77958 -3.375494,5.95693 -4.092311,7.72959 l -0.350136,0.86586 -1.252269,0 c -0.688748,0 -1.25227,-0.0561 -1.25227,-0.12461 z"
   id="path4522"
   inkscape:connector-curvature="0"
   transform="matrix(0.56831669,0,0,0.56831669,-66.848124,0)" /><path
   style="fill:#ff7f2a"
   d="m 74.120443,212.16078 c -0.327588,-0.0944 -1.938819,-1.997 -3.330969,-3.93341 -2.810774,-3.90966 -5.48646,-9.3814 -7.254589,-14.83554 -4.959218,-15.29768 -4.205081,-32.98629 1.951704,-45.77807 1.812384,-3.76554 3.74044,-6.6629 6.206003,-9.32599 5.176752,-5.59148 12.615952,-9.1411 19.67014,-9.38561 1.915787,-0.0664 2.182887,-0.0453 2.447018,0.19378 0.383018,0.34663 0.373906,0.54818 -0.04246,0.93934 -0.28443,0.26721 -0.652034,0.3454 -2.285014,0.48602 -4.314561,0.37155 -7.173031,1.12862 -10.491118,2.77859 -2.663252,1.32435 -4.749478,2.90751 -7.385204,5.60438 -5.748623,5.88199 -9.633621,15.55367 -10.847845,27.00566 -0.262642,2.47711 -0.261758,10.61073 0.0014,13.02567 0.108309,0.99387 0.325126,2.68796 0.481817,3.76464 1.510975,10.38257 5.595968,20.17712 11.303686,27.10272 0.571545,0.6935 1.039173,1.39084 1.039173,1.54964 0,0.54982 -0.809329,0.99667 -1.463754,0.80818 l 0,0 z"
   id="path4524"
   inkscape:connector-curvature="0"
   transform="matrix(0.56831669,0,0,0.56831669,-66.848124,0)" /><path
   style="fill:#ff7f2a"
   d=""
   id="path4526"
   inkscape:connector-curvature="0"
   transform="matrix(0.56831669,0,0,0.56831669,-66.848124,0)" /><path
   style="fill:#ff7f2a"
   d="m 49.146833,167.37814 c -5.669858,-6.73268 -9.19637,-15.39482 -10.750243,-26.40573 -0.291432,-2.06512 -0.33922,-3.06577 -0.348046,-7.28783 -0.01527,-7.30315 0.548503,-11.25922 2.390024,-16.77116 2.870377,-8.59144 7.859788,-14.7274 14.766522,-18.159808 3.785505,-1.881264 7.013747,-2.716256 10.944518,-2.830824 1.381442,-0.04026 2.702832,-0.02507 2.936422,0.03377 l 0.424708,0.106981 -0.327343,0.265667 c -0.262706,0.213209 -0.738458,0.283709 -2.409373,0.357033 -8.933497,0.392026 -15.655282,4.108128 -20.482197,11.323458 -7.588423,11.34328 -8.712761,30.22631 -2.752499,46.22767 1.803551,4.84195 4.085937,8.8693 7.061284,12.45988 l 1.213939,1.46495 -0.443099,0.22914 c -0.847914,0.43847 -1.098044,0.32455 -2.224617,-1.0132 l 0,0 z"
   id="path4528"
   inkscape:connector-curvature="0"
   transform="matrix(0.56831669,0,0,0.56831669,-66.848124,0)" /></svg>