<?xml version="1.0" encoding="UTF-8" standalone="no"?>
<!-- Created with Inkscape (http://www.inkscape.org/) -->

<svg
   xmlns:dc="http://purl.org/dc/elements/1.1/"
   xmlns:cc="http://creativecommons.org/ns#"
   xmlns:rdf="http://www.w3.org/1999/02/22-rdf-syntax-ns#"
   xmlns:svg="http://www.w3.org/2000/svg"
   xmlns="http://www.w3.org/2000/svg"
   xmlns:xlink="http://www.w3.org/1999/xlink"
   xmlns:sodipodi="http://sodipodi.sourceforge.net/DTD/sodipodi-0.dtd"
   xmlns:inkscape="http://www.inkscape.org/namespaces/inkscape"
   id="svg2"
   version="1.1"
   inkscape:version="0.48.2 r9819"
   width="864"
   height="864"
   sodipodi:docname="folder template.svg"
   inkscape:export-filename="D:\DocData\Doc3\Dropbox\Grafica\Ebookdroid resources\folder template.png"
   inkscape:export-xdpi="5"
   inkscape:export-ydpi="5">
  <metadata
     id="metadata8">
    <rdf:RDF>
      <cc:Work
         rdf:about="">
        <dc:format>image/svg+xml</dc:format>
        <dc:type
           rdf:resource="http://purl.org/dc/dcmitype/StillImage" />
        <dc:title></dc:title>
      </cc:Work>
    </rdf:RDF>
  </metadata>
  <defs
     id="defs6">
    <linearGradient
       inkscape:collect="always"
       id="linearGradient3788">
      <stop
         style="stop-color:#ededed;stop-opacity:1;"
         offset="0"
         id="stop3790" />
      <stop
         style="stop-color:#ededed;stop-opacity:0;"
         offset="1"
         id="stop3792" />
    </linearGradient>
    <linearGradient
       inkscape:collect="always"
       id="linearGradient3757">
      <stop
         style="stop-color:#e5e5e5;stop-opacity:1;"
         offset="0"
         id="stop3759" />
      <stop
         style="stop-color:#e5e5e5;stop-opacity:0;"
         offset="1"
         id="stop3761" />
    </linearGradient>
    <linearGradient
       inkscape:collect="always"
       xlink:href="#linearGradient3757"
       id="linearGradient3763"
       x1="20.530037"
       y1="35.872807"
       x2="841.94348"
       y2="847.97174"
       gradientUnits="userSpaceOnUse" />
    <linearGradient
       inkscape:collect="always"
       xlink:href="#linearGradient3757"
       id="linearGradient3767"
       gradientUnits="userSpaceOnUse"
       x1="20.530037"
       y1="35.872807"
       x2="841.94348"
       y2="847.97174"
       gradientTransform="matrix(0.96674391,0,0,0.96090293,16.079766,17.425498)" />
    <linearGradient
       inkscape:collect="always"
       xlink:href="#linearGradient3757"
       id="linearGradient3770"
       gradientUnits="userSpaceOnUse"
       x1="20.530037"
       y1="35.872807"
       x2="841.94348"
       y2="847.97174"
       gradientTransform="matrix(0.95026745,0,0,0.92912484,3.8916148,10.167317)" />
    <linearGradient
       inkscape:collect="always"
       xlink:href="#linearGradient3757"
       id="linearGradient3807"
       x1="22.052872"
       y1="423.61337"
       x2="805.3064"
       y2="423.61337"
       gradientUnits="userSpaceOnUse" />
    <radialGradient
       inkscape:collect="always"
       xlink:href="#linearGradient3788"
       id="radialGradient3794"
       cx="459.95166"
       cy="561.68958"
       fx="459.95166"
       fy="561.68958"
       r="273.92063"
       gradientTransform="matrix(0.8679562,-1.3770088,2.1348993,1.3456698,-1077.0042,405.30843)"
       gradientUnits="userSpaceOnUse" />
    <radialGradient
       inkscape:collect="always"
       xlink:href="#linearGradient3788"
       id="radialGradient3798"
       gradientUnits="userSpaceOnUse"
       gradientTransform="matrix(0.82455839,-1.3081584,2.0281543,1.2783863,-994.4033,414.40496)"
       cx="459.95166"
       cy="561.68958"
       fx="459.95166"
       fy="561.68958"
       r="273.92063" />
    <radialGradient
       inkscape:collect="always"
       xlink:href="#linearGradient3788"
       id="radialGradient3772"
       gradientUnits="userSpaceOnUse"
       gradientTransform="matrix(0.8679562,-1.3770088,2.1348993,1.3456698,-1077.0042,405.30843)"
       cx="459.95166"
       cy="561.68958"
       fx="459.95166"
       fy="561.68958"
       r="273.92063" />
    <radialGradient
       inkscape:collect="always"
       xlink:href="#linearGradient3788"
       id="radialGradient3774"
       gradientUnits="userSpaceOnUse"
       gradientTransform="matrix(0.82455839,-1.3081584,2.0281543,1.2783863,-994.4033,414.40496)"
       cx="459.95166"
       cy="561.68958"
       fx="459.95166"
       fy="561.68958"
       r="273.92063" />
    <radialGradient
       inkscape:collect="always"
       xlink:href="#linearGradient3788"
       id="radialGradient3009"
       gradientUnits="userSpaceOnUse"
       gradientTransform="matrix(0.8679562,-1.3770088,2.1348993,1.3456698,-1077.0042,405.30843)"
       cx="459.95166"
       cy="561.68958"
       fx="459.95166"
       fy="561.68958"
       r="273.92063" />
    <radialGradient
       inkscape:collect="always"
       xlink:href="#linearGradient3788"
       id="radialGradient3011"
       gradientUnits="userSpaceOnUse"
       gradientTransform="matrix(0.82455839,-1.3081584,2.0281543,1.2783863,-994.4033,414.40496)"
       cx="459.95166"
       cy="561.68958"
       fx="459.95166"
       fy="561.68958"
       r="273.92063" />
    <radialGradient
       inkscape:collect="always"
       xlink:href="#linearGradient3788"
       id="radialGradient3016"
       gradientUnits="userSpaceOnUse"
       gradientTransform="matrix(0.8679562,-1.3770088,2.1348993,1.3456698,-1077.0042,405.30843)"
       cx="459.95166"
       cy="561.68958"
       fx="459.95166"
       fy="561.68958"
       r="273.92063" />
    <radialGradient
       inkscape:collect="always"
       xlink:href="#linearGradient3788"
       id="radialGradient3018"
       gradientUnits="userSpaceOnUse"
       gradientTransform="matrix(0.82455839,-1.3081584,2.0281543,1.2783863,-994.4033,414.40496)"
       cx="459.95166"
       cy="561.68958"
       fx="459.95166"
       fy="561.68958"
       r="273.92063" />
    <radialGradient
       inkscape:collect="always"
       xlink:href="#linearGradient3788"
       id="radialGradient3020"
       gradientUnits="userSpaceOnUse"
       gradientTransform="matrix(0.8679562,-1.3770088,2.1348993,1.3456698,-1077.0042,405.30843)"
       cx="459.95166"
       cy="561.68958"
       fx="459.95166"
       fy="561.68958"
       r="273.92063" />
    <radialGradient
       inkscape:collect="always"
       xlink:href="#linearGradient3788"
       id="radialGradient3022"
       gradientUnits="userSpaceOnUse"
       gradientTransform="matrix(0.82455839,-1.3081584,2.0281543,1.2783863,-994.4033,414.40496)"
       cx="459.95166"
       cy="561.68958"
       fx="459.95166"
       fy="561.68958"
       r="273.92063" />
  </defs>
  <sodipodi:namedview
     pagecolor="#ffffff"
     bordercolor="#666666"
     borderopacity="1"
     objecttolerance="10"
     gridtolerance="10"
     guidetolerance="10"
     inkscape:pageopacity="0"
     inkscape:pageshadow="2"
     inkscape:window-width="1024"
     inkscape:window-height="1263"
     id="namedview4"
     showgrid="false"
     fit-margin-top="0"
     fit-margin-left="0"
     fit-margin-right="0"
     fit-margin-bottom="0"
     inkscape:zoom="0.6770082"
     inkscape:cx="426.83612"
     inkscape:cy="424.73497"
     inkscape:window-x="-4"
     inkscape:window-y="-4"
     inkscape:window-maximized="1"
     inkscape:current-layer="svg2" />
  <g
     id="g3768"
     transform="matrix(1.1910606,0,0,1.2856701,-128.95235,-118.7324)"
     style="stroke-width:12.79298306;stroke-miterlimit:4;stroke-dasharray:none">
    <path
       sodipodi:nodetypes="cccccccccccccc"
       inkscape:connector-curvature="0"
       id="rect2993"
       d="m 436.56973,263.12075 -57.98291,39.42956 0.42968,-0.72126 c 0,0 -181.27492,0 -205.81451,0 -20.67131,0.22801 -32.10848,8.68816 -32.10848,31.91464 0.52849,30.79088 0.87376,289.37786 0.89693,304.41515 0,25.14081 11.33362,33.19549 35.30221,33.19549 7.48357,0 446.31836,0 468.18151,0 31.42868,0.17771 43.22537,-7.32124 43.22537,-32.68599 0,-19.72075 0,-300.09607 0,-300.09607 l 0.14492,0 c 0,0 0,-25.15051 0,-37.72576 1.54061,-31.35666 -16.79152,-37.36119 -42.53956,-37.72576 -18.16071,0 -209.73516,0 -209.73516,0 z"
       style="fill:url(#radialGradient3020);fill-opacity:1;fill-rule:evenodd;stroke:#dfdfdf;stroke-width:12.79298306;stroke-miterlimit:4;stroke-opacity:1;stroke-dasharray:none" />
    <path
       style="fill:url(#radialGradient3022);fill-opacity:1;fill-rule:evenodd;stroke:none"
       d="m 443.49195,279.32667 -55.08376,37.45808 0.40819,-0.6852 c 0,0 -172.21117,0 -195.52378,0 -19.63775,0.21661 -30.50306,8.25375 -30.50306,30.31891 0.50207,29.25134 0.83007,274.90897 0.85208,289.19439 0,23.88377 10.76694,31.53572 33.5371,31.53572 7.1094,0 424.00245,0 444.77244,0 29.85724,0.16882 41.0641,-6.95518 41.0641,-31.05169 0,-18.73472 0,-285.09127 0,-285.09127 l 0.13767,0 c 0,0 0,-23.89298 0,-35.83947 1.46358,-29.78883 -15.95194,-35.49313 -40.41258,-35.83947 -17.25267,0 -199.2484,0 -199.2484,0 z"
       id="path3796"
       inkscape:connector-curvature="0"
       sodipodi:nodetypes="cccccccccccccc" />
  </g>
  <g
     transform="matrix(1.1829655,0,-0.40221745,1.0972558,138.1652,5.2171757)"
     id="g3003"
     style="stroke-width:13.89515972;stroke-miterlimit:4;stroke-dasharray:none">
    <path
       style="fill:url(#radialGradient3016);fill-opacity:1;fill-rule:evenodd;stroke:#dfdfdf;stroke-width:13.89515972;stroke-miterlimit:4;stroke-opacity:1;stroke-dasharray:none"
       d="m 436.56973,263.12075 -57.98291,39.42956 0.42968,-0.72126 c 0,0 -181.27492,0 -205.81451,0 -20.67131,0.22801 -32.10848,8.68816 -32.10848,31.91464 0.52849,30.79088 0.87376,289.37786 0.89693,304.41515 0,25.14081 11.33362,33.19549 35.30221,33.19549 7.48357,0 446.31836,0 468.18151,0 31.42868,0.17771 43.22537,-7.32124 43.22537,-32.68599 0,-19.72075 0,-300.09607 0,-300.09607 l 0.14492,0 c 0,0 0,-25.15051 0,-37.72576 1.54061,-31.35666 -16.79152,-37.36119 -42.53956,-37.72576 -18.16071,0 -209.73516,0 -209.73516,0 z"
       id="path3005"
       inkscape:connector-curvature="0"
       sodipodi:nodetypes="cccccccccccccc" />
    <path
       sodipodi:nodetypes="cccccccccccccc"
       inkscape:connector-curvature="0"
       id="path3007"
       d="m 443.49195,279.32667 -55.08376,37.45808 0.40819,-0.6852 c 0,0 -172.21117,0 -195.52378,0 -19.63775,0.21661 -30.50306,8.25375 -30.50306,30.31891 0.50207,29.25134 0.83007,274.90897 0.85208,289.19439 0,23.88377 10.76694,31.53572 33.5371,31.53572 7.1094,0 424.00245,0 444.77244,0 29.85724,0.16882 41.0641,-6.95518 41.0641,-31.05169 0,-18.73472 0,-285.09127 0,-285.09127 l 0.13767,0 c 0,0 0,-23.89298 0,-35.83947 1.46358,-29.78883 -15.95194,-35.49313 -40.41258,-35.83947 -17.25267,0 -199.2484,0 -199.2484,0 z"
       style="fill:url(#radialGradient3018);fill-opacity:1;fill-rule:evenodd;stroke:none" />
  </g>
</svg>
