<?xml version="1.0" encoding="UTF-8" standalone="no"?>
<!-- Created with Inkscape (http://www.inkscape.org/) -->

<svg
   xmlns:dc="http://purl.org/dc/elements/1.1/"
   xmlns:cc="http://creativecommons.org/ns#"
   xmlns:rdf="http://www.w3.org/1999/02/22-rdf-syntax-ns#"
   xmlns:svg="http://www.w3.org/2000/svg"
   xmlns="http://www.w3.org/2000/svg"
   xmlns:xlink="http://www.w3.org/1999/xlink"
   xmlns:sodipodi="http://sodipodi.sourceforge.net/DTD/sodipodi-0.dtd"
   xmlns:inkscape="http://www.inkscape.org/namespaces/inkscape"
   id="svg2"
   version="1.1"
   inkscape:version="0.48.3.1 r9886"
   width="864"
   height="864"
   sodipodi:docname="recent_menu_filebrowser.svg"
   inkscape:export-filename="D:\DocData\Doc3\Dropbox\Grafica\drawable-hdpi\OPDS.png"
   inkscape:export-xdpi="5"
   inkscape:export-ydpi="5">
  <metadata
     id="metadata8">
    <rdf:RDF>
      <cc:Work
         rdf:about="">
        <dc:format>image/svg+xml</dc:format>
        <dc:type
           rdf:resource="http://purl.org/dc/dcmitype/StillImage" />
        <dc:title />
      </cc:Work>
    </rdf:RDF>
  </metadata>
  <defs
     id="defs6">
    <linearGradient
       inkscape:collect="always"
       id="linearGradient3837">
      <stop
         style="stop-color:#d7d7d7;stop-opacity:1;"
         offset="0"
         id="stop3839" />
      <stop
         style="stop-color:#d7d7d7;stop-opacity:0;"
         offset="1"
         id="stop3841" />
    </linearGradient>
    <linearGradient
       inkscape:collect="always"
       id="linearGradient3815">
      <stop
         style="stop-color:#c3c3c3;stop-opacity:0.88770056"
         offset="0"
         id="stop3817" />
      <stop
         style="stop-color:#e2e2e2;stop-opacity:0;"
         offset="1"
         id="stop3819" />
    </linearGradient>
    <linearGradient
       inkscape:collect="always"
       id="linearGradient3757">
      <stop
         style="stop-color:#e5e5e5;stop-opacity:1;"
         offset="0"
         id="stop3759" />
      <stop
         style="stop-color:#e5e5e5;stop-opacity:0;"
         offset="1"
         id="stop3761" />
    </linearGradient>
    <linearGradient
       inkscape:collect="always"
       xlink:href="#linearGradient3757"
       id="linearGradient3763"
       x1="20.530037"
       y1="35.872807"
       x2="841.94348"
       y2="847.97174"
       gradientUnits="userSpaceOnUse" />
    <linearGradient
       inkscape:collect="always"
       xlink:href="#linearGradient3757"
       id="linearGradient3767"
       gradientUnits="userSpaceOnUse"
       x1="20.530037"
       y1="35.872807"
       x2="841.94348"
       y2="847.97174"
       gradientTransform="matrix(0.96674391,0,0,0.96090293,16.079766,17.425498)" />
    <linearGradient
       inkscape:collect="always"
       xlink:href="#linearGradient3757"
       id="linearGradient3770"
       gradientUnits="userSpaceOnUse"
       x1="20.530037"
       y1="35.872807"
       x2="841.94348"
       y2="847.97174"
       gradientTransform="matrix(0.95026745,0,0,0.92912484,3.8916148,10.167317)" />
    <radialGradient
       inkscape:collect="always"
       xlink:href="#linearGradient3796"
       id="radialGradient3802"
       cx="309.99777"
       cy="416.2869"
       fx="309.99777"
       fy="416.2869"
       r="107.15402"
       gradientTransform="matrix(1.8689592,1.4894632,-1.8667205,2.3423366,-8182.0767,-537.14583)"
       gradientUnits="userSpaceOnUse" />
    <linearGradient
       inkscape:collect="always"
       id="linearGradient3796">
      <stop
         style="stop-color:#e0e0e0;stop-opacity:1;"
         offset="0"
         id="stop3798" />
      <stop
         style="stop-color:#e0e0e0;stop-opacity:0;"
         offset="1"
         id="stop3800" />
    </linearGradient>
    <linearGradient
       inkscape:collect="always"
       xlink:href="#linearGradient3815"
       id="linearGradient3821"
       x1="-167.60034"
       y1="-322.45142"
       x2="938.29193"
       y2="962.0343"
       gradientUnits="userSpaceOnUse" />
    <linearGradient
       inkscape:collect="always"
       xlink:href="#linearGradient3815"
       id="linearGradient3829"
       gradientUnits="userSpaceOnUse"
       x1="-167.60034"
       y1="-322.45142"
       x2="938.29193"
       y2="962.0343" />
    <linearGradient
       inkscape:collect="always"
       xlink:href="#linearGradient3837"
       id="linearGradient3843"
       x1="-22.750509"
       y1="805.06891"
       x2="867.4079"
       y2="92.172035"
       gradientUnits="userSpaceOnUse" />
    <filter
       inkscape:collect="always"
       id="filter3849">
      <feGaussianBlur
         inkscape:collect="always"
         stdDeviation="9.6989236"
         id="feGaussianBlur3851" />
    </filter>
    <radialGradient
       r="273.92063"
       fy="561.68958"
       fx="459.95166"
       cy="561.68958"
       cx="459.95166"
       gradientTransform="matrix(0.82455839,-1.3081584,2.0281543,1.2783863,-994.4033,414.40496)"
       gradientUnits="userSpaceOnUse"
       id="radialGradient3022"
       xlink:href="#linearGradient3788"
       inkscape:collect="always" />
    <radialGradient
       r="273.92063"
       fy="561.68958"
       fx="459.95166"
       cy="561.68958"
       cx="459.95166"
       gradientTransform="matrix(0.8679562,-1.3770088,2.1348993,1.3456698,-1077.0042,405.30843)"
       gradientUnits="userSpaceOnUse"
       id="radialGradient3020"
       xlink:href="#linearGradient3788"
       inkscape:collect="always" />
    <radialGradient
       r="273.92063"
       fy="561.68958"
       fx="459.95166"
       cy="561.68958"
       cx="459.95166"
       gradientTransform="matrix(0.82455839,-1.3081584,2.0281543,1.2783863,-994.4033,414.40496)"
       gradientUnits="userSpaceOnUse"
       id="radialGradient3018"
       xlink:href="#linearGradient3788"
       inkscape:collect="always" />
    <radialGradient
       r="273.92063"
       fy="561.68958"
       fx="459.95166"
       cy="561.68958"
       cx="459.95166"
       gradientTransform="matrix(0.8679562,-1.3770088,2.1348993,1.3456698,-1077.0042,405.30843)"
       gradientUnits="userSpaceOnUse"
       id="radialGradient3016"
       xlink:href="#linearGradient3788"
       inkscape:collect="always" />
    <radialGradient
       r="273.92063"
       fy="561.68958"
       fx="459.95166"
       cy="561.68958"
       cx="459.95166"
       gradientTransform="matrix(0.82455839,-1.3081584,2.0281543,1.2783863,-994.4033,414.40496)"
       gradientUnits="userSpaceOnUse"
       id="radialGradient3011"
       xlink:href="#linearGradient3788"
       inkscape:collect="always" />
    <radialGradient
       r="273.92063"
       fy="561.68958"
       fx="459.95166"
       cy="561.68958"
       cx="459.95166"
       gradientTransform="matrix(0.8679562,-1.3770088,2.1348993,1.3456698,-1077.0042,405.30843)"
       gradientUnits="userSpaceOnUse"
       id="radialGradient3009"
       xlink:href="#linearGradient3788"
       inkscape:collect="always" />
    <radialGradient
       r="273.92063"
       fy="561.68958"
       fx="459.95166"
       cy="561.68958"
       cx="459.95166"
       gradientTransform="matrix(0.82455839,-1.3081584,2.0281543,1.2783863,-994.4033,414.40496)"
       gradientUnits="userSpaceOnUse"
       id="radialGradient3774"
       xlink:href="#linearGradient3788"
       inkscape:collect="always" />
    <radialGradient
       r="273.92063"
       fy="561.68958"
       fx="459.95166"
       cy="561.68958"
       cx="459.95166"
       gradientTransform="matrix(0.8679562,-1.3770088,2.1348993,1.3456698,-1077.0042,405.30843)"
       gradientUnits="userSpaceOnUse"
       id="radialGradient3772"
       xlink:href="#linearGradient3788"
       inkscape:collect="always" />
    <radialGradient
       r="273.92063"
       fy="561.68958"
       fx="459.95166"
       cy="561.68958"
       cx="459.95166"
       gradientTransform="matrix(0.82455839,-1.3081584,2.0281543,1.2783863,-994.4033,414.40496)"
       gradientUnits="userSpaceOnUse"
       id="radialGradient3798"
       xlink:href="#linearGradient3788"
       inkscape:collect="always" />
    <radialGradient
       gradientUnits="userSpaceOnUse"
       gradientTransform="matrix(0.8679562,-1.3770088,2.1348993,1.3456698,-1077.0042,405.30843)"
       r="273.92063"
       fy="561.68958"
       fx="459.95166"
       cy="561.68958"
       cx="459.95166"
       id="radialGradient3794"
       xlink:href="#linearGradient3788"
       inkscape:collect="always" />
    <linearGradient
       gradientUnits="userSpaceOnUse"
       y2="423.61337"
       x2="805.3064"
       y1="423.61337"
       x1="22.052872"
       id="linearGradient3807"
       xlink:href="#linearGradient3757-0"
       inkscape:collect="always" />
    <linearGradient
       gradientTransform="matrix(0.95026745,0,0,0.92912484,3.8916148,10.167317)"
       y2="847.97174"
       x2="841.94348"
       y1="35.872807"
       x1="20.530037"
       gradientUnits="userSpaceOnUse"
       id="linearGradient3770-2"
       xlink:href="#linearGradient3757-0"
       inkscape:collect="always" />
    <linearGradient
       gradientTransform="matrix(0.96674391,0,0,0.96090293,16.079766,17.425498)"
       y2="847.97174"
       x2="841.94348"
       y1="35.872807"
       x1="20.530037"
       gradientUnits="userSpaceOnUse"
       id="linearGradient3767-8"
       xlink:href="#linearGradient3757-0"
       inkscape:collect="always" />
    <linearGradient
       gradientUnits="userSpaceOnUse"
       y2="847.97174"
       x2="841.94348"
       y1="35.872807"
       x1="20.530037"
       id="linearGradient3763-8"
       xlink:href="#linearGradient3757-0"
       inkscape:collect="always" />
    <linearGradient
       id="linearGradient3757-0"
       inkscape:collect="always">
      <stop
         id="stop3759-9"
         offset="0"
         style="stop-color:#e5e5e5;stop-opacity:1;" />
      <stop
         id="stop3761-4"
         offset="1"
         style="stop-color:#e5e5e5;stop-opacity:0;" />
    </linearGradient>
    <linearGradient
       id="linearGradient3788"
       inkscape:collect="always">
      <stop
         id="stop3790"
         offset="0"
         style="stop-color:#ededed;stop-opacity:1;" />
      <stop
         id="stop3792"
         offset="1"
         style="stop-color:#ededed;stop-opacity:0;" />
    </linearGradient>
    <radialGradient
       inkscape:collect="always"
       xlink:href="#linearGradient3788-0"
       id="radialGradient3876"
       gradientUnits="userSpaceOnUse"
       gradientTransform="matrix(-1.0608001,-1.3604589,-2.1242785,2.1967949,1904.6985,-19.307112)"
       cx="459.95166"
       cy="561.68958"
       fx="459.95166"
       fy="561.68958"
       r="273.92062" />
    <linearGradient
       id="linearGradient3788-0"
       inkscape:collect="always">
      <stop
         id="stop3790-9"
         offset="0"
         style="stop-color:#ededed;stop-opacity:1;" />
      <stop
         id="stop3792-4"
         offset="1"
         style="stop-color:#ededed;stop-opacity:0;" />
    </linearGradient>
    <radialGradient
       inkscape:collect="always"
       xlink:href="#linearGradient3788-0"
       id="radialGradient3861"
       gradientUnits="userSpaceOnUse"
       gradientTransform="matrix(-1.0608001,-1.3604589,-2.1242785,2.1967949,1904.6985,-19.307112)"
       cx="459.95166"
       cy="561.68958"
       fx="459.95166"
       fy="561.68958"
       r="273.92062" />
    <radialGradient
       inkscape:collect="always"
       xlink:href="#linearGradient3840"
       id="radialGradient3869"
       gradientUnits="userSpaceOnUse"
       gradientTransform="matrix(-0.63818623,0.43010245,0.24939928,0.38880579,428.68506,10.364057)"
       cx="684.5979"
       cy="650.38306"
       fx="684.5979"
       fy="650.38306"
       r="309.94327" />
    <linearGradient
       id="linearGradient3840">
      <stop
         id="stop3842"
         offset="0"
         style="stop-color:#c8c8c8;stop-opacity:1;" />
      <stop
         id="stop3844"
         offset="1"
         style="stop-color:#c8c8c8;stop-opacity:0;" />
    </linearGradient>
    <radialGradient
       inkscape:collect="always"
       xlink:href="#linearGradient3840"
       id="radialGradient3858"
       gradientUnits="userSpaceOnUse"
       gradientTransform="matrix(-1.4126579,-0.14872264,-0.39161766,1.5502511,1011.5947,-438.49607)"
       cx="147.41173"
       cy="658.6402"
       fx="147.41173"
       fy="658.6402"
       r="309.94327" />
    <linearGradient
       id="linearGradient3130">
      <stop
         id="stop3132"
         offset="0"
         style="stop-color:#c8c8c8;stop-opacity:1;" />
      <stop
         id="stop3134"
         offset="1"
         style="stop-color:#c8c8c8;stop-opacity:0;" />
    </linearGradient>
    <radialGradient
       inkscape:collect="always"
       xlink:href="#linearGradient3854"
       id="radialGradient3863"
       cx="88.12397"
       cy="672.66003"
       fx="88.12397"
       fy="672.66003"
       r="292.69217"
       gradientTransform="matrix(0.94673051,0.32202693,-0.28260705,0.83083957,194.79279,75.347471)"
       gradientUnits="userSpaceOnUse" />
    <linearGradient
       inkscape:collect="always"
       id="linearGradient3854">
      <stop
         style="stop-color:#a9a9a9;stop-opacity:1;"
         offset="0"
         id="stop3856" />
      <stop
         style="stop-color:#a9a9a9;stop-opacity:0;"
         offset="1"
         id="stop3858" />
    </linearGradient>
    <radialGradient
       inkscape:collect="always"
       xlink:href="#linearGradient3788-0"
       id="radialGradient3091"
       gradientUnits="userSpaceOnUse"
       gradientTransform="matrix(1.4399358,-1.4729887,1.8076507,0.71946667,-1150.1222,876.5608)"
       cx="459.95166"
       cy="561.68958"
       fx="459.95166"
       fy="561.68958"
       r="273.92062" />
    <filter
       color-interpolation-filters="sRGB"
       inkscape:collect="always"
       id="filter3857">
      <feGaussianBlur
         inkscape:collect="always"
         stdDeviation="7.7595429"
         id="feGaussianBlur3859" />
    </filter>
    <linearGradient
       inkscape:collect="always"
       xlink:href="#linearGradient3863"
       id="linearGradient3873"
       x1="68.169952"
       y1="571.75531"
       x2="802.21063"
       y2="571.75531"
       gradientUnits="userSpaceOnUse" />
    <linearGradient
       inkscape:collect="always"
       id="linearGradient3863">
      <stop
         style="stop-color:#f3f3f3;stop-opacity:1;"
         offset="0"
         id="stop3865" />
      <stop
         style="stop-color:#f3f3f3;stop-opacity:0;"
         offset="1"
         id="stop3867" />
    </linearGradient>
    <radialGradient
       inkscape:collect="always"
       xlink:href="#linearGradient3788-0"
       id="radialGradient3086"
       gradientUnits="userSpaceOnUse"
       gradientTransform="matrix(1.4399358,-1.4729887,1.8076507,0.71946667,-1150.1222,874.5608)"
       cx="459.95166"
       cy="561.68958"
       fx="459.95166"
       fy="561.68958"
       r="273.92062" />
    <radialGradient
       inkscape:collect="always"
       xlink:href="#linearGradient3788-0"
       id="radialGradient3892"
       gradientUnits="userSpaceOnUse"
       gradientTransform="matrix(1.3679391,-1.3993393,1.7172682,0.68349334,-1076.4384,840.97102)"
       cx="459.95166"
       cy="561.68958"
       fx="459.95166"
       fy="561.68958"
       r="273.92062" />
    <linearGradient
       inkscape:collect="always"
       xlink:href="#linearGradient3830"
       id="linearGradient3894"
       gradientUnits="userSpaceOnUse"
       gradientTransform="matrix(0.91099475,-0.20402883,0,0.76144902,21.183191,244.93498)"
       x1="200.55962"
       y1="593.72021"
       x2="944.17249"
       y2="323.85043" />
    <linearGradient
       id="linearGradient3830"
       inkscape:collect="always">
      <stop
         id="stop3832"
         offset="0"
         style="stop-color:#c8c8c8;stop-opacity:1;" />
      <stop
         id="stop3834"
         offset="1"
         style="stop-color:#c8c8c8;stop-opacity:0;" />
    </linearGradient>
    <linearGradient
       inkscape:collect="always"
       xlink:href="#linearGradient3830"
       id="linearGradient3896"
       gradientUnits="userSpaceOnUse"
       gradientTransform="matrix(0.91099475,-0.20402883,0,0.76144902,21.183191,244.93498)"
       x1="147.05342"
       y1="802.46454"
       x2="422.08167"
       y2="416.73761" />
  </defs>
  <sodipodi:namedview
     pagecolor="#ffffff"
     bordercolor="#666666"
     borderopacity="1"
     objecttolerance="10"
     gridtolerance="10"
     guidetolerance="10"
     inkscape:pageopacity="0"
     inkscape:pageshadow="2"
     inkscape:window-width="931"
     inkscape:window-height="947"
     id="namedview4"
     showgrid="false"
     fit-margin-top="0"
     fit-margin-left="0"
     fit-margin-right="0"
     fit-margin-bottom="0"
     inkscape:zoom="0.73002227"
     inkscape:cx="537.45255"
     inkscape:cy="354.46377"
     inkscape:window-x="1538"
     inkscape:window-y="25"
     inkscape:window-maximized="0"
     inkscape:current-layer="svg2" />
  <path
     sodipodi:nodetypes="ssssssssssssssssss"
     inkscape:connector-curvature="0"
     id="path3003"
     d="M 135.93088,42.377426 C 72.788787,42.567287 31.009207,94.438346 31.009207,161.26746 l 0,528.97514 c 0,66.82912 40.421164,118.04896 101.405013,118.04896 l 570.87073,0 c 69.61909,0 111.9554,-51.21984 111.9554,-118.04896 l 0,-528.97514 c 0,-62.511515 -67.52599,-120.729601 -119.868,-120.572214 z m 0.42081,34.47863 560.59336,-2.15879 c 35.32102,-0.136018 85.125,28.432014 85.3557,85.236304 l 2.1588,531.64294 c 0.2307,56.80431 -47.8759,87.53269 -83.1969,87.39508 l -554.11696,-2.1588 C 111.82465,776.67519 66.33095,763.49245 66.107547,706.68811 L 63.948757,157.77477 C 63.725355,100.97045 101.03065,76.992074 136.35169,76.856056 z"
     style="fill:#000000;fill-opacity:1;fill-rule:evenodd;stroke:#cfcfcf;stroke-width:0;stroke-linecap:butt;stroke-linejoin:miter;stroke-miterlimit:4;stroke-opacity:1;stroke-dasharray:none;stroke-dashoffset:0;filter:url(#filter3849)"
     transform="matrix(1.0313224,0,0,1.0313224,-4.3005071,-4.603888)" />
  <path
     style="opacity:0.90999995000000000;fill:#000000;fill-opacity:1;fill-rule:evenodd;stroke:none"
     d="m 142.37286,41.724921 c -42.31805,0 -113.497291,54.257154 -113.497291,121.705419 l 0,533.87127 c 0,67.44833 60.380904,121.38987 102.697731,121.70544 l 588.38232,4.38773 c 42.31683,0.31557 107.46177,-58.64484 107.48312,-126.09317 l 0.16627,-525.10725 C 827.62637,104.74609 756.09321,41.724921 713.77518,41.724921 z"
     id="rect3010"
     inkscape:connector-curvature="0"
     sodipodi:nodetypes="sssssssss" />
  <path
     style="fill:#ffffff;fill-opacity:1;fill-rule:evenodd;stroke:#cfcfcf;stroke-width:0;stroke-linecap:butt;stroke-linejoin:miter;stroke-miterlimit:4;stroke-opacity:1;stroke-dasharray:none;stroke-dashoffset:0"
     d="M 133.88805,37.100901 C 68.768199,37.296709 25.679983,90.792494 25.679983,159.71486 l 0,545.54391 c 0,68.92237 41.687252,121.74653 104.581257,121.74653 l 588.75178,0 c 71.79972,0 115.46211,-52.82416 115.46211,-121.74653 l 0,-545.54391 c 0,-64.46953 -69.64107,-124.511146 -123.62256,-124.348829 z m 0.434,35.558583 578.15248,-2.226408 c 36.42736,-0.140279 87.79132,29.322573 88.02925,87.906114 l 2.22642,548.29527 c 0.23792,58.58356 -49.37549,90.27442 -85.80283,90.1325 L 145.45414,794.54054 C 109.02676,794.39863 62.108087,780.80298 61.877687,722.21939 L 59.651278,156.11277 C 59.420879,97.529199 97.894665,72.799763 134.32205,72.659484 z"
     id="path3831"
     inkscape:connector-curvature="0"
     sodipodi:nodetypes="ssssssssssssssssss" />
  <path
     sodipodi:nodetypes="ssssssssssssssssss"
     inkscape:connector-curvature="0"
     id="path3797"
     d="M 133.88805,37.100901 C 68.768199,37.296709 25.679983,90.792494 25.679983,159.71486 l 0,545.54391 c 0,68.92237 41.687252,121.74653 104.581257,121.74653 l 588.75178,0 c 71.79972,0 115.46211,-52.82416 115.46211,-121.74653 l 0,-545.54391 c 0,-64.46953 -69.64107,-124.511146 -123.62256,-124.348829 z m 0.434,35.558583 578.15248,-2.226408 c 36.42736,-0.140279 87.79132,29.322573 88.02925,87.906114 l 2.22642,548.29527 c 0.23792,58.58356 -49.37549,90.27442 -85.80283,90.1325 L 145.45414,794.54054 C 109.02676,794.39863 62.108087,780.80298 61.877687,722.21939 L 59.651278,156.11277 C 59.420879,97.529199 97.894665,72.799763 134.32205,72.659484 z"
     style="fill:url(#linearGradient3843);fill-opacity:1;fill-rule:evenodd;stroke:#cfcfcf;stroke-width:0;stroke-linecap:butt;stroke-linejoin:miter;stroke-miterlimit:4;stroke-opacity:1;stroke-dasharray:none;stroke-dashoffset:0" />
  <g
     transform="matrix(0.75918912,0,0,0.81828881,125.81864,12.70658)"
     id="g3086">
    <g
       transform="translate(8,24)"
       id="g3873">
      <path
         style="fill:url(#radialGradient3876);fill-opacity:1;fill-rule:evenodd;stroke:#b9b9b9;stroke-width:14.42179775;stroke-miterlimit:4;stroke-opacity:1;stroke-dasharray:none"
         d="m 286.32464,254.20923 65.47983,29.32365 -0.52921,-0.71985 c 0,0 192.08142,-52.70334 218.08391,-59.83791 21.92697,-5.74285 34.91286,0.84079 37.29287,28.04454 2.59514,36.21713 28.72662,339.18459 30.24293,356.80358 2.57617,29.4459 -8.60773,42.17495 -34.00518,49.14351 C 594.9601,659.1425 129.96468,786.72805 106.79818,793.08447 73.514127,802.4301 60.245769,797.07677 57.64665,767.3686 55.62587,744.27089 26.895893,415.88446 26.895893,415.88446 l -0.153551,0.0421 c 0,0 -2.577165,-29.45724 -3.865748,-44.18587 C 18.031035,335.46247 36.840725,323.09991 64.08635,315.18699 83.329694,309.907 286.32464,254.2092 286.32464,254.2092 z"
         id="path3871"
         inkscape:connector-curvature="0"
         sodipodi:nodetypes="cccccccccccccc" />
      <path
         sodipodi:nodetypes="cccccccccccccc"
         inkscape:connector-curvature="0"
         id="rect2993-1"
         d="m 286.32464,254.20923 65.47983,29.32365 -0.52921,-0.71985 c 0,0 192.08142,-52.70334 218.08391,-59.83791 21.92697,-5.74285 34.91286,0.84079 37.29287,28.04454 2.59514,36.21713 28.72662,339.18459 30.24293,356.80358 2.57617,29.4459 -8.60773,42.17495 -34.00518,49.14351 C 594.9601,659.1425 129.96468,786.72805 106.79818,793.08447 73.514127,802.4301 60.245769,797.07677 57.64665,767.3686 55.62587,744.27089 26.895893,415.88446 26.895893,415.88446 l -0.153551,0.0421 c 0,0 -2.577165,-29.45724 -3.865748,-44.18587 C 18.031035,335.46247 36.840725,323.09991 64.08635,315.18699 83.329694,309.907 286.32464,254.2092 286.32464,254.2092 z"
         style="fill:url(#radialGradient3861);fill-opacity:1;fill-rule:evenodd;stroke:#b9b9b9;stroke-width:14.42179775;stroke-miterlimit:4;stroke-opacity:1;stroke-dasharray:none" />
      <path
         style="fill:url(#radialGradient3869);fill-opacity:1;fill-rule:evenodd;stroke:none"
         d="m 290.65037,271.20279 62.20583,27.85745 -0.50273,-0.68385 c 0,0 182.47734,-50.06817 207.1797,-56.84601 20.83063,-5.45572 33.16723,0.79874 35.42824,26.64231 2.46537,34.40627 27.29028,322.22536 28.73078,338.96339 2.44737,27.9736 -8.17734,40.06621 -32.30491,46.68634 C 583.85406,655.88938 142.1084,777.09565 120.10024,783.13426 88.480386,792.0126 75.875447,786.92694 73.406284,758.70417 71.486543,736.76134 44.193066,424.79424 44.193066,424.79424 l -0.145874,0.04 c 0,0 -2.448307,-27.98438 -3.672461,-41.97658 -4.60328,-34.46432 13.265929,-46.20874 39.149269,-53.72601 18.281172,-5.01599 211.12637,-57.92889 211.12637,-57.92889 z"
         id="path3867"
         inkscape:connector-curvature="0"
         sodipodi:nodetypes="cccccccccccccc" />
      <path
         sodipodi:nodetypes="cccccccccccccc"
         inkscape:connector-curvature="0"
         id="path3838"
         d="m 290.65037,271.20279 62.20583,27.85745 -0.50273,-0.68385 c 0,0 182.47734,-50.06817 207.1797,-56.84601 20.83063,-5.45572 33.16723,0.79874 35.42824,26.64231 2.46537,34.40627 27.29028,322.22536 28.73078,338.96339 2.44737,27.9736 -8.17734,40.06621 -32.30491,46.68634 C 583.85406,655.88938 142.1084,777.09565 120.10024,783.13426 88.480386,792.0126 75.875447,786.92694 73.406284,758.70417 71.486543,736.76134 44.193066,424.79424 44.193066,424.79424 l -0.145874,0.04 c 0,0 -2.448307,-27.98438 -3.672461,-41.97658 -4.60328,-34.46432 13.265929,-46.20874 39.149269,-53.72601 18.281172,-5.01599 211.12637,-57.92889 211.12637,-57.92889 z"
         style="fill:url(#radialGradient3858);fill-opacity:1;fill-rule:evenodd;stroke:none" />
      <path
         style="fill:url(#radialGradient3863);fill-opacity:1;fill-rule:evenodd;stroke:#888888;stroke-opacity:1"
         d="m 290.65037,271.20279 62.20583,27.85745 -0.50273,-0.68385 c 0,0 182.47734,-50.06817 207.1797,-56.84601 20.83063,-5.45572 33.16723,0.79874 35.42824,26.64231 2.46537,34.40627 27.29028,322.22536 28.73078,338.96339 2.44737,27.9736 -8.17734,40.06621 -32.30491,46.68634 C 583.85406,655.88938 142.1084,777.09565 120.10024,783.13426 88.480386,792.0126 75.875447,786.92694 73.406284,758.70417 71.486543,736.76134 44.193066,424.79424 44.193066,424.79424 l -0.145874,0.04 c 0,0 -2.448307,-27.98438 -3.672461,-41.97658 -4.60328,-34.46432 13.265929,-46.20874 39.149269,-53.72601 18.281172,-5.01599 211.12637,-57.92889 211.12637,-57.92889 z"
         id="path3843"
         inkscape:connector-curvature="0"
         sodipodi:nodetypes="cccccccccccccc" />
    </g>
    <g
       id="g3875">
      <path
         style="fill:url(#radialGradient3091);fill-opacity:1;fill-rule:evenodd;stroke:#b9b9b9;stroke-width:13.18505287;stroke-miterlimit:4;stroke-opacity:1;stroke-dasharray:none"
         d="m 533.11923,380.77911 -76.93446,50.17402 0.72734,-0.76552 c 0,0 -195.35551,43.75235 -221.80122,49.6752 -22.36051,5.19843 -37.78602,15.72166 -46.29662,37.03354 -10.71279,28.12518 -105.091621,265.31306 -110.576585,279.1052 -9.212045,23.06841 0.05054,27.72367 25.880895,21.93863 8.06486,-1.80623 480.9863,-107.72298 504.54768,-112.99985 33.8048,-7.42254 49.26555,-17.15057 58.55965,-40.42446 7.22604,-18.09514 109.9606,-275.35865 109.9606,-275.35865 l 0.15617,-0.035 c 0,0 9.21561,-23.07731 13.8234,-34.61596 13.14993,-29.14372 -4.40599,-30.22866 -32.02044,-24.34866 -19.57134,4.38325 -226.02641,50.62149 -226.02641,50.62149 z"
         id="path3005-2"
         inkscape:connector-curvature="0"
         sodipodi:nodetypes="cccccccccccccc" />
      <path
         style="fill:none;stroke:#ffffff;stroke-width:13.18505287;stroke-miterlimit:4;stroke-opacity:1;stroke-dasharray:none;filter:url(#filter3857)"
         d="m 625.65625,348.0625 -92.53125,20.71875 -76.9375,50.1875 0.71875,-0.78125 L 235.125,467.875 c -22.36051,5.19843 -37.8019,15.71937 -46.3125,37.03125 C 178.09971,533.03143 83.734964,770.20786 78.25,784 c -2.57721,6.45374 -3.710503,11.47277 -3.4375,15.21875 2.63865,4.55531 6.271675,7.45077 11.15625,8.90625 4.64785,0.25978 10.706152,-0.51895 18.15625,-2.1875 l 63.1875,-14.15625 447.5625,-122.8125 c 25.39745,-6.96856 36.60742,-19.71035 34.03125,-49.15625 -1.0837,-12.59222 -14.5981,-169.20037 -23.25,-271.75 z"
         id="path3057"
         inkscape:connector-curvature="0" />
      <path
         inkscape:connector-curvature="0"
         id="path3874"
         d="m 621.65625,352.0625 -92.53125,20.71875 -76.9375,50.1875 0.71875,-0.78125 L 231.125,471.875 c -22.36051,5.19843 -37.8019,15.71937 -46.3125,37.03125 C 174.09971,537.03143 79.734964,774.20786 74.25,788 c -2.57721,6.45374 -3.710503,11.47277 -3.4375,15.21875 2.63865,4.55531 6.271675,7.45077 11.15625,8.90625 4.64785,0.25978 10.706152,-0.51895 18.15625,-2.1875 l 63.1875,-14.15625 447.5625,-122.8125 c 25.39745,-6.96856 36.60742,-19.71035 34.03125,-49.15625 -1.0837,-12.59222 -14.5981,-169.20037 -23.25,-271.75 z"
         style="fill:none;stroke:#888888;stroke-width:13.18505287;stroke-miterlimit:4;stroke-opacity:1;stroke-dasharray:none" />
      <path
         style="fill:url(#linearGradient3873);fill-opacity:1;fill-rule:evenodd;stroke:#b9b9b9;stroke-width:13.18505287;stroke-miterlimit:4;stroke-opacity:1;stroke-dasharray:none"
         d="m 533.11923,378.77911 -76.93446,50.17402 0.72734,-0.76552 c 0,0 -195.35551,43.75235 -221.80122,49.6752 -22.36051,5.19843 -37.78602,15.72166 -46.29662,37.03354 -10.71279,28.12518 -105.091621,265.31306 -110.576585,279.1052 -9.212045,23.06841 0.05054,27.72367 25.880895,21.93863 8.06486,-1.80623 480.9863,-107.72298 504.54768,-112.99985 33.8048,-7.42254 49.26555,-17.15057 58.55965,-40.42446 7.22604,-18.09514 109.9606,-275.35865 109.9606,-275.35865 l 0.15617,-0.035 c 0,0 9.21561,-23.07731 13.8234,-34.61596 13.14993,-29.14372 -4.40599,-30.22866 -32.02044,-24.34866 -19.57134,4.38325 -226.02641,50.62149 -226.02641,50.62149 z"
         id="path3093"
         inkscape:connector-curvature="0"
         sodipodi:nodetypes="cccccccccccccc" />
      <path
         sodipodi:nodetypes="cccccccccccccc"
         inkscape:connector-curvature="0"
         id="path3873"
         d="m 533.11923,378.77911 -76.93446,50.17402 0.72734,-0.76552 c 0,0 -195.35551,43.75235 -221.80122,49.6752 -22.36051,5.19843 -37.78602,15.72166 -46.29662,37.03354 -10.71279,28.12518 -105.091621,265.31306 -110.576585,279.1052 -9.212045,23.06841 0.05054,27.72367 25.880895,21.93863 8.06486,-1.80623 480.9863,-107.72298 504.54768,-112.99985 33.8048,-7.42254 49.26555,-17.15057 58.55965,-40.42446 7.22604,-18.09514 109.9606,-275.35865 109.9606,-275.35865 l 0.15617,-0.035 c 0,0 9.21561,-23.07731 13.8234,-34.61596 13.14993,-29.14372 -4.40599,-30.22866 -32.02044,-24.34866 -19.57134,4.38325 -226.02641,50.62149 -226.02641,50.62149 z"
         style="fill:url(#radialGradient3086);fill-opacity:1;fill-rule:evenodd;stroke:#b9b9b9;stroke-width:13.18505287;stroke-miterlimit:4;stroke-opacity:1;stroke-dasharray:none" />
      <g
         id="g3861"
         transform="matrix(0.95662473,0,0,0.91765435,27.302908,67.977353)">
        <path
           style="fill:url(#radialGradient3892);fill-opacity:1;fill-rule:evenodd;stroke:none"
           d="m 522.641,369.9784 -73.08774,47.66532 0.69098,-0.72724 c 0,0 -185.58774,41.56473 -210.71117,47.19144 -21.24248,4.9385 -35.89672,14.93557 -43.98179,35.18186 -10.17715,26.71892 -99.83704,252.04741 -105.047755,265.14995 -8.751443,21.91499 0.04801,26.33747 24.586855,20.84169 7.66162,-1.71592 456.93699,-102.33684 479.3203,-107.34986 32.11455,-7.05141 46.80227,-16.29305 55.63166,-38.40323 6.86474,-17.19039 104.46257,-261.59072 104.46257,-261.59072 l 0.14837,-0.0332 c 0,0 8.75481,-21.92344 13.13222,-32.88516 12.49243,-27.68654 -4.18569,-28.71723 -30.41941,-23.13123 C 718.77331,326.05208 522.641,369.9784 522.641,369.9784 z"
           id="path3007-3"
           inkscape:connector-curvature="0"
           sodipodi:nodetypes="cccccccccccccc" />
        <path
           sodipodi:nodetypes="cccccccccccccc"
           inkscape:connector-curvature="0"
           id="path3806"
           d="m 522.641,369.9784 -73.08774,47.66532 0.69098,-0.72724 c 0,0 -185.58774,41.56473 -210.71117,47.19144 -21.24248,4.9385 -35.89672,14.93557 -43.98179,35.18186 -10.17715,26.71892 -99.83704,252.04741 -105.047755,265.14995 -8.751443,21.91499 0.04801,26.33747 24.586855,20.84169 7.66162,-1.71592 456.93699,-102.33684 479.3203,-107.34986 32.11455,-7.05141 46.80227,-16.29305 55.63166,-38.40323 6.86474,-17.19039 104.46257,-261.59072 104.46257,-261.59072 l 0.14837,-0.0332 c 0,0 8.75481,-21.92344 13.13222,-32.88516 12.49243,-27.68654 -4.18569,-28.71723 -30.41941,-23.13123 C 718.77331,326.05208 522.641,369.9784 522.641,369.9784 z"
           style="fill:url(#linearGradient3894);fill-opacity:1;fill-rule:evenodd;stroke:none" />
        <path
           style="fill:url(#linearGradient3896);fill-opacity:1;fill-rule:evenodd;stroke:#888888;stroke-opacity:1"
           d="m 522.641,369.9784 -73.08774,47.66532 0.69098,-0.72724 c 0,0 -185.58774,41.56473 -210.71117,47.19144 -21.24248,4.9385 -35.89672,14.93557 -43.98179,35.18186 -10.17715,26.71892 -99.83704,252.04741 -105.047755,265.14995 -8.751443,21.91499 0.04801,26.33747 24.586855,20.84169 7.66162,-1.71592 456.93699,-102.33684 479.3203,-107.34986 32.11455,-7.05141 46.80227,-16.29305 55.63166,-38.40323 6.86474,-17.19039 104.46257,-261.59072 104.46257,-261.59072 l 0.14837,-0.0332 c 0,0 8.75481,-21.92344 13.13222,-32.88516 12.49243,-27.68654 -4.18569,-28.71723 -30.41941,-23.13123 C 718.77331,326.05208 522.641,369.9784 522.641,369.9784 z"
           id="path3839"
           inkscape:connector-curvature="0"
           sodipodi:nodetypes="cccccccccccccc" />
      </g>
    </g>
  </g>
</svg>
