<?xml version="1.0" encoding="UTF-8" standalone="no"?>
<!-- Created with Inkscape (http://www.inkscape.org/) -->

<svg
   xmlns:dc="http://purl.org/dc/elements/1.1/"
   xmlns:cc="http://creativecommons.org/ns#"
   xmlns:rdf="http://www.w3.org/1999/02/22-rdf-syntax-ns#"
   xmlns:svg="http://www.w3.org/2000/svg"
   xmlns="http://www.w3.org/2000/svg"
   xmlns:xlink="http://www.w3.org/1999/xlink"
   xmlns:sodipodi="http://sodipodi.sourceforge.net/DTD/sodipodi-0.dtd"
   xmlns:inkscape="http://www.inkscape.org/namespaces/inkscape"
   id="svg2"
   version="1.1"
   inkscape:version="0.48.2 r9819"
   width="864"
   height="864"
   sodipodi:docname="about.svg"
   inkscape:export-filename="D:\DocData\Doc3\Dropbox\Grafica\Ebookdroid resources\about.png"
   inkscape:export-xdpi="5"
   inkscape:export-ydpi="5">
  <sodipodi:namedview
     pagecolor="#ffffff"
     bordercolor="#666666"
     borderopacity="1"
     objecttolerance="10"
     gridtolerance="10"
     guidetolerance="10"
     inkscape:pageopacity="0"
     inkscape:pageshadow="2"
     inkscape:window-width="1024"
     inkscape:window-height="1263"
     id="namedview4"
     showgrid="false"
     fit-margin-top="0"
     fit-margin-left="0"
     fit-margin-right="0"
     fit-margin-bottom="0"
     inkscape:zoom="0.5162037"
     inkscape:cx="801.01876"
     inkscape:cy="341.32163"
     inkscape:window-x="-4"
     inkscape:window-y="-4"
     inkscape:window-maximized="1"
     inkscape:current-layer="svg2" />
  <metadata
     id="metadata8">
    <rdf:RDF>
      <cc:Work
         rdf:about="">
        <dc:format>image/svg+xml</dc:format>
        <dc:type
           rdf:resource="http://purl.org/dc/dcmitype/StillImage" />
        <dc:title></dc:title>
      </cc:Work>
    </rdf:RDF>
  </metadata>
  <defs
     id="defs6">
    <linearGradient
       inkscape:collect="always"
       id="linearGradient3868">
      <stop
         style="stop-color:#cbcbcb;stop-opacity:1;"
         offset="0"
         id="stop3870" />
      <stop
         style="stop-color:#cbcbcb;stop-opacity:0;"
         offset="1"
         id="stop3872" />
    </linearGradient>
    <linearGradient
       inkscape:collect="always"
       id="linearGradient3803">
      <stop
         style="stop-color:#575757;stop-opacity:1;"
         offset="0"
         id="stop3805" />
      <stop
         style="stop-color:#575757;stop-opacity:0;"
         offset="1"
         id="stop3807" />
    </linearGradient>
    <linearGradient
       inkscape:collect="always"
       id="linearGradient3816">
      <stop
         style="stop-color:#ebebeb;stop-opacity:1;"
         offset="0"
         id="stop3818" />
      <stop
         style="stop-color:#ebebeb;stop-opacity:0;"
         offset="1"
         id="stop3820" />
    </linearGradient>
    <linearGradient
       id="linearGradient3837"
       inkscape:collect="always">
      <stop
         id="stop3839"
         offset="0"
         style="stop-color:#d7d7d7;stop-opacity:1;" />
      <stop
         id="stop3841"
         offset="1"
         style="stop-color:#d7d7d7;stop-opacity:0;" />
    </linearGradient>
    <linearGradient
       id="linearGradient3815"
       inkscape:collect="always">
      <stop
         id="stop3817"
         offset="0"
         style="stop-color:#c3c3c3;stop-opacity:0.88770056" />
      <stop
         id="stop3819"
         offset="1"
         style="stop-color:#e2e2e2;stop-opacity:0;" />
    </linearGradient>
    <linearGradient
       id="linearGradient3757"
       inkscape:collect="always">
      <stop
         id="stop3759"
         offset="0"
         style="stop-color:#e5e5e5;stop-opacity:1;" />
      <stop
         id="stop3761"
         offset="1"
         style="stop-color:#e5e5e5;stop-opacity:0;" />
    </linearGradient>
    <linearGradient
       gradientUnits="userSpaceOnUse"
       y2="847.97174"
       x2="841.94348"
       y1="35.872807"
       x1="20.530037"
       id="linearGradient3763"
       xlink:href="#linearGradient3757"
       inkscape:collect="always" />
    <linearGradient
       gradientTransform="matrix(0.96674391,0,0,0.96090293,16.079766,17.425498)"
       y2="847.97174"
       x2="841.94348"
       y1="35.872807"
       x1="20.530037"
       gradientUnits="userSpaceOnUse"
       id="linearGradient3767"
       xlink:href="#linearGradient3757"
       inkscape:collect="always" />
    <linearGradient
       gradientTransform="matrix(0.95026745,0,0,0.92912484,3.8916148,10.167317)"
       y2="847.97174"
       x2="841.94348"
       y1="35.872807"
       x1="20.530037"
       gradientUnits="userSpaceOnUse"
       id="linearGradient3770"
       xlink:href="#linearGradient3757"
       inkscape:collect="always" />
    <radialGradient
       gradientUnits="userSpaceOnUse"
       gradientTransform="matrix(1.8689592,1.4894632,-1.8667205,2.3423366,-8182.0767,-537.14583)"
       r="107.15402"
       fy="416.2869"
       fx="309.99777"
       cy="416.2869"
       cx="309.99777"
       id="radialGradient3802"
       xlink:href="#linearGradient3796"
       inkscape:collect="always" />
    <linearGradient
       id="linearGradient3796"
       inkscape:collect="always">
      <stop
         id="stop3798"
         offset="0"
         style="stop-color:#e0e0e0;stop-opacity:1;" />
      <stop
         id="stop3800"
         offset="1"
         style="stop-color:#e0e0e0;stop-opacity:0;" />
    </linearGradient>
    <linearGradient
       gradientUnits="userSpaceOnUse"
       y2="962.0343"
       x2="938.29193"
       y1="-322.45142"
       x1="-167.60034"
       id="linearGradient3821"
       xlink:href="#linearGradient3815"
       inkscape:collect="always" />
    <linearGradient
       y2="962.0343"
       x2="938.29193"
       y1="-322.45142"
       x1="-167.60034"
       gradientUnits="userSpaceOnUse"
       id="linearGradient3829"
       xlink:href="#linearGradient3815"
       inkscape:collect="always" />
    <linearGradient
       gradientUnits="userSpaceOnUse"
       y2="92.172035"
       x2="867.4079"
       y1="805.06891"
       x1="-22.750509"
       id="linearGradient3843"
       xlink:href="#linearGradient3837"
       inkscape:collect="always" />
    <filter
       id="filter3849"
       inkscape:collect="always">
      <feGaussianBlur
         id="feGaussianBlur3851"
         stdDeviation="9.6989236"
         inkscape:collect="always" />
    </filter>
    <radialGradient
       inkscape:collect="always"
       xlink:href="#linearGradient3816"
       id="radialGradient3020"
       gradientUnits="userSpaceOnUse"
       gradientTransform="matrix(-0.64368392,-0.27048797,0.30817402,-0.73336593,1177.9893,1568.7763)"
       cx="550.98187"
       cy="607.93384"
       fx="550.98187"
       fy="607.93384"
       r="249.90626" />
    <linearGradient
       inkscape:collect="always"
       xlink:href="#linearGradient3803"
       id="linearGradient3023"
       gradientUnits="userSpaceOnUse"
       gradientTransform="matrix(0.96485588,0,0,0.96485588,31.183406,389.1393)"
       x1="1371.5476"
       y1="275.0824"
       x2="889.1897"
       y2="730.32904" />
    <linearGradient
       inkscape:collect="always"
       xlink:href="#linearGradient3868"
       id="linearGradient3032"
       gradientUnits="userSpaceOnUse"
       x1="366.58276"
       y1="945.57135"
       x2="698.31165"
       y2="507.53555" />
  </defs>
  <path
     transform="matrix(1.0313224,0,0,1.0313224,-4.3005071,-4.603888)"
     style="fill:#000000;fill-opacity:1;fill-rule:evenodd;stroke:#cfcfcf;stroke-width:0;stroke-linecap:butt;stroke-linejoin:miter;stroke-miterlimit:4;stroke-opacity:1;stroke-dasharray:none;stroke-dashoffset:0;filter:url(#filter3849)"
     d="M 135.93088,42.377426 C 72.788787,42.567287 31.009207,94.438346 31.009207,161.26746 l 0,528.97514 c 0,66.82912 40.421164,118.04896 101.405013,118.04896 l 570.87073,0 c 69.61909,0 111.9554,-51.21984 111.9554,-118.04896 l 0,-528.97514 c 0,-62.511515 -67.52599,-120.729601 -119.868,-120.572214 z m 0.42081,34.47863 560.59336,-2.15879 c 35.32102,-0.136018 85.125,28.432014 85.3557,85.236304 l 2.1588,531.64294 c 0.2307,56.80431 -47.8759,87.53269 -83.1969,87.39508 l -554.11696,-2.1588 C 111.82465,776.67519 66.33095,763.49245 66.107547,706.68811 L 63.948757,157.77477 C 63.725355,100.97045 101.03065,76.992074 136.35169,76.856056 z"
     id="path3003"
     inkscape:connector-curvature="0"
     sodipodi:nodetypes="ssssssssssssssssss" />
  <path
     sodipodi:nodetypes="sssssssss"
     inkscape:connector-curvature="0"
     id="rect3010"
     d="m 142.37286,41.724921 c -42.31805,0 -113.497291,54.257154 -113.497291,121.705419 l 0,533.87127 c 0,67.44833 60.380904,121.38987 102.697731,121.70544 l 588.38232,4.38773 c 42.31683,0.31557 107.46177,-58.64484 107.48312,-126.09317 l 0.16627,-525.10725 C 827.62637,104.74609 756.09321,41.724921 713.77518,41.724921 z"
     style="opacity:0.90999995;fill:#000000;fill-opacity:1;fill-rule:evenodd;stroke:none" />
  <path
     sodipodi:nodetypes="ssssssssssssssssss"
     inkscape:connector-curvature="0"
     id="path3831"
     d="M 133.88805,37.100901 C 68.768199,37.296709 25.679983,90.792494 25.679983,159.71486 l 0,545.54391 c 0,68.92237 41.687252,121.74653 104.581257,121.74653 l 588.75178,0 c 71.79972,0 115.46211,-52.82416 115.46211,-121.74653 l 0,-545.54391 c 0,-64.46953 -69.64107,-124.511146 -123.62256,-124.348829 z m 0.434,35.558583 578.15248,-2.226408 c 36.42736,-0.140279 87.79132,29.322573 88.02925,87.906114 l 2.22642,548.29527 c 0.23792,58.58356 -49.37549,90.27442 -85.80283,90.1325 L 145.45414,794.54054 C 109.02676,794.39863 62.108087,780.80298 61.877687,722.21939 L 59.651278,156.11277 C 59.420879,97.529199 97.894665,72.799763 134.32205,72.659484 z"
     style="fill:#ffffff;fill-opacity:1;fill-rule:evenodd;stroke:#cfcfcf;stroke-width:0;stroke-linecap:butt;stroke-linejoin:miter;stroke-miterlimit:4;stroke-opacity:1;stroke-dasharray:none;stroke-dashoffset:0" />
  <path
     style="fill:url(#linearGradient3843);fill-opacity:1;fill-rule:evenodd;stroke:#cfcfcf;stroke-width:0;stroke-linecap:butt;stroke-linejoin:miter;stroke-miterlimit:4;stroke-opacity:1;stroke-dasharray:none;stroke-dashoffset:0"
     d="M 133.88805,37.100901 C 68.768199,37.296709 25.679983,90.792494 25.679983,159.71486 l 0,545.54391 c 0,68.92237 41.687252,121.74653 104.581257,121.74653 l 588.75178,0 c 71.79972,0 115.46211,-52.82416 115.46211,-121.74653 l 0,-545.54391 c 0,-64.46953 -69.64107,-124.511146 -123.62256,-124.348829 z m 0.434,35.558583 578.15248,-2.226408 c 36.42736,-0.140279 87.79132,29.322573 88.02925,87.906114 l 2.22642,548.29527 c 0.23792,58.58356 -49.37549,90.27442 -85.80283,90.1325 L 145.45414,794.54054 C 109.02676,794.39863 62.108087,780.80298 61.877687,722.21939 L 59.651278,156.11277 C 59.420879,97.529199 97.894665,72.799763 134.32205,72.659484 z"
     id="path3797"
     inkscape:connector-curvature="0"
     sodipodi:nodetypes="ssssssssssssssssss" />
  <g
     id="g3028"
     transform="matrix(1.0950413,0,0,1.0950413,-755.46498,-61.710734)">
    <path
       transform="matrix(1.5125,0,0,1.5125,210.74531,-430.5713)"
       d="m 730.33183,583.10315 c 0,85.59176 -69.38583,154.97758 -154.97758,154.97758 -85.59176,0 -154.97759,-69.38582 -154.97759,-154.97758 0,-85.59176 69.38583,-154.97759 154.97759,-154.97759 85.59175,0 154.97758,69.38583 154.97758,154.97759 z"
       sodipodi:ry="154.97758"
       sodipodi:rx="154.97758"
       sodipodi:cy="583.10315"
       sodipodi:cx="575.35425"
       id="path3027"
       style="fill:#ffffff;stroke:#000000;stroke-width:0;stroke-linecap:butt;stroke-linejoin:miter;stroke-miterlimit:4;stroke-opacity:1;stroke-dasharray:none;stroke-dashoffset:0"
       sodipodi:type="arc" />
    <path
       sodipodi:type="arc"
       style="fill:url(#linearGradient3032);fill-opacity:1;stroke:#000000;stroke-width:0;stroke-linecap:butt;stroke-linejoin:miter;stroke-miterlimit:4;stroke-opacity:1;stroke-dasharray:none;stroke-dashoffset:0"
       id="path3819"
       sodipodi:cx="575.35425"
       sodipodi:cy="583.10315"
       sodipodi:rx="154.97758"
       sodipodi:ry="154.97758"
       d="m 730.33183,583.10315 c 0,85.59176 -69.38583,154.97758 -154.97758,154.97758 -85.59176,0 -154.97759,-69.38582 -154.97759,-154.97758 0,-85.59176 69.38583,-154.97759 154.97759,-154.97759 85.59175,0 154.97758,69.38583 154.97758,154.97759 z"
       transform="matrix(1.5125,0,0,1.5125,210.74531,-430.5713)" />
  </g>
  <text
     xml:space="preserve"
     style="font-size:644.94647217px;font-style:normal;font-variant:normal;font-weight:normal;font-stretch:normal;text-align:start;line-height:125%;letter-spacing:0px;word-spacing:0px;writing-mode:lr-tb;text-anchor:start;fill:#000000;fill-opacity:1;stroke:none;font-family:Arial;-inkscape-font-specification:Arial"
     x="249.53781"
     y="753.09583"
     id="text3062"
     sodipodi:linespacing="125%"
     transform="scale(1.2607395,0.79318528)"><tspan
       sodipodi:role="line"
       id="tspan3064"
       x="249.53781"
       y="753.09583"
       style="font-style:normal;font-variant:normal;font-weight:normal;font-stretch:normal;font-family:Book Antiqua;-inkscape-font-specification:Book Antiqua">i</tspan></text>
</svg>
