<?xml version="1.0" encoding="UTF-8" standalone="no"?>
<!-- Created with Inkscape (http://www.inkscape.org/) -->

<svg
   xmlns:dc="http://purl.org/dc/elements/1.1/"
   xmlns:cc="http://creativecommons.org/ns#"
   xmlns:rdf="http://www.w3.org/1999/02/22-rdf-syntax-ns#"
   xmlns:svg="http://www.w3.org/2000/svg"
   xmlns="http://www.w3.org/2000/svg"
   xmlns:xlink="http://www.w3.org/1999/xlink"
   xmlns:sodipodi="http://sodipodi.sourceforge.net/DTD/sodipodi-0.dtd"
   xmlns:inkscape="http://www.inkscape.org/namespaces/inkscape"
   id="svg2"
   version="1.1"
   inkscape:version="0.48.2 r9819"
   width="864"
   height="864"
   sodipodi:docname="fullscreen.svg"
   inkscape:export-filename="D:\DocData\Doc3\Dropbox\Grafica\Ebookdroid resources\fullscreen.png"
   inkscape:export-xdpi="5"
   inkscape:export-ydpi="5">
  <metadata
     id="metadata8">
    <rdf:RDF>
      <cc:Work
         rdf:about="">
        <dc:format>image/svg+xml</dc:format>
        <dc:type
           rdf:resource="http://purl.org/dc/dcmitype/StillImage" />
        <dc:title></dc:title>
      </cc:Work>
    </rdf:RDF>
  </metadata>
  <defs
     id="defs6">
    <linearGradient
       inkscape:collect="always"
       id="linearGradient3837">
      <stop
         style="stop-color:#d7d7d7;stop-opacity:1;"
         offset="0"
         id="stop3839" />
      <stop
         style="stop-color:#d7d7d7;stop-opacity:0;"
         offset="1"
         id="stop3841" />
    </linearGradient>
    <linearGradient
       inkscape:collect="always"
       id="linearGradient3815">
      <stop
         style="stop-color:#c3c3c3;stop-opacity:0.88770056"
         offset="0"
         id="stop3817" />
      <stop
         style="stop-color:#e2e2e2;stop-opacity:0;"
         offset="1"
         id="stop3819" />
    </linearGradient>
    <linearGradient
       inkscape:collect="always"
       id="linearGradient3757">
      <stop
         style="stop-color:#e5e5e5;stop-opacity:1;"
         offset="0"
         id="stop3759" />
      <stop
         style="stop-color:#e5e5e5;stop-opacity:0;"
         offset="1"
         id="stop3761" />
    </linearGradient>
    <linearGradient
       inkscape:collect="always"
       xlink:href="#linearGradient3757"
       id="linearGradient3763"
       x1="20.530037"
       y1="35.872807"
       x2="841.94348"
       y2="847.97174"
       gradientUnits="userSpaceOnUse" />
    <linearGradient
       inkscape:collect="always"
       xlink:href="#linearGradient3757"
       id="linearGradient3767"
       gradientUnits="userSpaceOnUse"
       x1="20.530037"
       y1="35.872807"
       x2="841.94348"
       y2="847.97174"
       gradientTransform="matrix(0.96674391,0,0,0.96090293,16.079766,17.425498)" />
    <linearGradient
       inkscape:collect="always"
       xlink:href="#linearGradient3757"
       id="linearGradient3770"
       gradientUnits="userSpaceOnUse"
       x1="20.530037"
       y1="35.872807"
       x2="841.94348"
       y2="847.97174"
       gradientTransform="matrix(0.95026745,0,0,0.92912484,3.8916148,10.167317)" />
    <radialGradient
       inkscape:collect="always"
       xlink:href="#linearGradient3796"
       id="radialGradient3802"
       cx="309.99777"
       cy="416.2869"
       fx="309.99777"
       fy="416.2869"
       r="107.15402"
       gradientTransform="matrix(1.8689592,1.4894632,-1.8667205,2.3423366,-8182.0767,-537.14583)"
       gradientUnits="userSpaceOnUse" />
    <linearGradient
       inkscape:collect="always"
       id="linearGradient3796">
      <stop
         style="stop-color:#e0e0e0;stop-opacity:1;"
         offset="0"
         id="stop3798" />
      <stop
         style="stop-color:#e0e0e0;stop-opacity:0;"
         offset="1"
         id="stop3800" />
    </linearGradient>
    <linearGradient
       inkscape:collect="always"
       xlink:href="#linearGradient3815"
       id="linearGradient3821"
       x1="-167.60034"
       y1="-322.45142"
       x2="938.29193"
       y2="962.0343"
       gradientUnits="userSpaceOnUse" />
    <linearGradient
       inkscape:collect="always"
       xlink:href="#linearGradient3815"
       id="linearGradient3829"
       gradientUnits="userSpaceOnUse"
       x1="-167.60034"
       y1="-322.45142"
       x2="938.29193"
       y2="962.0343" />
    <linearGradient
       inkscape:collect="always"
       xlink:href="#linearGradient3837"
       id="linearGradient3843"
       x1="-22.750509"
       y1="805.06891"
       x2="867.4079"
       y2="92.172035"
       gradientUnits="userSpaceOnUse" />
    <filter
       inkscape:collect="always"
       id="filter3849">
      <feGaussianBlur
         inkscape:collect="always"
         stdDeviation="9.6989236"
         id="feGaussianBlur3851" />
    </filter>
    <linearGradient
       y2="1169.1122"
       x2="399.06726"
       y1="1141.9911"
       x1="269.27356"
       gradientUnits="userSpaceOnUse"
       id="linearGradient3869"
       xlink:href="#linearGradient3859"
       inkscape:collect="always" />
    <linearGradient
       gradientUnits="userSpaceOnUse"
       y2="1169.1122"
       x2="399.06726"
       y1="1141.9911"
       x1="269.27356"
       id="linearGradient3865"
       xlink:href="#linearGradient3859"
       inkscape:collect="always" />
    <filter
       id="filter3838"
       inkscape:collect="always">
      <feGaussianBlur
         id="feGaussianBlur3840"
         stdDeviation="7.0969541"
         inkscape:collect="always" />
    </filter>
    <linearGradient
       gradientTransform="matrix(0.9,0,0,0.9,33.187868,956.23752)"
       y2="426.7254"
       x2="56.787758"
       y1="442.0079"
       x1="1036.1949"
       gradientUnits="userSpaceOnUse"
       id="linearGradient3828"
       xlink:href="#linearGradient3811"
       inkscape:collect="always" />
    <linearGradient
       gradientTransform="translate(-10.924933,913.13449)"
       y2="450.40256"
       x2="97.684624"
       y1="429.09311"
       x1="767.1366"
       gradientUnits="userSpaceOnUse"
       id="linearGradient3822"
       xlink:href="#linearGradient3811"
       inkscape:collect="always" />
    <linearGradient
       gradientTransform="translate(-10.924932,913.1345)"
       gradientUnits="userSpaceOnUse"
       y2="194.68953"
       x2="-86.35125"
       y1="440.71643"
       x1="780.69708"
       id="linearGradient3817"
       xlink:href="#linearGradient3811"
       inkscape:collect="always" />
    <linearGradient
       y2="962.0343"
       x2="938.29193"
       y1="-322.45142"
       x1="-167.60034"
       gradientUnits="userSpaceOnUse"
       id="linearGradient3829-1"
       xlink:href="#linearGradient3815-8"
       inkscape:collect="always" />
    <linearGradient
       gradientUnits="userSpaceOnUse"
       y2="962.0343"
       x2="938.29193"
       y1="-322.45142"
       x1="-167.60034"
       id="linearGradient3821-6"
       xlink:href="#linearGradient3815-8"
       inkscape:collect="always" />
    <linearGradient
       id="linearGradient3796-5"
       inkscape:collect="always">
      <stop
         id="stop3798-2"
         offset="0"
         style="stop-color:#e0e0e0;stop-opacity:1;" />
      <stop
         id="stop3800-7"
         offset="1"
         style="stop-color:#e0e0e0;stop-opacity:0;" />
    </linearGradient>
    <radialGradient
       gradientUnits="userSpaceOnUse"
       gradientTransform="matrix(1.8689592,1.4894632,-1.8667205,2.3423366,-8182.0767,-537.14583)"
       r="107.15402"
       fy="416.2869"
       fx="309.99777"
       cy="416.2869"
       cx="309.99777"
       id="radialGradient3802-1"
       xlink:href="#linearGradient3796-5"
       inkscape:collect="always" />
    <linearGradient
       gradientTransform="matrix(0.95026745,0,0,0.92912484,3.8916148,10.167317)"
       y2="847.97174"
       x2="841.94348"
       y1="35.872807"
       x1="20.530037"
       gradientUnits="userSpaceOnUse"
       id="linearGradient3770-1"
       xlink:href="#linearGradient3757-4"
       inkscape:collect="always" />
    <linearGradient
       gradientTransform="matrix(0.96674391,0,0,0.96090293,16.079766,17.425498)"
       y2="847.97174"
       x2="841.94348"
       y1="35.872807"
       x1="20.530037"
       gradientUnits="userSpaceOnUse"
       id="linearGradient3767-7"
       xlink:href="#linearGradient3757-4"
       inkscape:collect="always" />
    <linearGradient
       gradientUnits="userSpaceOnUse"
       y2="847.97174"
       x2="841.94348"
       y1="35.872807"
       x1="20.530037"
       id="linearGradient3763-1"
       xlink:href="#linearGradient3757-4"
       inkscape:collect="always" />
    <linearGradient
       id="linearGradient3757-4"
       inkscape:collect="always">
      <stop
         id="stop3759-5"
         offset="0"
         style="stop-color:#e5e5e5;stop-opacity:1;" />
      <stop
         id="stop3761-5"
         offset="1"
         style="stop-color:#e5e5e5;stop-opacity:0;" />
    </linearGradient>
    <linearGradient
       id="linearGradient3815-8"
       inkscape:collect="always">
      <stop
         id="stop3817-8"
         offset="0"
         style="stop-color:#c3c3c3;stop-opacity:0.88770056" />
      <stop
         id="stop3819-2"
         offset="1"
         style="stop-color:#e2e2e2;stop-opacity:0;" />
    </linearGradient>
    <linearGradient
       id="linearGradient3811"
       inkscape:collect="always">
      <stop
         id="stop3813"
         offset="0"
         style="stop-color:#f2f2f2;stop-opacity:1;" />
      <stop
         id="stop3815"
         offset="1"
         style="stop-color:#f2f2f2;stop-opacity:0;" />
    </linearGradient>
    <linearGradient
       id="linearGradient3859"
       inkscape:collect="always">
      <stop
         id="stop3861"
         offset="0"
         style="stop-color:#e6e6e6;stop-opacity:1;" />
      <stop
         id="stop3863"
         offset="1"
         style="stop-color:#e6e6e6;stop-opacity:0;" />
    </linearGradient>
    <linearGradient
       inkscape:collect="always"
       xlink:href="#linearGradient3811"
       id="linearGradient3159"
       gradientUnits="userSpaceOnUse"
       gradientTransform="translate(-10.924932,913.1345)"
       x1="780.69708"
       y1="440.71643"
       x2="-86.35125"
       y2="194.68953" />
    <linearGradient
       inkscape:collect="always"
       xlink:href="#linearGradient3811"
       id="linearGradient3161"
       gradientUnits="userSpaceOnUse"
       gradientTransform="translate(-10.924933,913.13449)"
       x1="767.1366"
       y1="429.09311"
       x2="97.684624"
       y2="450.40256" />
    <linearGradient
       inkscape:collect="always"
       xlink:href="#linearGradient3811"
       id="linearGradient3163"
       gradientUnits="userSpaceOnUse"
       gradientTransform="matrix(0.9,0,0,0.9,33.187868,956.23752)"
       x1="1036.1949"
       y1="442.0079"
       x2="56.787758"
       y2="426.7254" />
    <linearGradient
       inkscape:collect="always"
       xlink:href="#linearGradient3811"
       id="linearGradient3175"
       gradientUnits="userSpaceOnUse"
       gradientTransform="translate(-10.924932,913.1345)"
       x1="780.69708"
       y1="440.71643"
       x2="-86.35125"
       y2="194.68953" />
    <linearGradient
       inkscape:collect="always"
       xlink:href="#linearGradient3811"
       id="linearGradient3177"
       gradientUnits="userSpaceOnUse"
       gradientTransform="translate(-10.924933,913.13449)"
       x1="767.1366"
       y1="429.09311"
       x2="97.684624"
       y2="450.40256" />
    <linearGradient
       inkscape:collect="always"
       xlink:href="#linearGradient3811"
       id="linearGradient3179"
       gradientUnits="userSpaceOnUse"
       gradientTransform="matrix(0.9,0,0,0.9,33.187868,956.23752)"
       x1="1036.1949"
       y1="442.0079"
       x2="56.787758"
       y2="426.7254" />
    <linearGradient
       inkscape:collect="always"
       xlink:href="#linearGradient3811"
       id="linearGradient3191"
       gradientUnits="userSpaceOnUse"
       gradientTransform="translate(-10.924932,913.1345)"
       x1="780.69708"
       y1="440.71643"
       x2="-86.35125"
       y2="194.68953" />
    <linearGradient
       inkscape:collect="always"
       xlink:href="#linearGradient3811"
       id="linearGradient3193"
       gradientUnits="userSpaceOnUse"
       gradientTransform="translate(-10.924933,913.13449)"
       x1="767.1366"
       y1="429.09311"
       x2="97.684624"
       y2="450.40256" />
    <linearGradient
       inkscape:collect="always"
       xlink:href="#linearGradient3811"
       id="linearGradient3195"
       gradientUnits="userSpaceOnUse"
       gradientTransform="matrix(0.9,0,0,0.9,33.187868,956.23752)"
       x1="1036.1949"
       y1="442.0079"
       x2="56.787758"
       y2="426.7254" />
    <linearGradient
       inkscape:collect="always"
       xlink:href="#linearGradient3811"
       id="linearGradient3207"
       gradientUnits="userSpaceOnUse"
       gradientTransform="translate(-10.924932,913.1345)"
       x1="780.69708"
       y1="440.71643"
       x2="-86.35125"
       y2="194.68953" />
    <linearGradient
       inkscape:collect="always"
       xlink:href="#linearGradient3811"
       id="linearGradient3209"
       gradientUnits="userSpaceOnUse"
       gradientTransform="translate(-10.924933,913.13449)"
       x1="767.1366"
       y1="429.09311"
       x2="97.684624"
       y2="450.40256" />
    <linearGradient
       inkscape:collect="always"
       xlink:href="#linearGradient3811"
       id="linearGradient3211"
       gradientUnits="userSpaceOnUse"
       gradientTransform="matrix(0.9,0,0,0.9,33.187868,956.23752)"
       x1="1036.1949"
       y1="442.0079"
       x2="56.787758"
       y2="426.7254" />
  </defs>
  <sodipodi:namedview
     pagecolor="#ffffff"
     bordercolor="#666666"
     borderopacity="1"
     objecttolerance="10"
     gridtolerance="10"
     guidetolerance="10"
     inkscape:pageopacity="0"
     inkscape:pageshadow="2"
     inkscape:window-width="1024"
     inkscape:window-height="1263"
     id="namedview4"
     showgrid="false"
     fit-margin-top="0"
     fit-margin-left="0"
     fit-margin-right="0"
     fit-margin-bottom="0"
     inkscape:zoom="0.5162037"
     inkscape:cx="735.7258"
     inkscape:cy="284.3238"
     inkscape:window-x="-4"
     inkscape:window-y="-4"
     inkscape:window-maximized="1"
     inkscape:current-layer="svg2" />
  <path
     sodipodi:nodetypes="ssssssssssssssssss"
     inkscape:connector-curvature="0"
     id="path3003"
     d="M 135.93088,42.377426 C 72.788787,42.567287 31.009207,94.438346 31.009207,161.26746 l 0,528.97514 c 0,66.82912 40.421164,118.04896 101.405013,118.04896 l 570.87073,0 c 69.61909,0 111.9554,-51.21984 111.9554,-118.04896 l 0,-528.97514 c 0,-62.511515 -67.52599,-120.729601 -119.868,-120.572214 z m 0.42081,34.47863 560.59336,-2.15879 c 35.32102,-0.136018 85.125,28.432014 85.3557,85.236304 l 2.1588,531.64294 c 0.2307,56.80431 -47.8759,87.53269 -83.1969,87.39508 l -554.11696,-2.1588 C 111.82465,776.67519 66.33095,763.49245 66.107547,706.68811 L 63.948757,157.77477 C 63.725355,100.97045 101.03065,76.992074 136.35169,76.856056 z"
     style="fill:#000000;fill-opacity:1;fill-rule:evenodd;stroke:#cfcfcf;stroke-width:0;stroke-linecap:butt;stroke-linejoin:miter;stroke-miterlimit:4;stroke-opacity:1;stroke-dasharray:none;stroke-dashoffset:0;filter:url(#filter3849)"
     transform="matrix(1.0313224,0,0,1.0313224,-4.3005071,-4.603888)" />
  <path
     style="opacity:0.90999995000000000;fill:#000000;fill-opacity:1;fill-rule:evenodd;stroke:none"
     d="m 142.37286,41.724921 c -42.31805,0 -113.497291,54.257154 -113.497291,121.705419 l 0,533.87127 c 0,67.44833 60.380904,121.38987 102.697731,121.70544 l 588.38232,4.38773 c 42.31683,0.31557 107.46177,-58.64484 107.48312,-126.09317 l 0.16627,-525.10725 C 827.62637,104.74609 756.09321,41.724921 713.77518,41.724921 z"
     id="rect3010"
     inkscape:connector-curvature="0"
     sodipodi:nodetypes="sssssssss" />
  <path
     style="fill:#ffffff;fill-opacity:1;fill-rule:evenodd;stroke:#cfcfcf;stroke-width:0;stroke-linecap:butt;stroke-linejoin:miter;stroke-miterlimit:4;stroke-opacity:1;stroke-dasharray:none;stroke-dashoffset:0"
     d="M 133.88805,37.100901 C 68.768199,37.296709 25.679983,90.792494 25.679983,159.71486 l 0,545.54391 c 0,68.92237 41.687252,121.74653 104.581257,121.74653 l 588.75178,0 c 71.79972,0 115.46211,-52.82416 115.46211,-121.74653 l 0,-545.54391 c 0,-64.46953 -69.64107,-124.511146 -123.62256,-124.348829 z m 0.434,35.558583 578.15248,-2.226408 c 36.42736,-0.140279 87.79132,29.322573 88.02925,87.906114 l 2.22642,548.29527 c 0.23792,58.58356 -49.37549,90.27442 -85.80283,90.1325 L 145.45414,794.54054 C 109.02676,794.39863 62.108087,780.80298 61.877687,722.21939 L 59.651278,156.11277 C 59.420879,97.529199 97.894665,72.799763 134.32205,72.659484 z"
     id="path3831"
     inkscape:connector-curvature="0"
     sodipodi:nodetypes="ssssssssssssssssss" />
  <path
     sodipodi:nodetypes="ssssssssssssssssss"
     inkscape:connector-curvature="0"
     id="path3797"
     d="M 133.88805,37.100901 C 68.768199,37.296709 25.679983,90.792494 25.679983,159.71486 l 0,545.54391 c 0,68.92237 41.687252,121.74653 104.581257,121.74653 l 588.75178,0 c 71.79972,0 115.46211,-52.82416 115.46211,-121.74653 l 0,-545.54391 c 0,-64.46953 -69.64107,-124.511146 -123.62256,-124.348829 z m 0.434,35.558583 578.15248,-2.226408 c 36.42736,-0.140279 87.79132,29.322573 88.02925,87.906114 l 2.22642,548.29527 c 0.23792,58.58356 -49.37549,90.27442 -85.80283,90.1325 L 145.45414,794.54054 C 109.02676,794.39863 62.108087,780.80298 61.877687,722.21939 L 59.651278,156.11277 C 59.420879,97.529199 97.894665,72.799763 134.32205,72.659484 z"
     style="fill:url(#linearGradient3843);fill-opacity:1;fill-rule:evenodd;stroke:#cfcfcf;stroke-width:0;stroke-linecap:butt;stroke-linejoin:miter;stroke-miterlimit:4;stroke-opacity:1;stroke-dasharray:none;stroke-dashoffset:0" />
  <g
     id="g3153"
     transform="matrix(0.25933231,-0.25933231,0.40859735,0.40859735,-368.20447,208.66568)">
    <g
       transform="matrix(0.89422153,0,0,0.89422153,1449.7247,64.08101)"
       id="g3842">
      <path
         style="fill:url(#linearGradient3159);fill-opacity:1;fill-rule:evenodd;stroke:#030303;stroke-width:0;stroke-linecap:butt;stroke-linejoin:miter;stroke-miterlimit:4;stroke-opacity:1;stroke-dasharray:none;stroke-dashoffset:0"
         d="m 389.50622,1129.8013 0,81.6177 -270.63996,0 0,265.4917 270.63996,0 0,81.6176 352.03372,-214.3497 -352.03372,-214.3773 z"
         id="rect3008"
         inkscape:connector-curvature="0" />
      <path
         inkscape:connector-curvature="0"
         id="path3819"
         d="m 389.50622,1129.8014 0,81.6176 -270.63996,0 0,265.4918 270.63996,0 0,81.6175 352.03372,-214.3496 -352.03372,-214.3773 z"
         style="fill:url(#linearGradient3161);fill-opacity:1;fill-rule:evenodd;stroke:#030303;stroke-width:0;stroke-linecap:butt;stroke-linejoin:miter;stroke-miterlimit:4;stroke-opacity:1;stroke-dasharray:none;stroke-dashoffset:0" />
      <path
         style="fill:url(#linearGradient3163);fill-opacity:1;fill-rule:evenodd;stroke:#030303;stroke-width:0;stroke-linecap:butt;stroke-linejoin:miter;stroke-miterlimit:4;stroke-opacity:1;stroke-dasharray:none;stroke-dashoffset:0;filter:url(#filter3838)"
         d="m 393.57591,1151.2377 0,73.4559 -243.57597,0 0,238.9426 243.57597,0 0,73.4558 316.83035,-192.9147 -316.83035,-192.9396 z"
         id="path3824"
         inkscape:connector-curvature="0" />
    </g>
  </g>
  <g
     transform="matrix(-0.25933231,0.25933231,0.40859735,0.40859735,202.69265,-372.3177)"
     id="g3165">
    <g
       id="g3167"
       transform="matrix(0.89422153,0,0,0.89422153,1449.7247,64.08101)">
      <path
         inkscape:connector-curvature="0"
         id="path3169"
         d="m 389.50622,1129.8013 0,81.6177 -270.63996,0 0,265.4917 270.63996,0 0,81.6176 352.03372,-214.3497 -352.03372,-214.3773 z"
         style="fill:url(#linearGradient3175);fill-opacity:1;fill-rule:evenodd;stroke:#030303;stroke-width:0;stroke-linecap:butt;stroke-linejoin:miter;stroke-miterlimit:4;stroke-opacity:1;stroke-dasharray:none;stroke-dashoffset:0" />
      <path
         style="fill:url(#linearGradient3177);fill-opacity:1;fill-rule:evenodd;stroke:#030303;stroke-width:0;stroke-linecap:butt;stroke-linejoin:miter;stroke-miterlimit:4;stroke-opacity:1;stroke-dasharray:none;stroke-dashoffset:0"
         d="m 389.50622,1129.8014 0,81.6176 -270.63996,0 0,265.4918 270.63996,0 0,81.6175 352.03372,-214.3496 -352.03372,-214.3773 z"
         id="path3171"
         inkscape:connector-curvature="0" />
      <path
         inkscape:connector-curvature="0"
         id="path3173"
         d="m 393.57591,1151.2377 0,73.4559 -243.57597,0 0,238.9426 243.57597,0 0,73.4558 316.83035,-192.9147 -316.83035,-192.9396 z"
         style="fill:url(#linearGradient3179);fill-opacity:1;fill-rule:evenodd;stroke:#030303;stroke-width:0;stroke-linecap:butt;stroke-linejoin:miter;stroke-miterlimit:4;stroke-opacity:1;stroke-dasharray:none;stroke-dashoffset:0;filter:url(#filter3838)" />
    </g>
  </g>
  <g
     id="g3181"
     transform="matrix(-0.25933231,-0.25933231,-0.40859735,0.40859735,1237.322,208.66568)">
    <g
       transform="matrix(0.89422153,0,0,0.89422153,1449.7247,64.08101)"
       id="g3183">
      <path
         style="fill:url(#linearGradient3191);fill-opacity:1;fill-rule:evenodd;stroke:#030303;stroke-width:0;stroke-linecap:butt;stroke-linejoin:miter;stroke-miterlimit:4;stroke-opacity:1;stroke-dasharray:none;stroke-dashoffset:0"
         d="m 389.50622,1129.8013 0,81.6177 -270.63996,0 0,265.4917 270.63996,0 0,81.6176 352.03372,-214.3497 -352.03372,-214.3773 z"
         id="path3185"
         inkscape:connector-curvature="0" />
      <path
         inkscape:connector-curvature="0"
         id="path3187"
         d="m 389.50622,1129.8014 0,81.6176 -270.63996,0 0,265.4918 270.63996,0 0,81.6175 352.03372,-214.3496 -352.03372,-214.3773 z"
         style="fill:url(#linearGradient3193);fill-opacity:1;fill-rule:evenodd;stroke:#030303;stroke-width:0;stroke-linecap:butt;stroke-linejoin:miter;stroke-miterlimit:4;stroke-opacity:1;stroke-dasharray:none;stroke-dashoffset:0" />
      <path
         style="fill:url(#linearGradient3195);fill-opacity:1;fill-rule:evenodd;stroke:#030303;stroke-width:0;stroke-linecap:butt;stroke-linejoin:miter;stroke-miterlimit:4;stroke-opacity:1;stroke-dasharray:none;stroke-dashoffset:0;filter:url(#filter3838)"
         d="m 393.57591,1151.2377 0,73.4559 -243.57597,0 0,238.9426 243.57597,0 0,73.4558 316.83035,-192.9147 -316.83035,-192.9396 z"
         id="path3189"
         inkscape:connector-curvature="0" />
    </g>
  </g>
  <g
     transform="matrix(0.25933231,0.25933231,-0.40859735,0.40859735,666.4249,-372.3177)"
     id="g3197">
    <g
       id="g3199"
       transform="matrix(0.89422153,0,0,0.89422153,1449.7247,64.08101)">
      <path
         inkscape:connector-curvature="0"
         id="path3201"
         d="m 389.50622,1129.8013 0,81.6177 -270.63996,0 0,265.4917 270.63996,0 0,81.6176 352.03372,-214.3497 -352.03372,-214.3773 z"
         style="fill:url(#linearGradient3207);fill-opacity:1;fill-rule:evenodd;stroke:#030303;stroke-width:0;stroke-linecap:butt;stroke-linejoin:miter;stroke-miterlimit:4;stroke-opacity:1;stroke-dasharray:none;stroke-dashoffset:0" />
      <path
         style="fill:url(#linearGradient3209);fill-opacity:1;fill-rule:evenodd;stroke:#030303;stroke-width:0;stroke-linecap:butt;stroke-linejoin:miter;stroke-miterlimit:4;stroke-opacity:1;stroke-dasharray:none;stroke-dashoffset:0"
         d="m 389.50622,1129.8014 0,81.6176 -270.63996,0 0,265.4918 270.63996,0 0,81.6175 352.03372,-214.3496 -352.03372,-214.3773 z"
         id="path3203"
         inkscape:connector-curvature="0" />
      <path
         inkscape:connector-curvature="0"
         id="path3205"
         d="m 393.57591,1151.2377 0,73.4559 -243.57597,0 0,238.9426 243.57597,0 0,73.4558 316.83035,-192.9147 -316.83035,-192.9396 z"
         style="fill:url(#linearGradient3211);fill-opacity:1;fill-rule:evenodd;stroke:#030303;stroke-width:0;stroke-linecap:butt;stroke-linejoin:miter;stroke-miterlimit:4;stroke-opacity:1;stroke-dasharray:none;stroke-dashoffset:0;filter:url(#filter3838)" />
    </g>
  </g>
  <path
     style="fill:#e6e6e6;fill-opacity:1;fill-rule:evenodd;stroke:#cfcfcf;stroke-width:0;stroke-linecap:butt;stroke-linejoin:miter;stroke-miterlimit:4;stroke-opacity:1;stroke-dasharray:none;stroke-dashoffset:0"
     d="m 196.84346,120.02662 c -52.01799,0.1564 -86.43702,42.88905 -86.43702,97.9445 l 0,435.78258 c 0,55.05546 33.29994,97.2516 83.53991,97.2516 l 470.2972,0 c 57.35389,0 92.23158,-42.19614 92.23158,-97.2516 l 0,-435.78258 c 0,-51.49851 -55.62956,-99.45999 -98.75018,-99.33033 z m 0.34669,28.40433 461.83043,-1.77847 c 29.09831,-0.11205 70.12804,23.42299 70.31811,70.21975 l 1.77847,437.98038 c 0.19005,46.79677 -39.44134,72.11155 -68.53964,71.99819 L 206.0825,725.07233 c -29.09833,-0.11337 -66.57715,-10.97362 -66.76119,-57.77042 l -1.77847,-452.20815 c -0.18404,-46.79679 30.54897,-66.55076 59.64731,-66.66281 z"
     id="path3213"
     inkscape:connector-curvature="0"
     sodipodi:nodetypes="ssssssssssssssssss" />
</svg>
