<?xml version="1.0" encoding="UTF-8" standalone="no"?>
<!-- Created with Inkscape (http://www.inkscape.org/) -->

<svg
   xmlns:dc="http://purl.org/dc/elements/1.1/"
   xmlns:cc="http://creativecommons.org/ns#"
   xmlns:rdf="http://www.w3.org/1999/02/22-rdf-syntax-ns#"
   xmlns:svg="http://www.w3.org/2000/svg"
   xmlns="http://www.w3.org/2000/svg"
   xmlns:xlink="http://www.w3.org/1999/xlink"
   xmlns:sodipodi="http://sodipodi.sourceforge.net/DTD/sodipodi-0.dtd"
   xmlns:inkscape="http://www.inkscape.org/namespaces/inkscape"
   id="svg2"
   version="1.1"
   inkscape:version="0.48.2 r9819"
   width="864"
   height="864"
   sodipodi:docname="settings.svg"
   inkscape:export-filename="D:\DocData\Doc3\Dropbox\Grafica\Ebookdroid resources\settings.png"
   inkscape:export-xdpi="5"
   inkscape:export-ydpi="5">
  <sodipodi:namedview
     pagecolor="#ffffff"
     bordercolor="#666666"
     borderopacity="1"
     objecttolerance="10"
     gridtolerance="10"
     guidetolerance="10"
     inkscape:pageopacity="0"
     inkscape:pageshadow="2"
     inkscape:window-width="1024"
     inkscape:window-height="1263"
     id="namedview4"
     showgrid="false"
     fit-margin-top="0"
     fit-margin-left="0"
     fit-margin-right="0"
     fit-margin-bottom="0"
     inkscape:zoom="0.5162037"
     inkscape:cx="801.01876"
     inkscape:cy="29.044653"
     inkscape:window-x="-4"
     inkscape:window-y="-4"
     inkscape:window-maximized="1"
     inkscape:current-layer="svg2" />
  <metadata
     id="metadata8">
    <rdf:RDF>
      <cc:Work
         rdf:about="">
        <dc:format>image/svg+xml</dc:format>
        <dc:type
           rdf:resource="http://purl.org/dc/dcmitype/StillImage" />
        <dc:title></dc:title>
      </cc:Work>
    </rdf:RDF>
  </metadata>
  <defs
     id="defs6">
    <linearGradient
       inkscape:collect="always"
       id="linearGradient3886">
      <stop
         style="stop-color:#b4b4b4;stop-opacity:1;"
         offset="0"
         id="stop3888" />
      <stop
         style="stop-color:#b4b4b4;stop-opacity:0;"
         offset="1"
         id="stop3890" />
    </linearGradient>
    <linearGradient
       inkscape:collect="always"
       id="linearGradient3874">
      <stop
         style="stop-color:#b4b4b4;stop-opacity:1;"
         offset="0"
         id="stop3876" />
      <stop
         style="stop-color:#b4b4b4;stop-opacity:0;"
         offset="1"
         id="stop3878" />
    </linearGradient>
    <linearGradient
       inkscape:collect="always"
       id="linearGradient3866">
      <stop
         style="stop-color:#000000;stop-opacity:1;"
         offset="0"
         id="stop3868" />
      <stop
         style="stop-color:#000000;stop-opacity:0;"
         offset="1"
         id="stop3870" />
    </linearGradient>
    <linearGradient
       inkscape:collect="always"
       id="linearGradient3840">
      <stop
         style="stop-color:#000000;stop-opacity:1;"
         offset="0"
         id="stop3842" />
      <stop
         style="stop-color:#000000;stop-opacity:0;"
         offset="1"
         id="stop3844" />
    </linearGradient>
    <linearGradient
       id="linearGradient3837"
       inkscape:collect="always">
      <stop
         id="stop3839"
         offset="0"
         style="stop-color:#d7d7d7;stop-opacity:1;" />
      <stop
         id="stop3841"
         offset="1"
         style="stop-color:#d7d7d7;stop-opacity:0;" />
    </linearGradient>
    <linearGradient
       id="linearGradient3815"
       inkscape:collect="always">
      <stop
         id="stop3817"
         offset="0"
         style="stop-color:#c3c3c3;stop-opacity:0.88770056" />
      <stop
         id="stop3819"
         offset="1"
         style="stop-color:#e2e2e2;stop-opacity:0;" />
    </linearGradient>
    <linearGradient
       id="linearGradient3757"
       inkscape:collect="always">
      <stop
         id="stop3759"
         offset="0"
         style="stop-color:#e5e5e5;stop-opacity:1;" />
      <stop
         id="stop3761"
         offset="1"
         style="stop-color:#e5e5e5;stop-opacity:0;" />
    </linearGradient>
    <linearGradient
       gradientUnits="userSpaceOnUse"
       y2="847.97174"
       x2="841.94348"
       y1="35.872807"
       x1="20.530037"
       id="linearGradient3763"
       xlink:href="#linearGradient3757"
       inkscape:collect="always" />
    <linearGradient
       gradientTransform="matrix(0.96674391,0,0,0.96090293,16.079766,17.425498)"
       y2="847.97174"
       x2="841.94348"
       y1="35.872807"
       x1="20.530037"
       gradientUnits="userSpaceOnUse"
       id="linearGradient3767"
       xlink:href="#linearGradient3757"
       inkscape:collect="always" />
    <linearGradient
       gradientTransform="matrix(0.95026745,0,0,0.92912484,3.8916148,10.167317)"
       y2="847.97174"
       x2="841.94348"
       y1="35.872807"
       x1="20.530037"
       gradientUnits="userSpaceOnUse"
       id="linearGradient3770"
       xlink:href="#linearGradient3757"
       inkscape:collect="always" />
    <radialGradient
       gradientUnits="userSpaceOnUse"
       gradientTransform="matrix(1.8689592,1.4894632,-1.8667205,2.3423366,-8182.0767,-537.14583)"
       r="107.15402"
       fy="416.2869"
       fx="309.99777"
       cy="416.2869"
       cx="309.99777"
       id="radialGradient3802"
       xlink:href="#linearGradient3796"
       inkscape:collect="always" />
    <linearGradient
       id="linearGradient3796"
       inkscape:collect="always">
      <stop
         id="stop3798"
         offset="0"
         style="stop-color:#e0e0e0;stop-opacity:1;" />
      <stop
         id="stop3800"
         offset="1"
         style="stop-color:#e0e0e0;stop-opacity:0;" />
    </linearGradient>
    <linearGradient
       gradientUnits="userSpaceOnUse"
       y2="962.0343"
       x2="938.29193"
       y1="-322.45142"
       x1="-167.60034"
       id="linearGradient3821"
       xlink:href="#linearGradient3815"
       inkscape:collect="always" />
    <linearGradient
       y2="962.0343"
       x2="938.29193"
       y1="-322.45142"
       x1="-167.60034"
       gradientUnits="userSpaceOnUse"
       id="linearGradient3829"
       xlink:href="#linearGradient3815"
       inkscape:collect="always" />
    <linearGradient
       gradientUnits="userSpaceOnUse"
       y2="92.172035"
       x2="867.4079"
       y1="805.06891"
       x1="-22.750509"
       id="linearGradient3843"
       xlink:href="#linearGradient3837"
       inkscape:collect="always" />
    <filter
       id="filter3849"
       inkscape:collect="always">
      <feGaussianBlur
         id="feGaussianBlur3851"
         stdDeviation="9.6989236"
         inkscape:collect="always" />
    </filter>
    <linearGradient
       inkscape:collect="always"
       xlink:href="#linearGradient3840"
       id="linearGradient3846"
       x1="-50.367714"
       y1="-102.67265"
       x2="451.37219"
       y2="505.61438"
       gradientUnits="userSpaceOnUse" />
    <linearGradient
       inkscape:collect="always"
       xlink:href="#linearGradient3866"
       id="linearGradient3872"
       x1="274.76633"
       y1="131.72696"
       x2="620.24127"
       y2="639.27856"
       gradientUnits="userSpaceOnUse" />
    <radialGradient
       inkscape:collect="always"
       xlink:href="#linearGradient3874"
       id="radialGradient3880"
       cx="1163.3125"
       cy="1269.8437"
       fx="1163.3125"
       fy="1269.8437"
       r="190.8125"
       gradientUnits="userSpaceOnUse"
       gradientTransform="translate(-594.72646,-693.52467)" />
    <radialGradient
       inkscape:collect="always"
       xlink:href="#linearGradient3886"
       id="radialGradient3892"
       cx="390.36185"
       cy="370.97375"
       fx="390.36185"
       fy="370.97375"
       r="189.19948"
       gradientTransform="matrix(0.90110327,0.47070663,-0.94301396,1.8052709,388.43893,-482.48023)"
       gradientUnits="userSpaceOnUse" />
    <radialGradient
       inkscape:collect="always"
       xlink:href="#linearGradient3866"
       id="radialGradient3896"
       cx="565.67419"
       cy="579.22473"
       fx="565.67419"
       fy="579.22473"
       r="101.06036"
       gradientTransform="matrix(0.50489311,0.20585836,-0.18227764,0.44705848,385.64891,203.82864)"
       gradientUnits="userSpaceOnUse" />
    <radialGradient
       inkscape:collect="always"
       xlink:href="#linearGradient3866"
       id="radialGradient3910"
       cx="390.36185"
       cy="370.97375"
       fx="390.36185"
       fy="370.97375"
       r="189.19948"
       gradientTransform="matrix(0.42646641,-0.02335356,0.02389096,0.4362801,215.02271,218.24168)"
       gradientUnits="userSpaceOnUse" />
    <radialGradient
       inkscape:collect="always"
       xlink:href="#linearGradient3874"
       id="radialGradient3914"
       gradientUnits="userSpaceOnUse"
       gradientTransform="matrix(1.2487357,0,0,1.2487357,-1061.3394,-1211.8196)"
       cx="1163.3125"
       cy="1269.8437"
       fx="1163.3125"
       fy="1269.8437"
       r="190.8125" />
  </defs>
  <path
     transform="matrix(1.0313224,0,0,1.0313224,-4.3005071,-4.603888)"
     style="fill:#000000;fill-opacity:1;fill-rule:evenodd;stroke:#cfcfcf;stroke-width:0;stroke-linecap:butt;stroke-linejoin:miter;stroke-miterlimit:4;stroke-opacity:1;stroke-dasharray:none;stroke-dashoffset:0;filter:url(#filter3849)"
     d="M 135.93088,42.377426 C 72.788787,42.567287 31.009207,94.438346 31.009207,161.26746 l 0,528.97514 c 0,66.82912 40.421164,118.04896 101.405013,118.04896 l 570.87073,0 c 69.61909,0 111.9554,-51.21984 111.9554,-118.04896 l 0,-528.97514 c 0,-62.511515 -67.52599,-120.729601 -119.868,-120.572214 z m 0.42081,34.47863 560.59336,-2.15879 c 35.32102,-0.136018 85.125,28.432014 85.3557,85.236304 l 2.1588,531.64294 c 0.2307,56.80431 -47.8759,87.53269 -83.1969,87.39508 l -554.11696,-2.1588 C 111.82465,776.67519 66.33095,763.49245 66.107547,706.68811 L 63.948757,157.77477 C 63.725355,100.97045 101.03065,76.992074 136.35169,76.856056 z"
     id="path3003"
     inkscape:connector-curvature="0"
     sodipodi:nodetypes="ssssssssssssssssss" />
  <path
     sodipodi:nodetypes="sssssssss"
     inkscape:connector-curvature="0"
     id="rect3010"
     d="m 142.37286,41.724921 c -42.31805,0 -113.497291,54.257154 -113.497291,121.705419 l 0,533.87127 c 0,67.44833 60.380904,121.38987 102.697731,121.70544 l 588.38232,4.38773 c 42.31683,0.31557 107.46177,-58.64484 107.48312,-126.09317 l 0.16627,-525.10725 C 827.62637,104.74609 756.09321,41.724921 713.77518,41.724921 z"
     style="opacity:0.90999995000000000;fill:#000000;fill-opacity:1;fill-rule:evenodd;stroke:none" />
  <path
     sodipodi:nodetypes="ssssssssssssssssss"
     inkscape:connector-curvature="0"
     id="path3831"
     d="M 133.88805,37.100901 C 68.768199,37.296709 25.679983,90.792494 25.679983,159.71486 l 0,545.54391 c 0,68.92237 41.687252,121.74653 104.581257,121.74653 l 588.75178,0 c 71.79972,0 115.46211,-52.82416 115.46211,-121.74653 l 0,-545.54391 c 0,-64.46953 -69.64107,-124.511146 -123.62256,-124.348829 z m 0.434,35.558583 578.15248,-2.226408 c 36.42736,-0.140279 87.79132,29.322573 88.02925,87.906114 l 2.22642,548.29527 c 0.23792,58.58356 -49.37549,90.27442 -85.80283,90.1325 L 145.45414,794.54054 C 109.02676,794.39863 62.108087,780.80298 61.877687,722.21939 L 59.651278,156.11277 C 59.420879,97.529199 97.894665,72.799763 134.32205,72.659484 z"
     style="fill:#ffffff;fill-opacity:1;fill-rule:evenodd;stroke:#cfcfcf;stroke-width:0;stroke-linecap:butt;stroke-linejoin:miter;stroke-miterlimit:4;stroke-opacity:1;stroke-dasharray:none;stroke-dashoffset:0" />
  <path
     style="fill:url(#linearGradient3843);fill-opacity:1;fill-rule:evenodd;stroke:#cfcfcf;stroke-width:0;stroke-linecap:butt;stroke-linejoin:miter;stroke-miterlimit:4;stroke-opacity:1;stroke-dasharray:none;stroke-dashoffset:0"
     d="M 133.88805,37.100901 C 68.768199,37.296709 25.679983,90.792494 25.679983,159.71486 l 0,545.54391 c 0,68.92237 41.687252,121.74653 104.581257,121.74653 l 588.75178,0 c 71.79972,0 115.46211,-52.82416 115.46211,-121.74653 l 0,-545.54391 c 0,-64.46953 -69.64107,-124.511146 -123.62256,-124.348829 z m 0.434,35.558583 578.15248,-2.226408 c 36.42736,-0.140279 87.79132,29.322573 88.02925,87.906114 l 2.22642,548.29527 c 0.23792,58.58356 -49.37549,90.27442 -85.80283,90.1325 L 145.45414,794.54054 C 109.02676,794.39863 62.108087,780.80298 61.877687,722.21939 L 59.651278,156.11277 C 59.420879,97.529199 97.894665,72.799763 134.32205,72.659484 z"
     id="path3797"
     inkscape:connector-curvature="0"
     sodipodi:nodetypes="ssssssssssssssssss" />
  <path
     style="fill:url(#radialGradient3880);fill-opacity:1;fill-rule:evenodd;stroke:#000000;stroke-width:0;stroke-linecap:butt;stroke-linejoin:miter;stroke-miterlimit:4;stroke-opacity:1;stroke-dasharray:none;stroke-dashoffset:0"
     d="m 550.17974,385.50653 c -10.732,0 -19.375,8.643 -19.375,19.375 l 0,20.125 c -15.1777,3.7757 -29.477,9.7371 -42.5312,17.5938 l -14.2188,-14.2188 c -7.5886,-7.5886 -19.8173,-7.5886 -27.4062,0 l -26,26.0313 c -7.5888,7.5889 -7.5888,19.7862 0,27.375 l 14.2188,14.2187 c -7.8541,13.0493 -13.849,27.36 -17.625,42.5313 l -20.0938,0 c -10.7321,0 -19.375,8.6428 -19.375,19.375 l 0,36.8125 c 0,10.7322 8.6429,19.375 19.375,19.375 l 20.0938,0 c 3.7738,15.1625 9.7777,29.4571 17.625,42.5 l -14.2188,14.2188 c -7.5888,7.5886 -7.5888,19.8174 0,27.4062 l 26,26.0312 c 7.5889,7.589 19.8176,7.589 27.4062,0 l 14.2188,-14.2187 c 13.0556,7.8575 27.3517,13.8495 42.5312,17.625 l 0,20.0937 c 0,10.7323 8.643,19.375 19.375,19.375 l 36.8126,0 c 10.732,0 19.375,-8.6427 19.375,-19.375 l 0,-20.0937 c 15.1705,-3.7754 29.451,-9.7721 42.5,-17.625 l 14.2187,14.2187 c 7.5888,7.589 19.8175,7.589 27.4063,0 l 26.0312,-26.0312 c 7.5889,-7.5888 7.5889,-19.8176 0,-27.4062 l -14.2188,-14.2188 c 7.8433,-13.0393 13.8213,-27.3428 17.5938,-42.5 l 20.125,0 c 10.7322,0 19.375,-8.6428 19.375,-19.375 l 0,-36.8125 c 0,-10.7322 -8.6428,-19.375 -19.375,-19.375 l -20.125,0 c -3.7739,-15.1625 -9.7778,-29.4571 -17.625,-42.5 l 14.25,-14.25 c 7.5889,-7.5888 7.5889,-19.7861 0,-27.375 l -26.0312,-26.0313 c -7.5888,-7.5886 -19.8175,-7.5886 -27.4063,0 l -14.2187,14.2188 c -13.0475,-7.852 -27.3313,-13.8182 -42.5,-17.5938 l 0,-20.125 c 0,-10.732 -8.643,-19.375 -19.375,-19.375 l -36.8126,0 z m 19.375,129.7813 c 31.0271,0 56.1563,25.1605 56.1563,56.1875 0,31.027 -25.1292,56.1875 -56.1563,56.1875 -31.027,0 -56.1874,-25.1605 -56.1874,-56.1875 0,-31.027 25.1604,-56.1875 56.1874,-56.1875 z"
     id="rect3806"
     inkscape:connector-curvature="0" />
  <path
     id="path3825"
     d="m 319.73918,192.75856 c -10.31069,2.9775 -16.21649,13.6791 -13.23901,23.9898 l 5.58347,19.335 c -13.53434,7.8383 -25.61837,17.5329 -35.98034,28.7029 l -17.60547,-9.7157 c -9.39607,-5.1853 -21.14471,-1.7926 -26.33032,7.6035 l -17.75721,32.2229 c -5.18543,9.3964 -1.80142,21.1148 7.5949,26.3003 l 17.60544,9.7157 c -3.92538,14.716 -5.71459,30.1281 -5.13323,45.7515 l -19.30499,5.5748 c -10.31079,2.9775 -16.21654,13.6789 -13.239,23.9898 l 10.21323,35.3673 c 2.97754,10.3109 13.679,16.2166 23.98979,13.239 l 19.30498,-5.5748 c 7.83233,13.5203 17.56642,25.588 28.72428,35.9417 l -9.71576,17.6055 c -5.18551,9.3961 -1.79276,21.1449 7.60356,26.3303 l 32.2014,17.7959 c 9.39647,5.1856 21.14511,1.7929 26.33032,-7.6036 l 9.71578,-17.6053 c 14.72306,3.9269 30.12036,5.7173 45.75143,5.1332 l 5.57479,19.3049 c 2.97756,10.311 13.67909,16.2165 23.98978,13.239 l 35.36746,-10.2132 c 10.31069,-2.9775 16.21657,-13.6788 13.23901,-23.9898 l -5.57479,-19.3049 c 13.52751,-7.8361 25.58368,-17.5594 35.94171,-28.7243 l 17.60535,9.7157 c 9.39638,5.1857 21.14502,1.7929 26.33042,-7.6036 l 17.78721,-32.2314 c 5.18555,-9.3963 1.7928,-21.145 -7.60356,-26.3303 l -17.60547,-9.7157 c 3.91778,-14.7035 5.69275,-30.104 5.11195,-45.7128 l 19.33495,-5.5835 c 10.31089,-2.9775 16.21655,-13.6789 13.23901,-23.9898 l -10.21324,-35.3673 c -2.97753,-10.3109 -13.6789,-16.2166 -23.98978,-13.2391 l -19.33496,5.5835 c -7.83242,-13.5202 -17.56651,-25.5879 -28.72427,-35.9417 l 9.73707,-17.6441 c 5.18556,-9.3963 1.80154,-21.1148 -7.5949,-26.3003 l -32.23141,-17.7874 c -9.39626,-5.1852 -21.1449,-1.7925 -26.33041,7.6036 l -9.71566,17.6055 c -14.71375,-3.9239 -30.09207,-5.693 -45.7128,-5.112 l -5.58347,-19.3349 c -2.97748,-10.3107 -13.67909,-16.2165 -23.98978,-13.239 l -35.36746,10.2132 z m 54.62085,119.3111 c 29.80907,-8.6081 60.93229,8.5928 69.54041,38.4018 8.60811,29.809 -8.55408,60.9536 -38.36315,69.5617 -29.80898,8.6082 -60.96218,-8.5841 -69.57029,-38.3931 -8.60811,-29.809 8.58405,-60.9622 38.39303,-69.5704 z"
     style="fill:#e6e6e6;fill-opacity:1;fill-rule:evenodd;stroke:#000000;stroke-width:0;stroke-linecap:butt;stroke-linejoin:miter;stroke-miterlimit:4;stroke-opacity:1;stroke-dasharray:none;stroke-dashoffset:0"
     inkscape:connector-curvature="0" />
  <path
     inkscape:connector-curvature="0"
     style="fill:#e6e6e6;fill-opacity:1;fill-rule:evenodd;stroke:#000000;stroke-width:0;stroke-linecap:butt;stroke-linejoin:miter;stroke-miterlimit:4;stroke-opacity:1;stroke-dasharray:none;stroke-dashoffset:0"
     d="m 633.21968,503.86122 c -3.83658,-4.16884 -10.28374,-4.43633 -14.45254,-0.59996 l -7.8174,7.19441 c -6.89255,-4.54583 -14.32016,-7.9691 -22.03873,-10.23129 l 0.44003,-10.60622 c 0.23486,-5.6607 -4.13671,-10.41094 -9.79749,-10.64581 l -19.40636,-0.79369 c -5.66091,-0.23437 -10.39882,4.12562 -10.63372,9.78643 l -0.44013,10.60632 c -7.87667,1.61416 -15.57867,4.40135 -22.82179,8.35822 l -7.18337,-7.80525 c -3.83665,-4.16885 -10.28362,-4.43643 -14.45241,-0.59995 l -14.29966,13.16036 c -4.16883,3.83668 -4.43622,10.28352 -0.59965,14.45246 l 7.18339,7.80525 c -4.54071,6.88645 -7.94697,14.32873 -10.20808,22.03973 l -10.60624,-0.44032 c -5.66067,-0.23536 -10.41087,4.13677 -10.64576,9.79747 l -0.81688,19.40552 c -0.23487,5.66081 4.13671,10.41115 9.79749,10.64581 l 10.60625,0.44033 c 1.61512,7.88024 4.39819,15.57577 8.3583,22.82162 l -7.80527,7.18336 c -4.16892,3.83677 -4.43636,10.28381 -0.59975,14.45255 l 13.16018,14.29968 c 3.83661,4.16874 10.28362,4.43633 14.45252,0.59996 l 7.80522,-7.18316 c 6.88987,4.5431 14.32447,7.94638 22.03969,10.208 l -0.44012,10.60622 c -0.23487,5.6607 4.13674,10.41094 9.79752,10.64581 l 19.41764,0.80563 c 5.66078,0.23537 10.41099,-4.13677 10.64581,-9.79758 l 0.44003,-10.60622 c 7.86896,-1.61482 15.56206,-4.40593 22.79851,-8.35931 l 7.19453,7.81749 c 3.83669,4.16884 10.28359,4.43642 14.45245,0.59995 l 14.2996,-13.16027 c 4.16884,-3.83667 4.43627,-10.28352 0.59965,-14.45246 l -7.19454,-7.81738 c 4.54069,-6.88645 7.94693,-14.32883 10.20808,-22.03973 l 10.62957,0.44141 c 5.66073,0.23537 10.39872,-4.12542 10.63365,-9.78633 l 0.80563,-19.41746 c 0.23487,-5.6608 -4.1368,-10.41094 -9.79753,-10.64581 l -10.60614,-0.44032 c -1.61439,-7.87509 -4.40314,-15.55657 -8.35923,-22.79844 l 7.81741,-7.1945 c 4.16877,-3.83658 4.43635,-10.28381 0.59975,-14.45256 l -13.16021,-14.29957 z m -43.48639,53.92191 c 11.092,12.05223 10.30208,30.8081 -1.75018,41.90007 -12.05222,11.09187 -30.80917,10.3253 -41.90105,-1.72703 -11.09188,-12.05223 -10.31313,-30.82023 1.73909,-41.9122 12.05231,-11.09196 30.82026,-10.31307 41.91214,1.73916 z"
     id="path3827" />
  <path
     inkscape:connector-curvature="0"
     style="fill:url(#linearGradient3846);fill-opacity:1;fill-rule:evenodd;stroke:#000000;stroke-width:0;stroke-linecap:butt;stroke-linejoin:miter;stroke-miterlimit:4;stroke-opacity:1;stroke-dasharray:none;stroke-dashoffset:0"
     d="m 319.73918,192.75856 c -10.31069,2.9775 -16.21649,13.6791 -13.23901,23.9898 l 5.58347,19.335 c -13.53434,7.8383 -25.61837,17.5329 -35.98034,28.7029 l -17.60547,-9.7157 c -9.39607,-5.1853 -21.14471,-1.7926 -26.33032,7.6035 l -17.75721,32.2229 c -5.18543,9.3964 -1.80142,21.1148 7.5949,26.3003 l 17.60544,9.7157 c -3.92538,14.716 -5.71459,30.1281 -5.13323,45.7515 l -19.30499,5.5748 c -10.31079,2.9775 -16.21654,13.6789 -13.239,23.9898 l 10.21323,35.3673 c 2.97754,10.3109 13.679,16.2166 23.98979,13.239 l 19.30498,-5.5748 c 7.83233,13.5203 17.56642,25.588 28.72428,35.9417 l -9.71576,17.6055 c -5.18551,9.3961 -1.79276,21.1449 7.60356,26.3303 l 32.2014,17.7959 c 9.39647,5.1856 21.14511,1.7929 26.33032,-7.6036 l 9.71578,-17.6053 c 14.72306,3.9269 30.12036,5.7173 45.75143,5.1332 l 5.57479,19.3049 c 2.97756,10.311 13.67909,16.2165 23.98978,13.239 l 35.36746,-10.2132 c 10.31069,-2.9775 16.21657,-13.6788 13.23901,-23.9898 l -5.57479,-19.3049 c 13.52751,-7.8361 25.58368,-17.5594 35.94171,-28.7243 l 17.60535,9.7157 c 9.39638,5.1857 21.14502,1.7929 26.33042,-7.6036 l 17.78721,-32.2314 c 5.18555,-9.3963 1.7928,-21.145 -7.60356,-26.3303 l -17.60547,-9.7157 c 3.91778,-14.7035 5.69275,-30.104 5.11195,-45.7128 l 19.33495,-5.5835 c 10.31089,-2.9775 16.21655,-13.6789 13.23901,-23.9898 l -10.21324,-35.3673 c -2.97753,-10.3109 -13.6789,-16.2166 -23.98978,-13.2391 l -19.33496,5.5835 c -7.83242,-13.5202 -17.56651,-25.5879 -28.72427,-35.9417 l 9.73707,-17.6441 c 5.18556,-9.3963 1.80154,-21.1148 -7.5949,-26.3003 l -32.23141,-17.7874 c -9.39626,-5.1852 -21.1449,-1.7925 -26.33041,7.6036 l -9.71566,17.6055 c -14.71375,-3.9239 -30.09207,-5.693 -45.7128,-5.112 l -5.58347,-19.3349 c -2.97748,-10.3107 -13.67909,-16.2165 -23.98978,-13.239 l -35.36746,10.2132 z m 54.62085,119.3111 c 29.80907,-8.6081 60.93229,8.5928 69.54041,38.4018 8.60811,29.809 -8.55408,60.9536 -38.36315,69.5617 -29.80898,8.6082 -60.96218,-8.5841 -69.57029,-38.3931 -8.60811,-29.809 8.58405,-60.9622 38.39303,-69.5704 z"
     id="path3829" />
  <path
     id="path3848"
     d="m 633.21968,503.86122 c -3.83658,-4.16884 -10.28374,-4.43633 -14.45254,-0.59996 l -7.8174,7.19441 c -6.89255,-4.54583 -14.32016,-7.9691 -22.03873,-10.23129 l 0.44003,-10.60622 c 0.23486,-5.6607 -4.13671,-10.41094 -9.79749,-10.64581 l -19.40636,-0.79369 c -5.66091,-0.23437 -10.39882,4.12562 -10.63372,9.78643 l -0.44013,10.60632 c -7.87667,1.61416 -15.57867,4.40135 -22.82179,8.35822 l -7.18337,-7.80525 c -3.83665,-4.16885 -10.28362,-4.43643 -14.45241,-0.59995 l -14.29966,13.16036 c -4.16883,3.83668 -4.43622,10.28352 -0.59965,14.45246 l 7.18339,7.80525 c -4.54071,6.88645 -7.94697,14.32873 -10.20808,22.03973 l -10.60624,-0.44032 c -5.66067,-0.23536 -10.41087,4.13677 -10.64576,9.79747 l -0.81688,19.40552 c -0.23487,5.66081 4.13671,10.41115 9.79749,10.64581 l 10.60625,0.44033 c 1.61512,7.88024 4.39819,15.57577 8.3583,22.82162 l -7.80527,7.18336 c -4.16892,3.83677 -4.43636,10.28381 -0.59975,14.45255 l 13.16018,14.29968 c 3.83661,4.16874 10.28362,4.43633 14.45252,0.59996 l 7.80522,-7.18316 c 6.88987,4.5431 14.32447,7.94638 22.03969,10.208 l -0.44012,10.60622 c -0.23487,5.6607 4.13674,10.41094 9.79752,10.64581 l 19.41764,0.80563 c 5.66078,0.23537 10.41099,-4.13677 10.64581,-9.79758 l 0.44003,-10.60622 c 7.86896,-1.61482 15.56206,-4.40593 22.79851,-8.35931 l 7.19453,7.81749 c 3.83669,4.16884 10.28359,4.43642 14.45245,0.59995 l 14.2996,-13.16027 c 4.16884,-3.83667 4.43627,-10.28352 0.59965,-14.45246 l -7.19454,-7.81738 c 4.54069,-6.88645 7.94693,-14.32883 10.20808,-22.03973 l 10.62957,0.44141 c 5.66073,0.23537 10.39872,-4.12542 10.63365,-9.78633 l 0.80563,-19.41746 c 0.23487,-5.6608 -4.1368,-10.41094 -9.79753,-10.64581 l -10.60614,-0.44032 c -1.61439,-7.87509 -4.40314,-15.55657 -8.35923,-22.79844 l 7.81741,-7.1945 c 4.16877,-3.83658 4.43635,-10.28381 0.59975,-14.45256 l -13.16021,-14.29957 z m -43.48639,53.92191 c 11.092,12.05223 10.30208,30.8081 -1.75018,41.90007 -12.05222,11.09187 -30.80917,10.3253 -41.90105,-1.72703 -11.09188,-12.05223 -10.31313,-30.82023 1.73909,-41.9122 12.05231,-11.09196 30.82026,-10.31307 41.91214,1.73916 z"
     style="fill:url(#linearGradient3872);fill-opacity:1;fill-rule:evenodd;stroke:#000000;stroke-width:0;stroke-linecap:butt;stroke-linejoin:miter;stroke-miterlimit:4;stroke-opacity:1;stroke-dasharray:none;stroke-dashoffset:0"
     inkscape:connector-curvature="0" />
  <path
     id="path3882"
     d="m 319.73918,192.75856 c -10.31069,2.9775 -16.21649,13.6791 -13.23901,23.9898 l 5.58347,19.335 c -13.53434,7.8383 -25.61837,17.5329 -35.98034,28.7029 l -17.60547,-9.7157 c -9.39607,-5.1853 -21.14471,-1.7926 -26.33032,7.6035 l -17.75721,32.2229 c -5.18543,9.3964 -1.80142,21.1148 7.5949,26.3003 l 17.60544,9.7157 c -3.92538,14.716 -5.71459,30.1281 -5.13323,45.7515 l -19.30499,5.5748 c -10.31079,2.9775 -16.21654,13.6789 -13.239,23.9898 l 10.21323,35.3673 c 2.97754,10.3109 13.679,16.2166 23.98979,13.239 l 19.30498,-5.5748 c 7.83233,13.5203 17.56642,25.588 28.72428,35.9417 l -9.71576,17.6055 c -5.18551,9.3961 -1.79276,21.1449 7.60356,26.3303 l 32.2014,17.7959 c 9.39647,5.1856 21.14511,1.7929 26.33032,-7.6036 l 9.71578,-17.6053 c 14.72306,3.9269 30.12036,5.7173 45.75143,5.1332 l 5.57479,19.3049 c 2.97756,10.311 13.67909,16.2165 23.98978,13.239 l 35.36746,-10.2132 c 10.31069,-2.9775 16.21657,-13.6788 13.23901,-23.9898 l -5.57479,-19.3049 c 13.52751,-7.8361 25.58368,-17.5594 35.94171,-28.7243 l 17.60535,9.7157 c 9.39638,5.1857 21.14502,1.7929 26.33042,-7.6036 l 17.78721,-32.2314 c 5.18555,-9.3963 1.7928,-21.145 -7.60356,-26.3303 l -17.60547,-9.7157 c 3.91778,-14.7035 5.69275,-30.104 5.11195,-45.7128 l 19.33495,-5.5835 c 10.31089,-2.9775 16.21655,-13.6789 13.23901,-23.9898 l -10.21324,-35.3673 c -2.97753,-10.3109 -13.6789,-16.2166 -23.98978,-13.2391 l -19.33496,5.5835 c -7.83242,-13.5202 -17.56651,-25.5879 -28.72427,-35.9417 l 9.73707,-17.6441 c 5.18556,-9.3963 1.80154,-21.1148 -7.5949,-26.3003 l -32.23141,-17.7874 c -9.39626,-5.1852 -21.1449,-1.7925 -26.33041,7.6036 l -9.71566,17.6055 c -14.71375,-3.9239 -30.09207,-5.693 -45.7128,-5.112 l -5.58347,-19.3349 c -2.97748,-10.3107 -13.67909,-16.2165 -23.98978,-13.239 l -35.36746,10.2132 z m 54.62085,119.3111 c 29.80907,-8.6081 60.93229,8.5928 69.54041,38.4018 8.60811,29.809 -8.55408,60.9536 -38.36315,69.5617 -29.80898,8.6082 -60.96218,-8.5841 -69.57029,-38.3931 -8.60811,-29.809 8.58405,-60.9622 38.39303,-69.5704 z"
     style="fill:url(#radialGradient3892);fill-opacity:1;fill-rule:evenodd;stroke:#000000;stroke-width:0;stroke-linecap:butt;stroke-linejoin:miter;stroke-miterlimit:4;stroke-opacity:1;stroke-dasharray:none;stroke-dashoffset:0;opacity:0.71300448000000005"
     inkscape:connector-curvature="0" />
  <path
     inkscape:connector-curvature="0"
     style="fill:url(#radialGradient3896);fill-opacity:1;fill-rule:evenodd;stroke:#000000;stroke-width:0;stroke-linecap:butt;stroke-linejoin:miter;stroke-miterlimit:4;stroke-opacity:1;stroke-dasharray:none;stroke-dashoffset:0;opacity:0.60538117000000002"
     d="m 633.21968,503.86122 c -3.83658,-4.16884 -10.28374,-4.43633 -14.45254,-0.59996 l -7.8174,7.19441 c -6.89255,-4.54583 -14.32016,-7.9691 -22.03873,-10.23129 l 0.44003,-10.60622 c 0.23486,-5.6607 -4.13671,-10.41094 -9.79749,-10.64581 l -19.40636,-0.79369 c -5.66091,-0.23437 -10.39882,4.12562 -10.63372,9.78643 l -0.44013,10.60632 c -7.87667,1.61416 -15.57867,4.40135 -22.82179,8.35822 l -7.18337,-7.80525 c -3.83665,-4.16885 -10.28362,-4.43643 -14.45241,-0.59995 l -14.29966,13.16036 c -4.16883,3.83668 -4.43622,10.28352 -0.59965,14.45246 l 7.18339,7.80525 c -4.54071,6.88645 -7.94697,14.32873 -10.20808,22.03973 l -10.60624,-0.44032 c -5.66067,-0.23536 -10.41087,4.13677 -10.64576,9.79747 l -0.81688,19.40552 c -0.23487,5.66081 4.13671,10.41115 9.79749,10.64581 l 10.60625,0.44033 c 1.61512,7.88024 4.39819,15.57577 8.3583,22.82162 l -7.80527,7.18336 c -4.16892,3.83677 -4.43636,10.28381 -0.59975,14.45255 l 13.16018,14.29968 c 3.83661,4.16874 10.28362,4.43633 14.45252,0.59996 l 7.80522,-7.18316 c 6.88987,4.5431 14.32447,7.94638 22.03969,10.208 l -0.44012,10.60622 c -0.23487,5.6607 4.13674,10.41094 9.79752,10.64581 l 19.41764,0.80563 c 5.66078,0.23537 10.41099,-4.13677 10.64581,-9.79758 l 0.44003,-10.60622 c 7.86896,-1.61482 15.56206,-4.40593 22.79851,-8.35931 l 7.19453,7.81749 c 3.83669,4.16884 10.28359,4.43642 14.45245,0.59995 l 14.2996,-13.16027 c 4.16884,-3.83667 4.43627,-10.28352 0.59965,-14.45246 l -7.19454,-7.81738 c 4.54069,-6.88645 7.94693,-14.32883 10.20808,-22.03973 l 10.62957,0.44141 c 5.66073,0.23537 10.39872,-4.12542 10.63365,-9.78633 l 0.80563,-19.41746 c 0.23487,-5.6608 -4.1368,-10.41094 -9.79753,-10.64581 l -10.60614,-0.44032 c -1.61439,-7.87509 -4.40314,-15.55657 -8.35923,-22.79844 l 7.81741,-7.1945 c 4.16877,-3.83658 4.43635,-10.28381 0.59975,-14.45256 l -13.16021,-14.29957 z m -43.48639,53.92191 c 11.092,12.05223 10.30208,30.8081 -1.75018,41.90007 -12.05222,11.09187 -30.80917,10.3253 -41.90105,-1.72703 -11.09188,-12.05223 -10.31313,-30.82023 1.73909,-41.9122 12.05231,-11.09196 30.82026,-10.31307 41.91214,1.73916 z"
     id="path3894" />
  <path
     inkscape:connector-curvature="0"
     style="fill:url(#radialGradient3910);fill-opacity:1;fill-rule:evenodd;stroke:#000000;stroke-width:0;stroke-linecap:butt;stroke-linejoin:miter;stroke-miterlimit:4;stroke-opacity:1;stroke-dasharray:none;stroke-dashoffset:0;opacity:0.71300448000000005"
     d="m 319.73918,192.75856 c -10.31069,2.9775 -16.21649,13.6791 -13.23901,23.9898 l 5.58347,19.335 c -13.53434,7.8383 -25.61837,17.5329 -35.98034,28.7029 l -17.60547,-9.7157 c -9.39607,-5.1853 -21.14471,-1.7926 -26.33032,7.6035 l -17.75721,32.2229 c -5.18543,9.3964 -1.80142,21.1148 7.5949,26.3003 l 17.60544,9.7157 c -3.92538,14.716 -5.71459,30.1281 -5.13323,45.7515 l -19.30499,5.5748 c -10.31079,2.9775 -16.21654,13.6789 -13.239,23.9898 l 10.21323,35.3673 c 2.97754,10.3109 13.679,16.2166 23.98979,13.239 l 19.30498,-5.5748 c 7.83233,13.5203 17.56642,25.588 28.72428,35.9417 l -9.71576,17.6055 c -5.18551,9.3961 -1.79276,21.1449 7.60356,26.3303 l 32.2014,17.7959 c 9.39647,5.1856 21.14511,1.7929 26.33032,-7.6036 l 9.71578,-17.6053 c 14.72306,3.9269 30.12036,5.7173 45.75143,5.1332 l 5.57479,19.3049 c 2.97756,10.311 13.67909,16.2165 23.98978,13.239 l 35.36746,-10.2132 c 10.31069,-2.9775 16.21657,-13.6788 13.23901,-23.9898 l -5.57479,-19.3049 c 13.52751,-7.8361 25.58368,-17.5594 35.94171,-28.7243 l 17.60535,9.7157 c 9.39638,5.1857 21.14502,1.7929 26.33042,-7.6036 l 17.78721,-32.2314 c 5.18555,-9.3963 1.7928,-21.145 -7.60356,-26.3303 l -17.60547,-9.7157 c 3.91778,-14.7035 5.69275,-30.104 5.11195,-45.7128 l 19.33495,-5.5835 c 10.31089,-2.9775 16.21655,-13.6789 13.23901,-23.9898 l -10.21324,-35.3673 c -2.97753,-10.3109 -13.6789,-16.2166 -23.98978,-13.2391 l -19.33496,5.5835 c -7.83242,-13.5202 -17.56651,-25.5879 -28.72427,-35.9417 l 9.73707,-17.6441 c 5.18556,-9.3963 1.80154,-21.1148 -7.5949,-26.3003 l -32.23141,-17.7874 c -9.39626,-5.1852 -21.1449,-1.7925 -26.33041,7.6036 l -9.71566,17.6055 c -14.71375,-3.9239 -30.09207,-5.693 -45.7128,-5.112 l -5.58347,-19.3349 c -2.97748,-10.3107 -13.67909,-16.2165 -23.98978,-13.239 l -35.36746,10.2132 z m 54.62085,119.3111 c 29.80907,-8.6081 60.93229,8.5928 69.54041,38.4018 8.60811,29.809 -8.55408,60.9536 -38.36315,69.5617 -29.80898,8.6082 -60.96218,-8.5841 -69.57029,-38.3931 -8.60811,-29.809 8.58405,-60.9622 38.39303,-69.5704 z"
     id="path3898" />
  <path
     inkscape:connector-curvature="0"
     id="path3912"
     d="m 368.34583,135.60519 c -13.40143,0 -24.19425,10.79282 -24.19425,24.19425 l 0,25.1308 c -18.95294,4.71485 -36.80899,12.15907 -53.11023,21.97001 l -17.75553,-17.75552 c -9.47615,-9.47616 -24.74657,-9.47616 -34.2231,0 l -32.46713,32.50621 c -9.4764,9.47653 -9.4764,24.70773 0,34.18414 l 17.75553,17.7554 c -9.8077,16.29513 -17.29374,34.16541 -22.00897,53.11035 l -25.09185,0 c -13.40155,0 -24.19425,10.79258 -24.19425,24.19426 l 0,45.96908 c 0,13.40168 10.7927,24.19425 24.19425,24.19425 l 25.09185,0 c 4.71248,18.93396 12.20976,36.78414 22.00897,53.07127 l -17.75553,17.75553 c -9.4764,9.47615 -9.4764,24.74669 0,34.2231 l 32.46713,32.50609 c 9.47653,9.47665 24.74695,9.47665 34.2231,0 l 17.75553,-17.7554 c 16.30299,9.81194 34.15504,17.29436 53.11023,22.00896 l 0,25.09173 c 0,13.4018 10.79282,24.19425 24.19425,24.19425 l 45.96921,0 c 13.40143,0 24.19425,-10.79245 24.19425,-24.19425 l 0,-25.09173 c 18.94395,-4.71447 36.77652,-12.20277 53.07127,-22.00896 l 17.7554,17.7554 c 9.4764,9.47665 24.74682,9.47665 34.22322,0 l 32.50609,-32.50609 c 9.47653,-9.47641 9.47653,-24.74695 0,-34.2231 l -17.75552,-17.75553 c 9.79421,-16.28264 17.25915,-34.14393 21.97001,-53.07127 l 25.1308,0 c 13.40168,0 24.19426,-10.79257 24.19426,-24.19425 l 0,-45.96908 c 0,-13.40168 -10.79258,-24.19426 -24.19426,-24.19426 l -25.1308,0 c -4.71261,-18.93395 -12.20989,-36.78413 -22.00897,-53.07127 l 17.79448,-17.79448 c 9.47653,-9.47641 9.47653,-24.70761 0,-34.18414 l -32.50609,-32.50621 c -9.4764,-9.47616 -24.74682,-9.47616 -34.22322,0 l -17.7554,17.75552 c -16.29288,-9.80507 -34.12957,-17.25528 -53.07127,-21.97001 l 0,-25.1308 c 0,-13.40143 -10.79282,-24.19425 -24.19425,-24.19425 l -45.96921,0 z m 24.19425,162.06254 c 38.74465,0 70.12438,31.41881 70.12438,70.16334 0,38.74452 -31.37973,70.16333 -70.12438,70.16333 -38.74452,0 -70.16321,-31.41881 -70.16321,-70.16333 0,-38.74453 31.41869,-70.16334 70.16321,-70.16334 z"
     style="fill:url(#radialGradient3914);fill-opacity:1;fill-rule:evenodd;stroke:#000000;stroke-width:0;stroke-linecap:butt;stroke-linejoin:miter;stroke-miterlimit:4;stroke-opacity:1;stroke-dasharray:none;stroke-dashoffset:0" />
</svg>
